<svg xmlns="http://www.w3.org/2000/svg" id="Expand" width="60.001" height="60" viewBox="0 0 60.001 60">
    <defs>
        <style>
            .cls-1{fill:#fff}
        </style>
    </defs>
    <path id="Path_2781" d="M59.964 54.528A3.871 3.871 0 0 0 60 54a3.992 3.992 0 0 0-7.472-1.964A3.987 3.987 0 0 0 49 53.388V11.06l1.059-.06A1 1 0 0 0 51 10V7.1l2.049-.1-.1-2L48 5.242V3a1 1 0 0 0-1-1H17a1 1 0 0 0-1 1v3.8l-4.049.2A1 1 0 0 0 11 8v43.382A3.983 3.983 0 0 0 4 54a3.871 3.871 0 0 0 .036.528A3.992 3.992 0 0 0 6 62h52a3.992 3.992 0 0 0 1.964-7.472zM44.556 60H40v-7h2v-2H22v2h2v7h-4.556A3.953 3.953 0 0 0 17 54.142V49h30v5.142A3.953 3.953 0 0 0 44.556 60zM31 53v3h-2v2h2v2h-5v-7zm2 5h2v-2h-2v-3h5v7h-5zm-2-27v7h-6v-7zm-6-2v-7h6v7zm22 9h-6v-7h6zm-8 0h-6v-7h6zm-8 2v7h-6v-7zm2 0h6v7h-6zm8 0h6v7h-6zm6-11h-6v-7h6zm-8 0h-6v-7h6zm-6-9v-8l6-.353V20zm-2 0h-6v-7.527l6-.353zm-8 0h-6v-7.057l6-.353zm-6 2h6v7h-6zm0 9h6v7h-6zm0 9h6v7h-6zm30-20h-6v-8.469l6-.353zM18 4h28v1.34L18 6.706zm31 3.2v1.857L15.941 11A1 1 0 0 0 15 12v41.387a4.05 4.05 0 0 0-2-1.245V8.952zM6 60a1.994 1.994 0 0 1-.519-3.92 1 1 0 0 0 .666-1.338 1.993 1.993 0 1 1 3.772-1.262 1 1 0 0 0 .519.634.983.983 0 0 0 .818.033 2.006 2.006 0 0 1 2.663 1.333 1 1 0 0 0 .519.634.983.983 0 0 0 .818.033A2 2 0 1 1 16 60zm52 0H48a2 2 0 1 1 .744-3.853.983.983 0 0 0 .818-.033 1 1 0 0 0 .519-.634 2.006 2.006 0 0 1 2.663-1.333.983.983 0 0 0 .818-.033 1 1 0 0 0 .519-.634 1.993 1.993 0 1 1 3.772 1.262 1 1 0 0 0 .666 1.338A1.994 1.994 0 0 1 58 60z" class="cls-1" data-name="Path 2781" transform="translate(-2 -2)"/>
    <path id="Rectangle_966" d="M0 0H2V22H0z" class="cls-1" data-name="Rectangle 966" transform="translate(5.739 12)"/>
    <path id="Rectangle_967" d="M0 0H2V22H0z" class="cls-1" data-name="Rectangle 967" transform="translate(49.739 23)"/>
    <path id="Rectangle_968" d="M0 0H2V2H0z" class="cls-1" data-name="Rectangle 968" transform="translate(49.739 19)"/>
</svg>
