<svg xmlns="http://www.w3.org/2000/svg" id="Group_1675" width="40.461" height="60.027" data-name="Group 1675" viewBox="0 0 40.461 60.027">
    <g id="Group_1674" data-name="Group 1674">
        <path id="Path_2813" fill="#fff" d="M123.028 48.636a.879.879 0 0 0-.879.879v8.267a.486.486 0 0 1-.485.485h-4.727V40.952a.879.879 0 1 0-1.759 0v17.316h-9.518l2.76-3.037a1.576 1.576 0 0 0 .38-1.265v-.027l-2.629-15.53.708-1.066a1.994 1.994 0 0 0 1.259.546 1.54 1.54 0 0 0 1.378-.852l2.773-5.557 6.316 2.446a6.093 6.093 0 0 1 3.547 5.538v5.948a.879.879 0 1 0 1.759 0v-5.948a7.848 7.848 0 0 0-4.641-7.167l-.017-.007-10.516-4.07v-2.466a8.239 8.239 0 0 0 3.118-5.42 3.806 3.806 0 0 0 2.236-.912 3.733 3.733 0 0 0 .389-5.267V10.9a10.9 10.9 0 1 0-21.8 0v3.34a3.531 3.531 0 0 0-.907 2.353 3.726 3.726 0 0 0 1.3 2.829 3.8 3.8 0 0 0 2.235.912 8.152 8.152 0 0 0 3.3 5.55v2.336L88.1 32.291l-.017.007a7.847 7.847 0 0 0-4.641 7.167v18.317a2.247 2.247 0 0 0 2.244 2.244h8.378a.879.879 0 1 0 0-1.759h-1.887V40.952a.879.879 0 1 0-1.759 0v17.316h-4.727a.486.486 0 0 1-.485-.485V39.464a6.093 6.093 0 0 1 3.546-5.538l6.312-2.447 2.773 5.557a1.54 1.54 0 0 0 1.378.852 1.993 1.993 0 0 0 1.259-.546l.708 1.066-2.629 15.532v.026a1.577 1.577 0 0 0 .38 1.265l2.76 3.037h-3.52a.879.879 0 1 0 0 1.759h23.491a2.247 2.247 0 0 0 2.244-2.244v-8.267a.88.88 0 0 0-.88-.88zm-12.39-17.794l-2.585 5.181-3.109-2.208 3.193-3.941zm-5.2 5.483l-.67 1.009h-2.193l-.67-1.009 1.767-1.255zm-5.074-7.825v-1.642a8.922 8.922 0 0 0 3.325.63 8.255 8.255 0 0 0 3.289-.685v1.708l-3.3 4.078zm13.264-11.909a1.97 1.97 0 0 1-.685 1.5 2.048 2.048 0 0 1-1.015.467v-3.926a1.989 1.989 0 0 1 1.701 1.962zm-18.391 1.966a1.987 1.987 0 0 1-1.7-1.963 2.088 2.088 0 0 1 1.7-1.918zm.047-5.672a4.347 4.347 0 0 0-.84.189V10.9a9.139 9.139 0 1 1 18.278 0v2.115a3.909 3.909 0 0 0-.793-.153c0-.848.007-.685-2.768-3.669a1.564 1.564 0 0 0-2-.244 16.953 16.953 0 0 1-10.249 2.759 1.564 1.564 0 0 0-1.628 1.176zM97 19.249v-5.775a18.791 18.791 0 0 0 10.99-2.964c1.273 1.367 1.962 2.084 2.185 2.356v6.383a6.588 6.588 0 0 1-13.175 0zm2.3 16.774l-2.59-5.181 2.5-.967 3.194 3.942zm1 18.107l2.545-15.038h1.65l2.545 15.038-3.37 3.707z" data-name="Path 2813" transform="translate(-83.447)"/>
    </g>
</svg>
