<svg xmlns="http://www.w3.org/2000/svg" width="117.028" height="72" viewBox="0 0 117.028 72">
    <g id="Group_2676" data-name="Group 2676" opacity="0.2" transform="translate(.496 -.24)">
        <g id="Group_2674" data-name="Group 2674" transform="translate(-.24 .24)">
            <g id="Group_2673" data-name="Group 2673">
                <path id="Path_3552" d="M72.573 12.813H19.631a3.226 3.226 0 0 0-3.222 3.222v14.6l-2.421-3.631a3.744 3.744 0 0 0-5.054-1.137l-4.981 2.997a7.308 7.308 0 0 0-3.338 4.33C-1.2 39.81.145 51.209 16.876 67.942 30.181 81.233 40.1 84.813 46.938 84.813a17.652 17.652 0 0 0 4.688-.612 7.321 7.321 0 0 0 4.331-3.334l2.991-4.986a3.744 3.744 0 0 0-1.137-5.048l-11.927-7.95a3.764 3.764 0 0 0-5.039.818l-3.472 4.464a1.209 1.209 0 0 1-1.547.327l-.661-.364c-2.174-1.186-4.88-2.662-10.346-8.128-.591-.591-1.127-1.145-1.63-1.674h49.384a3.22 3.22 0 0 0 3.227-3.207V16.035a3.226 3.226 0 0 0-3.227-3.222zM33.957 70.346l.642.353a3.722 3.722 0 0 0 4.77-.983l3.472-4.464a1.228 1.228 0 0 1 1.643-.267l11.927 7.95a1.22 1.22 0 0 1 .37 1.643l-2.991 4.986a4.8 4.8 0 0 1-2.832 2.2c-5.973 1.643-16.426.253-32.291-15.614S1.417 39.83 3.055 33.863a4.8 4.8 0 0 1 2.2-2.832l4.986-2.992a1.222 1.222 0 0 1 1.643.37l7.954 11.927a1.227 1.227 0 0 1-.267 1.643L15.1 45.452a3.721 3.721 0 0 0-.983 4.769l.354.642c1.264 2.317 2.834 5.2 8.559 10.925s8.611 7.295 10.927 8.558zm39.311-15.227a.69.69 0 0 1-.695.682H20.909a31.866 31.866 0 0 1-4.217-6.146l-.364-.663a1.205 1.205 0 0 1 .326-1.544l4.465-3.473a3.763 3.763 0 0 0 .818-5.039l-3-4.506V16.035a.687.687 0 0 1 .695-.695h52.941a.687.687 0 0 1 .695.695v39.084z" data-name="Path 3552" transform="translate(40.976 -12.813)"/>
                <path id="Path_3553" d="M171.106 26.084L145.3 45.639a1.7 1.7 0 0 1-2 0l-26-19.7a1.264 1.264 0 0 0-1.528 2.014l26.006 19.7a4.253 4.253 0 0 0 5.054 0L172.633 28.1a1.264 1.264 0 0 0-1.527-2.014z" data-name="Path 3553" transform="translate(-57.22 -24.289)"/>
                <path id="Path_3554" d="M146.7 143.461l-20.3 21.854a1.264 1.264 0 1 0 1.849 1.724l20.3-21.861a1.264 1.264 0 0 0-1.849-1.717z" data-name="Path 3554" transform="translate(-66.415 -124.331)"/>
                <path id="Path_3555" d="M148.7 143.461l-20.3 21.854a1.264 1.264 0 1 0 1.849 1.724l20.3-21.861a1.264 1.264 0 0 0-1.849-1.717z" data-name="Path 3555" transform="translate(-68.118 -124.331)"/>
                <path id="Path_3556" d="M341.127 143.446a1.264 1.264 0 0 0-.113 1.732l20.3 21.861a1.264 1.264 0 0 0 1.849-1.724l-20.3-21.854a1.264 1.264 0 0 0-1.736-.015z" data-name="Path 3556" transform="translate(-249.295 -124.331)"/>
                <g id="Group_2676-2" data-name="Group 2676" transform="translate(0 27.398)">
                    <rect id="Rectangle_1292" width="25" height="2" data-name="Rectangle 1292" rx="1" transform="translate(9.744 1.602)"/>
                    <rect id="Rectangle_1293" width="35" height="2" data-name="Rectangle 1293" rx="1" transform="translate(-.256 7.602)"/>
                    <rect id="Rectangle_1294" width="29" height="2" data-name="Rectangle 1294" rx="1" transform="translate(5.744 13.602)"/>
                </g>
            </g>
        </g>
    </g>
</svg>
