<svg xmlns="http://www.w3.org/2000/svg" id="Group_1585" width="62.165" height="60" data-name="Group 1585" viewBox="0 0 62.165 60">
    <defs>
        <style>
            .cls-1{fill:#fff}
        </style>
    </defs>
    <g id="Group_1574" data-name="Group 1574">
        <g id="Group_1573" data-name="Group 1573">
            <path id="Path_2778" d="M60.724 24.786l-.057-.038-7.315-4.876h.214v-7.5A1.071 1.071 0 0 0 52.5 11.3h-5.361a1.071 1.071 0 0 0-1.071 1.071v2.641l-10.12-6.747a1.071 1.071 0 0 0-1.189 0L10.041 24.748a3.3 3.3 0 0 0 3.6 5.529l.057-.038 3.44-2.294V48.8H15a1.071 1.071 0 0 0-1.071-1.071H5.357A1.071 1.071 0 0 0 4.285 48.8H0v2.143h4.285v10.711H0V63.8h4.285a1.071 1.071 0 0 0 1.071 1.071h8.571A1.071 1.071 0 0 0 15 63.8v-.408l8 3.321a18.546 18.546 0 0 0 13.634.15l16.55-6.309a3.9 3.9 0 0 0 2.188-2.086 3.964 3.964 0 0 0 .063-3.076 3.888 3.888 0 0 0-1.865-2.043v-25.4l3.44 2.294a3.3 3.3 0 1 0 3.718-5.453zm-47.868 37.94H6.428V49.87h6.428zM48.21 13.445h3.214v5.142l-3.214-2.143zm5.2 44.155a1.774 1.774 0 0 1-.992.949l-16.55 6.31a16.391 16.391 0 0 1-12.055-.131L15 61.067V50.941h2.716a22.99 22.99 0 0 1 10.234 2.417 7.606 7.606 0 0 0 3.38.8h8.31a1.607 1.607 0 0 1 .355 3.172c-.14.013-.279.042-.421.042H26.783v2.143h12.856c.021 0 .042-.006.064-.006a6.627 6.627 0 0 0 2.473-.523l8.957-3.8a1.7 1.7 0 0 1 1.336 0 1.777 1.777 0 0 1 .964 1 1.842 1.842 0 0 1-.024 1.414zm-13.77-5.587h-8.31a5.463 5.463 0 0 1-2.422-.571 25.153 25.153 0 0 0-9.623-2.589V26.515L35.354 15.8l16.07 10.713v26.423a3.873 3.873 0 0 0-1.128.27l-6.947 2.95a3.706 3.706 0 0 0 .04-.394 3.75 3.75 0 0 0-3.75-3.75zm19.745-23.5a1.147 1.147 0 0 1-1.189-.057L35.948 13.625a1.071 1.071 0 0 0-1.189 0L12.513 28.456a1.159 1.159 0 0 1-1.285-1.928l24.126-16.083 24.125 16.086a1.156 1.156 0 0 1 .515.964 1.139 1.139 0 0 1-.61 1.018z" class="cls-1" data-name="Path 2778" transform="translate(0 -8.084)"/>
        </g>
    </g>
    <g id="Group_1576" data-name="Group 1576" transform="translate(8.571 50.356)">
        <g id="Group_1575" data-name="Group 1575">
            <path id="Rectangle_963" d="M0 0H2.143V2.143H0z" class="cls-1" data-name="Rectangle 963"/>
        </g>
    </g>
    <g id="Group_1578" data-name="Group 1578" transform="translate(32.14 21.43)">
        <g id="Group_1577" data-name="Group 1577">
            <path id="Path_2779" d="M246.289 175.925a3.047 3.047 0 0 0-1.552-1.823l-2.088-1.045a.915.915 0 0 1 .408-1.733h.313a.917.917 0 0 1 .915.915v.156h2.143v-.156a3.052 3.052 0 0 0-2.143-2.9v-1.229h-2.143v1.227a3.047 3.047 0 0 0-.452 5.637l2.088 1.045a.915.915 0 0 1-.408 1.733h-.313a.917.917 0 0 1-.915-.915v-.156H240v.156a3.052 3.052 0 0 0 2.143 2.9v1.227h2.143v-1.227a3.047 3.047 0 0 0 2.003-3.812z" class="cls-1" data-name="Path 2779" transform="translate(-239.999 -168.11)"/>
        </g>
    </g>
    <g id="Group_1580" data-name="Group 1580" transform="translate(24.641 17.145)">
        <g id="Group_1579" data-name="Group 1579">
            <path id="Path_2780" d="M194.713 136.11a10.713 10.713 0 1 0 10.713 10.713 10.725 10.725 0 0 0-10.713-10.713zm0 19.284a8.571 8.571 0 1 1 8.571-8.571 8.571 8.571 0 0 1-8.571 8.571z" class="cls-1" data-name="Path 2780" transform="translate(-184 -136.11)"/>
        </g>
    </g>
    <g id="Group_1582" data-name="Group 1582" transform="translate(39.639 26.787)">
        <g id="Group_1581" data-name="Group 1581">
            <path id="Rectangle_964" d="M0 0H2.143V2.143H0z" class="cls-1" data-name="Rectangle 964"/>
        </g>
    </g>
    <g id="Group_1584" data-name="Group 1584" transform="translate(28.926 26.787)">
        <g id="Group_1583" data-name="Group 1583">
            <path id="Rectangle_965" d="M0 0H2.143V2.143H0z" class="cls-1" data-name="Rectangle 965"/>
        </g>
    </g>
</svg>
