<svg xmlns="http://www.w3.org/2000/svg" id="Group_1673" width="55.983" height="56" data-name="Group 1673" viewBox="0 0 55.983 56">
    <defs>
        <style>
            .cls-1{fill:#fff}
        </style>
    </defs>
    <g id="Group_1588" data-name="Group 1588" transform="translate(9.31 6.206)">
        <g id="Group_1587" data-name="Group 1587">
            <path id="Path_2782" d="M91.756 57.231a1.744 1.744 0 0 0-.1-.175.128.128 0 0 0-.061-.105.543.543 0 0 0-.158-.122.522.522 0 0 0-.114-.079h-.149a.68.68 0 0 0-.184 0h-4.371a.875.875 0 1 0 0 1.75h2.231a24.89 24.89 0 0 0-3.544 4.821.805.805 0 1 0 1.4.778v-.008a23.183 23.183 0 0 1 3.29-4.471v2.292a.875.875 0 0 0 1.75 0v-4.374a.693.693 0 0 0 0-.131 1.038 1.038 0 0 0 .01-.176z" class="cls-1" data-name="Path 2782" transform="translate(-85.196 -56.744)"/>
        </g>
    </g>
    <g id="Group_1590" data-name="Group 1590" transform="translate(21.005)">
        <g id="Group_1589" data-name="Group 1589">
            <path id="Path_2783" d="M221.49 42.849h-1.99a24.931 24.931 0 0 0-26.832-40.967.875.875 0 1 0 .665 1.619 23.187 23.187 0 0 1 24.736 38.325v-2.45a.875.875 0 1 0-1.75 0v4.489a1.55 1.55 0 0 0 0 .175 1.422 1.422 0 0 0 .087.158.345.345 0 0 0 .052.1.874.874 0 0 0 .219.175l.079.053a.8.8 0 0 0 .359.079h4.375a.875.875 0 0 0 0-1.75z" class="cls-1" data-name="Path 2783" transform="translate(-192.125)"/>
        </g>
    </g>
    <g id="Group_1592" data-name="Group 1592" transform="translate(17.506 3.911)">
        <g id="Group_1591" data-name="Group 1591">
            <path id="Rectangle_970" d="M0 0H1.75V1.75H0z" class="cls-1" data-name="Rectangle 970"/>
        </g>
    </g>
    <g id="Group_1594" data-name="Group 1594" transform="translate(42.557 45.22)">
        <g id="Group_1593" data-name="Group 1593">
            <path id="Rectangle_971" d="M0 0H1.75V1.75H0z" class="cls-1" data-name="Rectangle 971"/>
        </g>
    </g>
    <g id="Group_1596" data-name="Group 1596" transform="translate(21.469 11.611)">
        <g id="Group_1595" data-name="Group 1595">
            <path id="Path_2784" d="M197.653 106.161a15.37 15.37 0 0 0-1.286 1.3l1.286 1.173a14.5 14.5 0 0 1 1.173-1.146z" class="cls-1" data-name="Path 2784" transform="translate(-196.367 -106.161)"/>
        </g>
    </g>
    <g id="Group_1598" data-name="Group 1598" transform="translate(32.722 36.645)">
        <g id="Group_1597" data-name="Group 1597">
            <path id="Path_2785" d="M300.892 335.041c-.525.061-1.041.07-1.645.087l.1 1.768a14.966 14.966 0 0 0 1.75-.105z" class="cls-1" data-name="Path 2785" transform="translate(-299.247 -335.041)"/>
        </g>
    </g>
    <g id="Group_1600" data-name="Group 1600" transform="translate(17.506 21.193)">
        <g id="Group_1599" data-name="Group 1599">
            <path id="Path_2786" d="M160.241 193.761a16.222 16.222 0 0 0-.114 1.864h1.75a14.382 14.382 0 0 1 .114-1.636z" class="cls-1" data-name="Path 2786" transform="translate(-160.127 -193.761)"/>
        </g>
    </g>
    <g id="Group_1602" data-name="Group 1602" transform="translate(22.589 33.25)">
        <g id="Group_1601" data-name="Group 1601">
            <path id="Path_2787" d="M207.779 304l-1.173 1.33a14.261 14.261 0 0 0 1.452 1.155l1.006-1.435a13.394 13.394 0 0 1-1.285-1.05z" class="cls-1" data-name="Path 2787" transform="translate(-206.607 -304.001)"/>
        </g>
    </g>
    <g id="Group_1604" data-name="Group 1604" transform="translate(17.978 17.614)">
        <g id="Group_1603" data-name="Group 1603">
            <path id="Path_2788" d="M165.016 161.041a18.055 18.055 0 0 0-.569 1.75l1.7.437a13.625 13.625 0 0 1 .508-1.549z" class="cls-1" data-name="Path 2788" transform="translate(-164.447 -161.041)"/>
        </g>
    </g>
    <g id="Group_1606" data-name="Group 1606" transform="translate(18.494 27.895)">
        <g id="Group_1605" data-name="Group 1605">
            <path id="Path_2789" d="M170.8 255.041l-1.636.612a15.355 15.355 0 0 0 .744 1.7l1.523-.8a12.887 12.887 0 0 1-.631-1.512z" class="cls-1" data-name="Path 2789" transform="translate(-169.167 -255.041)"/>
        </g>
    </g>
    <g id="Group_1608" data-name="Group 1608" transform="translate(37.806 8.943)">
        <g id="Group_1607" data-name="Group 1607">
            <path id="Path_2790" d="M346.374 81.761l-.648 1.628a12.188 12.188 0 0 1 1.487.7l.84-1.54a16.352 16.352 0 0 0-1.679-.788z" class="cls-1" data-name="Path 2790" transform="translate(-345.727 -81.761)"/>
        </g>
    </g>
    <g id="Group_1610" data-name="Group 1610" transform="translate(17.593 24.71)">
        <g id="Group_1609" data-name="Group 1609">
            <path id="Path_2791" d="M162.677 225.921l-1.75.193a15.637 15.637 0 0 0 .315 1.829l1.715-.4a12.5 12.5 0 0 1-.28-1.622z" class="cls-1" data-name="Path 2791" transform="translate(-160.927 -225.921)"/>
        </g>
    </g>
    <g id="Group_1612" data-name="Group 1612" transform="translate(36.012 35.875)">
        <g id="Group_1611" data-name="Group 1611">
            <path id="Path_2792" d="M330.946 328a15.636 15.636 0 0 1-1.619.5l.42 1.7a17.915 17.915 0 0 0 1.75-.543z" class="cls-1" data-name="Path 2792" transform="translate(-329.327 -328.001)"/>
        </g>
    </g>
    <g id="Group_1614" data-name="Group 1614" transform="translate(31.173 7.875)">
        <g id="Group_1613" data-name="Group 1613">
            <path id="Path_2793" d="M286.732 72a14.681 14.681 0 0 0-1.645.088l.184 1.75a13.5 13.5 0 0 1 1.461-.087h.184V72z" class="cls-1" data-name="Path 2793" transform="translate(-285.087 -72)"/>
        </g>
    </g>
    <g id="Group_1616" data-name="Group 1616" transform="translate(20.131 30.809)">
        <g id="Group_1615" data-name="Group 1615">
            <path id="Path_2794" d="M185.6 281.681l-1.47.989a15.1 15.1 0 0 0 1.155 1.453l1.321-1.138a13.248 13.248 0 0 1-1.006-1.304z" class="cls-1" data-name="Path 2794" transform="translate(-184.127 -281.681)"/>
        </g>
    </g>
    <g id="Group_1618" data-name="Group 1618" transform="translate(46.039 19.74)">
        <g id="Group_1617" data-name="Group 1617">
            <path id="Path_2795" d="M422.722 180.481l-1.715.385a14.375 14.375 0 0 1 .271 1.628l1.75-.184a15.934 15.934 0 0 0-.306-1.829z" class="cls-1" data-name="Path 2795" transform="translate(-421.007 -180.481)"/>
        </g>
    </g>
    <g id="Group_1620" data-name="Group 1620" transform="translate(44.928 16.293)">
        <g id="Group_1619" data-name="Group 1619">
            <path id="Path_2796" d="M412.439 148.961l-1.593.787a12.639 12.639 0 0 1 .656 1.505l1.671-.586a14.729 14.729 0 0 0-.734-1.706z" class="cls-1" data-name="Path 2796" transform="translate(-410.847 -148.961)"/>
        </g>
    </g>
    <g id="Group_1622" data-name="Group 1622" transform="translate(27.594 8.269)">
        <g id="Group_1621" data-name="Group 1621">
            <path id="Path_2797" d="M254.117 75.6a15.524 15.524 0 0 0-1.75.534l.6 1.645a12.1 12.1 0 0 1 1.557-.472z" class="cls-1" data-name="Path 2797" transform="translate(-252.367 -75.601)"/>
        </g>
    </g>
    <g id="Group_1624" data-name="Group 1624" transform="translate(34.638 8.015)">
        <g id="Group_1623" data-name="Group 1623">
            <path id="Path_2798" d="M316.994 73.281l-.227 1.75a12.47 12.47 0 0 1 1.61.315l.438-1.715a15.879 15.879 0 0 0-1.821-.35z" class="cls-1" data-name="Path 2798" transform="translate(-316.767 -73.281)"/>
        </g>
    </g>
    <g id="Group_1626" data-name="Group 1626" transform="translate(41.787 32.2)">
        <g id="Group_1625" data-name="Group 1625">
            <path id="Path_2799" d="M383.291 294.4a13.283 13.283 0 0 1-1.164 1.164l1.155 1.313a15.489 15.489 0 0 0 1.313-1.312z" class="cls-1" data-name="Path 2799" transform="translate(-382.127 -294.401)"/>
        </g>
    </g>
    <g id="Group_1628" data-name="Group 1628" transform="translate(46.284 23.188)">
        <g id="Group_1627" data-name="Group 1627">
            <path id="Path_2800" d="M423.343 212a14.822 14.822 0 0 1-.1 1.645l1.75.21a14.688 14.688 0 0 0 .1-1.855z" class="cls-1" data-name="Path 2800" transform="translate(-423.247 -212.001)"/>
        </g>
    </g>
    <g id="Group_1630" data-name="Group 1630" transform="translate(45.506 26.443)">
        <g id="Group_1629" data-name="Group 1629">
            <path id="Path_2801" d="M416.608 241.761a13.562 13.562 0 0 1-.481 1.558l1.636.621a14.812 14.812 0 0 0 .543-1.759z" class="cls-1" data-name="Path 2801" transform="translate(-416.127 -241.761)"/>
        </g>
    </g>
    <g id="Group_1632" data-name="Group 1632" transform="translate(43.957 29.505)">
        <g id="Group_1631" data-name="Group 1631">
            <path id="Path_2802" d="M402.842 269.761a13.422 13.422 0 0 1-.875 1.409l1.435 1a14.769 14.769 0 0 0 .989-1.584z" class="cls-1" data-name="Path 2802" transform="translate(-401.967 -269.761)"/>
        </g>
    </g>
    <g id="Group_1634" data-name="Group 1634" transform="translate(43.108 13.213)">
        <g id="Group_1633" data-name="Group 1633">
            <path id="Path_2803" d="M395.537 120.8l-1.33 1.146a13.109 13.109 0 0 1 1 1.3l1.453-.971a14.26 14.26 0 0 0-1.123-1.475z" class="cls-1" data-name="Path 2803" transform="translate(-394.207 -120.801)"/>
        </g>
    </g>
    <g id="Group_1636" data-name="Group 1636" transform="translate(39.083 34.353)">
        <g id="Group_1635" data-name="Group 1635">
            <path id="Path_2804" d="M358.816 314.081a14.317 14.317 0 0 1-1.409.866l.814 1.531a14.621 14.621 0 0 0 1.584-.954z" class="cls-1" data-name="Path 2804" transform="translate(-357.407 -314.081)"/>
        </g>
    </g>
    <g id="Group_1638" data-name="Group 1638" transform="translate(40.693 10.719)">
        <g id="Group_1637" data-name="Group 1637">
            <path id="Path_2805" d="M373.177 98l-1.05 1.426a14.342 14.342 0 0 1 1.313 1.033l1.181-1.3A16.8 16.8 0 0 0 373.177 98z" class="cls-1" data-name="Path 2805" transform="translate(-372.127 -98.001)"/>
        </g>
    </g>
    <g id="Group_1640" data-name="Group 1640" transform="translate(29.082 36.33)">
        <g id="Group_1639" data-name="Group 1639">
            <path id="Path_2806" d="M266.387 332.161l-.42 1.689a12.814 12.814 0 0 0 1.82.359l.219-1.75a14.638 14.638 0 0 1-1.619-.298z" class="cls-1" data-name="Path 2806" transform="translate(-265.967 -332.161)"/>
        </g>
    </g>
    <g id="Group_1642" data-name="Group 1642" transform="translate(19.334 14.359)">
        <g id="Group_1641" data-name="Group 1641">
            <path id="Path_2807" d="M177.818 131.281a15.189 15.189 0 0 0-.971 1.575l1.54.831a11.608 11.608 0 0 1 .866-1.4z" class="cls-1" data-name="Path 2807" transform="translate(-176.847 -131.281)"/>
        </g>
    </g>
    <g id="Group_1644" data-name="Group 1644" transform="translate(24.269 9.52)">
        <g id="Group_1643" data-name="Group 1643">
            <path id="Path_2808" d="M223.56 87.041a15.187 15.187 0 0 0-1.592.98l.971 1.452a13.624 13.624 0 0 1 1.418-.875z" class="cls-1" data-name="Path 2808" transform="translate(-221.967 -87.041)"/>
        </g>
    </g>
    <g id="Group_1646" data-name="Group 1646" transform="translate(25.617 35.184)">
        <g id="Group_1645" data-name="Group 1645">
            <path id="Path_2809" d="M235.11 321.681l-.823 1.566a16.2 16.2 0 0 0 1.689.726l.63-1.6a14.393 14.393 0 0 1-1.496-.692z" class="cls-1" data-name="Path 2809" transform="translate(-234.287 -321.681)"/>
        </g>
    </g>
    <g id="Group_1648" data-name="Group 1648" transform="translate(1.756 42)">
        <g id="Group_1647" data-name="Group 1647">
            <path id="Rectangle_972" d="M0 0H1.75V1.75H0z" class="cls-1" data-name="Rectangle 972"/>
        </g>
    </g>
    <g id="Group_1650" data-name="Group 1650" transform="translate(1.756 45.5)">
        <g id="Group_1649" data-name="Group 1649">
            <path id="Rectangle_973" d="M0 0H1.75V1.75H0z" class="cls-1" data-name="Rectangle 973"/>
        </g>
    </g>
    <g id="Group_1652" data-name="Group 1652" transform="translate(1.756 49)">
        <g id="Group_1651" data-name="Group 1651">
            <path id="Rectangle_974" d="M0 0H1.75V1.75H0z" class="cls-1" data-name="Rectangle 974"/>
        </g>
    </g>
    <g id="Group_1654" data-name="Group 1654" transform="translate(1.756 52.5)">
        <g id="Group_1653" data-name="Group 1653">
            <path id="Rectangle_975" d="M0 0H1.75V1.75H0z" class="cls-1" data-name="Rectangle 975"/>
        </g>
    </g>
    <g id="Group_1656" data-name="Group 1656" transform="translate(5.256 45.5)">
        <g id="Group_1655" data-name="Group 1655">
            <path id="Rectangle_976" d="M0 0H1.75V1.75H0z" class="cls-1" data-name="Rectangle 976"/>
        </g>
    </g>
    <g id="Group_1658" data-name="Group 1658" transform="translate(5.256 49)">
        <g id="Group_1657" data-name="Group 1657">
            <path id="Rectangle_977" d="M0 0H1.75V1.75H0z" class="cls-1" data-name="Rectangle 977"/>
        </g>
    </g>
    <g id="Group_1660" data-name="Group 1660" transform="translate(5.256 52.5)">
        <g id="Group_1659" data-name="Group 1659">
            <path id="Rectangle_978" d="M0 0H1.75V1.75H0z" class="cls-1" data-name="Rectangle 978"/>
        </g>
    </g>
    <g id="Group_1662" data-name="Group 1662" transform="translate(8.756 49)">
        <g id="Group_1661" data-name="Group 1661">
            <path id="Rectangle_979" d="M0 0H1.75V1.75H0z" class="cls-1" data-name="Rectangle 979"/>
        </g>
    </g>
    <g id="Group_1664" data-name="Group 1664" transform="translate(8.756 52.5)">
        <g id="Group_1663" data-name="Group 1663">
            <path id="Rectangle_980" d="M0 0H1.75V1.75H0z" class="cls-1" data-name="Rectangle 980"/>
        </g>
    </g>
    <g id="Group_1666" data-name="Group 1666" transform="translate(12.256 52.5)">
        <g id="Group_1665" data-name="Group 1665">
            <path id="Rectangle_981" d="M0 0H1.75V1.75H0z" class="cls-1" data-name="Rectangle 981"/>
        </g>
    </g>
    <g id="Group_1668" data-name="Group 1668" transform="translate(0 12.369)">
        <g id="Group_1667" data-name="Group 1667">
            <path id="Path_2810" d="M43.447 150.865l-8.208-8.208a.875.875 0 0 0-1.1-.1c-.341.227-.665.464-.98.691-2.966 2.126-4.926 3.5-14-5.565s-7.7-11.077-5.6-14.044c.227-.315.464-.639.691-.98a.875.875 0 0 0-.105-1.1l-8.207-8.207a.865.865 0 0 0-1.339.131c-.394.577-.8 1.137-1.19 1.68-4.2 5.827-7.5 10.43 10.15 28.079 10.325 10.325 16.179 13.484 20.431 13.484 3.019 0 5.25-1.584 7.647-3.325.542-.394 1.1-.8 1.68-1.19a.865.865 0 0 0 .131-1.339zM4.833 116.18l.612-.875 6.939 6.947-.245.35c-.28.385-.542.77-.788 1.146l-7-7a3.438 3.438 0 0 0 .482-.568zm9.957 25.847C.405 127.677.58 122.795 3.389 118.28l7.131 7.131c-1.033 2.844.122 6.247 7.367 13.492s10.649 8.4 13.492 7.367l7.131 7.131c-4.51 2.81-9.335 2.976-23.72-11.374zm25.839 9.931l-.621.446-7-7c.394-.21.779-.473 1.2-.753l.35-.245 6.947 6.939z" class="cls-1" data-name="Path 2810" transform="translate(-.076 -113.087)"/>
        </g>
    </g>
    <g id="Group_1670" data-name="Group 1670" transform="translate(25.382 18.399)">
        <g id="Group_1669" data-name="Group 1669">
            <path id="Path_2811" d="M238.265 175.2h-3.141l3.762-3.754a.875.875 0 0 0 .21-.875 3.719 3.719 0 0 0-6.912 0v-.018a.9.9 0 0 0 1.689.607l.017-.047a1.829 1.829 0 0 1 1.75-1.164 1.855 1.855 0 0 1 1.549.717l-4.795 4.786a.88.88 0 0 0 .621 1.5h5.25a.875.875 0 1 0 0-1.75z" class="cls-1" data-name="Path 2811" transform="translate(-232.141 -168.22)"/>
        </g>
    </g>
    <g id="Group_1672" data-name="Group 1672" transform="translate(33.239 18.358)">
        <g id="Group_1671" data-name="Group 1671">
            <path id="Path_2812" d="M309.242 167.858a.875.875 0 0 0-.875.875v3.5h-2.433l.683-3.325a.892.892 0 0 0-1.75-.35l-.875 4.375a.883.883 0 0 0 .875 1.05h3.5v1.75a.875.875 0 1 0 1.75 0v-7a.875.875 0 0 0-.875-.875z" class="cls-1" data-name="Path 2812" transform="translate(-303.976 -167.841)"/>
        </g>
    </g>
</svg>
