<svg width="28" height="35" viewBox="0 0 28 35" fill="none" xmlns="http://www.w3.org/2000/svg">
<path fill-rule="evenodd" clip-rule="evenodd" d="M27.4732 17.8C27.8164 16.5872 28 15.3074 28 13.9848C28 13.9285 27.9997 13.8723 27.999 13.8162C27.9997 13.5631 27.9941 13.3085 27.982 13.0524H27.9694C27.4897 5.76355 21.4255 0 14.0153 0C6.60497 0 0.540842 5.76355 0.0610848 13.0524H0.0304934C-0.435643 20.0448 4.45216 27.3147 14.0236 34.4957C17.7896 31.7052 25.4091 25.7168 27.4732 17.8Z" fill="#fe6b8d"/>
<circle cx="14" cy="14" r="10" fill="white"/>
<path d="M15.72 10.6V17.236C15.72 18.104 15.734 18.692 15.762 19H14.67C14.6513 18.776 14.642 18.4073 14.642 17.894H14.614C14.3993 18.2673 14.0913 18.5707 13.69 18.804C13.2887 19.028 12.864 19.14 12.416 19.14C11.5107 19.14 10.792 18.804 10.26 18.132C9.73733 17.46 9.476 16.5407 9.476 15.374C9.476 14.6647 9.59733 14.0487 9.84 13.526C10.0827 12.994 10.428 12.5833 10.876 12.294C11.324 12.0047 11.8467 11.86 12.444 11.86C13.3027 11.86 13.9933 12.2193 14.516 12.938H14.544V10.6H12.528V9.788H14.544V8.612H15.72V9.788H16.532V10.6H15.72ZM14.53 14.926C14.53 14.2727 14.3527 13.75 13.998 13.358C13.6433 12.966 13.172 12.77 12.584 12.77C11.9867 12.77 11.5153 13.0033 11.17 13.47C10.834 13.9273 10.666 14.5713 10.666 15.402C10.666 16.27 10.834 16.9513 11.17 17.446C11.5153 17.9407 11.9867 18.188 12.584 18.188C13.1813 18.188 13.6527 18.0107 13.998 17.656C14.3527 17.292 14.53 16.8067 14.53 16.2V14.926Z" fill="#fe6b8d"/>
</svg>
