<svg width="18" height="22" viewBox="0 0 18 22" fill="none" xmlns="http://www.w3.org/2000/svg">
<path d="M9 0.5C6.81276 0.502595 4.71585 1.37262 3.16924 2.91924C1.62262 4.46585 0.752595 6.56276 0.75 8.75C0.75 15.8091 8.25 21.1411 8.56934 21.3645C8.69563 21.4527 8.84596 21.5 9 21.5C9.15404 21.5 9.30437 21.4527 9.43066 21.3645C9.75 21.1411 17.25 15.8091 17.25 8.75C17.2474 6.56276 16.3774 4.46585 14.8308 2.91924C13.2842 1.37262 11.1872 0.502595 9 0.5ZM9.00055 5.75027C9.59389 5.75027 10.1739 5.92622 10.6673 6.25586C11.1606 6.58551 11.5451 7.05404 11.7722 7.60222C11.9993 8.1504 12.0587 8.7536 11.9429 9.33554C11.8271 9.91749 11.5414 10.452 11.1219 10.8716C10.7023 11.2912 10.1678 11.5769 9.58582 11.6926C9.00388 11.8084 8.40068 11.749 7.8525 11.5219C7.30432 11.2948 6.83578 10.9103 6.50614 10.417C6.1765 9.92363 6.00055 9.34362 6.00055 8.75027C6.00054 8.3563 6.07813 7.96619 6.22889 7.60221C6.37965 7.23823 6.60063 6.9075 6.8792 6.62893C7.15778 6.35035 7.4885 6.12937 7.85249 5.97861C8.21647 5.82785 8.60658 5.75026 9.00055 5.75027Z" fill="#fe6b8d"/>
</svg>
