<svg xmlns="http://www.w3.org/2000/svg" width="102" height="43.304" viewBox="0 0 102 43.304">
  <g id="Group_94" data-name="Group 94" transform="translate(-111.889 -49.692)">
    <g id="Group_91" data-name="Group 91" transform="translate(148.506 49.692)">
      <path id="Path_1" data-name="Path 1" d="M166.545,53.662c1.217-2.863,3-3.163,3.227-3.191l.024,0v-.776H156.466v.776c.028.007.062.01.089.016.394.066,2.025.5,3.165,3.178.7,1.641.8,7.588.8,7.588v3.445s-.1,5.946-.8,7.584c-1.3,3.061-3.254,3.193-3.254,3.193v.781H169.8v-.781s-1.948-.131-3.25-3.193c-.7-1.638-.8-7.584-.8-7.584V61.25s.1-5.946.8-7.588" transform="translate(-156.466 -49.692)" fill="#b3091b"/>
      <path id="Path_2" data-name="Path 2" d="M229.733,49.692h-11.94v.8l.239.009c.651.064,2.473.49,3.49,3.183a22.455,22.455,0,0,1,.783,6.107l-.027,7.375L209.815,49.692h-9.2v.837h.115c.5.025,2.521.3,3.612,3.192a24.537,24.537,0,0,1,.8,6.712v5.135a24.52,24.52,0,0,1-.8,6.711,4.484,4.484,0,0,1-3.089,3.114c-.222.037-.441.062-.638.079v.781h11.943v-.781a2.783,2.783,0,0,0-.379-.027c-.74-.106-2.4-.641-3.35-3.166a24.454,24.454,0,0,1-.8-6.711V56.143l14.284,20.11h2.889V60.4a24.548,24.548,0,0,1,.8-6.712,4.5,4.5,0,0,1,3.077-3.111c.254-.035.472-.062.65-.081v-.8" transform="translate(-164.35 -49.692)" fill="#b3091b"/>
      <path id="Path_3" data-name="Path 3" d="M194.383,64.262a8.165,8.165,0,0,0-3.983-2.945c-.77-.29-1.6-.574-2.477-.853h0q-1.444-.451-2.828-.9a9.673,9.673,0,0,1-3.474-1.722,3.182,3.182,0,0,1-1.115-2.514,3.452,3.452,0,0,1,1.281-2.734,4.909,4.909,0,0,1,3.312-1.1,6.433,6.433,0,0,1,2.22.364h0a12.033,12.033,0,0,1,5.076,3.3,4.927,4.927,0,0,1,1.231,2.5h.839V49.692h-.839V49.7c0,.127-.06,2.292-2.168,1.729h0a23.706,23.706,0,0,0-2.858-1.141,15.283,15.283,0,0,0-4.341-.6,13.175,13.175,0,0,0-4.193.649,9.874,9.874,0,0,0-3.166,1.683,7.774,7.774,0,0,0-1.962,2.486,6.5,6.5,0,0,0-.674,2.882,7.475,7.475,0,0,0,1.3,4.287,8.819,8.819,0,0,0,4.189,2.946q1.162.435,2.485.853,1.439.451,2.827.905a9.741,9.741,0,0,1,3.475,1.718,3.2,3.2,0,0,1,1.116,2.516,3.461,3.461,0,0,1-1.286,2.732,7.554,7.554,0,0,1-4.144,1.1,9.815,9.815,0,0,1-2.786-.519,11.3,11.3,0,0,1-5.59-4.207,3.65,3.65,0,0,1-.589-1.594h-.836v8.12h.836l.057-.483a1.524,1.524,0,0,1,2.11-1.284h0a32.664,32.664,0,0,0,3.091,1.166,17.046,17.046,0,0,0,4.589.6,15.288,15.288,0,0,0,4.778-.655,9.781,9.781,0,0,0,3.163-1.681,7.746,7.746,0,0,0,1.966-2.483,6.5,6.5,0,0,0,.674-2.883,7.441,7.441,0,0,0-1.3-4.289" transform="translate(-159.644 -49.692)" fill="#b3091b"/>
    </g>
    <g id="Group_92" data-name="Group 92" transform="translate(111.889 80.923)">
      <path id="Path_4" data-name="Path 4" d="M115.97,97.139H115.8L111.889,88.1l.874-.116,3.128,7.248,3.21-7.248.9.116Z" transform="translate(-111.889 -87.76)" fill="#0064b0"/>
      <path id="Path_5" data-name="Path 5" d="M123.494,89.612a.558.558,0,0,1-.341.113.507.507,0,0,1-.326-.122.5.5,0,0,1,0-.71.529.529,0,0,1,.667.007.5.5,0,0,1,0,.711Zm-.686,7.582V91.02c.128-.041.256-.085.392-.126s.264-.085.389-.127v6.286Z" transform="translate(-113.816 -87.902)" fill="#0064b0"/>
      <path id="Path_6" data-name="Path 6" d="M131.045,93.447,126.232,95a2.624,2.624,0,0,0,.321.776,2.326,2.326,0,0,0,.525.6,2.423,2.423,0,0,0,.692.393,2.465,2.465,0,0,0,.825.143,2.579,2.579,0,0,0,1.231-.316,6.571,6.571,0,0,0,1.062-.724v.945a3.375,3.375,0,0,1-1.155.707,3.25,3.25,0,0,1-3.411-.738,3.17,3.17,0,0,1-.7-1.032,3.466,3.466,0,0,1-.251-1.35,3.359,3.359,0,0,1,.38-1.654,3.078,3.078,0,0,1,.969-1.06,2.908,2.908,0,0,1,1.29-.452,3.026,3.026,0,0,1,1.335.136,2.677,2.677,0,0,1,1.1.738A2.593,2.593,0,0,1,131.045,93.447Zm-1.1-.423a1.509,1.509,0,0,0-.481-.706,1.543,1.543,0,0,0-.738-.322,2.137,2.137,0,0,0-1.651.447,2.44,2.44,0,0,0-.609.769,2.574,2.574,0,0,0-.266,1.107Z" transform="translate(-114.297 -88.338)" fill="#0064b0"/>
      <path id="Path_7" data-name="Path 7" d="M136.573,97.068a2.732,2.732,0,0,1-.937.2,1.877,1.877,0,0,1-.834-.172,1.455,1.455,0,0,1-.6-.547,1.739,1.739,0,0,1-.231-.942V91.675H132.75l.1-.729h1.1V89.5l.794-.565v2h1.695v.729H134.75v3.7a3.018,3.018,0,0,0,.034.512.743.743,0,0,0,.138.36.628.628,0,0,0,.3.205,1.654,1.654,0,0,0,.528.067,1.421,1.421,0,0,0,.43-.067,3.362,3.362,0,0,0,.412-.153Z" transform="translate(-115.614 -87.93)" fill="#0064b0"/>
      <path id="Path_8" data-name="Path 8" d="M142.618,97.626V93.673a2.029,2.029,0,0,0-.365-1.245,1.366,1.366,0,0,0-1.176-.485,1.763,1.763,0,0,0-1.017.3,2.057,2.057,0,0,0-.7.816c-.008.02-.032.067-.064.149a.507.507,0,0,0-.049.146v4.131l-.8.141V91.388c.258-.049.517-.115.784-.189v.987a2.467,2.467,0,0,1,.794-.725,2.091,2.091,0,0,1,1.051-.261,2.2,2.2,0,0,1,1.746.67,2.621,2.621,0,0,1,.591,1.789v3.826Z" transform="translate(-116.631 -88.335)" fill="#0064b0"/>
      <path id="Path_9" data-name="Path 9" d="M149.814,97.714l-.066-.758a2.441,2.441,0,0,1-.732.542,2,2,0,0,1-.886.2,2.142,2.142,0,0,1-1.333-.384,1.93,1.93,0,0,1-.682-.931,2.121,2.121,0,0,1,.56-2.174,2.4,2.4,0,0,1,1.219-.592,3.812,3.812,0,0,1,1.84.18v-.743a.977.977,0,0,0-.379-.849,1.546,1.546,0,0,0-.918-.266,2.643,2.643,0,0,0-1.015.209,5.129,5.129,0,0,0-.919.495l.152-.908a5.234,5.234,0,0,1,.912-.387,3.13,3.13,0,0,1,.975-.152,2.264,2.264,0,0,1,1.239.273,1.5,1.5,0,0,1,.582.738,3.159,3.159,0,0,1,.173,1.047q0,.586,0,1.2v1.5c0,.485.011.982.039,1.487Zm-.207-3.042a1.342,1.342,0,0,0-.3-.223,1.667,1.667,0,0,0-.36-.148,1.249,1.249,0,0,0-.312-.053,2.252,2.252,0,0,0-.66.1,1.736,1.736,0,0,0-.586.288,1.48,1.48,0,0,0-.416.474,1.287,1.287,0,0,0-.162.654,1.031,1.031,0,0,0,.332.8,1.44,1.44,0,0,0,.788.362,1.747,1.747,0,0,0,.931-.131,1.546,1.546,0,0,0,.757-.688.577.577,0,0,0,.066-.12.383.383,0,0,0,.04-.133c0-.148,0-.3,0-.453s.006-.3.006-.449A.405.405,0,0,0,149.607,94.672Z" transform="translate(-117.983 -88.335)" fill="#0064b0"/>
      <path id="Path_10" data-name="Path 10" d="M161.03,97.622V93.669a2.191,2.191,0,0,0-.162-.891,1.455,1.455,0,0,0-.424-.578,1.2,1.2,0,0,0-.591-.261A1.272,1.272,0,0,0,159.2,92a1.7,1.7,0,0,0-.618.39,2.273,2.273,0,0,0-.481.714c-.017.042-.037.1-.066.157a.537.537,0,0,0-.037.164v4.054l-.793.141V93.669a2.148,2.148,0,0,0-.168-.9,1.471,1.471,0,0,0-.429-.581,1.272,1.272,0,0,0-.6-.252,1.365,1.365,0,0,0-.655.054,1.632,1.632,0,0,0-.607.387,1.986,1.986,0,0,0-.468.712c-.02.044-.042.1-.066.167a.537.537,0,0,0-.039.168v4.054l-.81.141V91.384c.258-.049.519-.115.783-.189v.987a2.438,2.438,0,0,1,.866-.759,2.151,2.151,0,0,1,1.028-.244,1.971,1.971,0,0,1,.989.3,2.117,2.117,0,0,1,.761.878,2.508,2.508,0,0,1,.844-.865,2.215,2.215,0,0,1,1.167-.3,1.9,1.9,0,0,1,.918.2,1.823,1.823,0,0,1,.624.554,2.54,2.54,0,0,1,.359.789,3.514,3.514,0,0,1,.117.914v3.826Z" transform="translate(-119.296 -88.331)" fill="#0064b0"/>
      <path id="Path_11" data-name="Path 11" d="M169.765,97V93.05a1.778,1.778,0,0,0-.4-1.25,1.442,1.442,0,0,0-.937-.49,1.847,1.847,0,0,0-1.083.232,1.972,1.972,0,0,0-.853.905.892.892,0,0,0-.064.14.466.466,0,0,0-.039.143v4.131L165.6,97v-9.06c.136-.042.271-.082.4-.116s.262-.072.392-.116v3.851a2.516,2.516,0,0,1,.788-.725,2.06,2.06,0,0,1,1.049-.261,2.2,2.2,0,0,1,1.744.67,2.633,2.633,0,0,1,.589,1.789v3.826Z" transform="translate(-121.479 -87.712)" fill="#0064b0"/>
      <path id="Path_12" data-name="Path 12" d="M179.223,95.712a3.15,3.15,0,0,1-.68,1.033,3.219,3.219,0,0,1-1.017.7,3.108,3.108,0,0,1-1.254.257,3.111,3.111,0,0,1-2.261-.956,3.284,3.284,0,0,1-.92-2.289,3.362,3.362,0,0,1,.912-2.3,3.1,3.1,0,0,1,1.007-.7,3.281,3.281,0,0,1,2.527,0,3.205,3.205,0,0,1,1.013.7,3.264,3.264,0,0,1,.674,1.041,3.322,3.322,0,0,1,.242,1.263A3.255,3.255,0,0,1,179.223,95.712Zm-.757-2.206a2.461,2.461,0,0,0-.5-.788,2.4,2.4,0,0,0-.754-.54,2.245,2.245,0,0,0-.937-.2,2.161,2.161,0,0,0-.936.209,2.375,2.375,0,0,0-.751.545,2.571,2.571,0,0,0-.493.789,2.477,2.477,0,0,0-.18.936,2.515,2.515,0,0,0,.18.936,2.46,2.46,0,0,0,.5.789,2.4,2.4,0,0,0,.748.537,2.174,2.174,0,0,0,.93.2,2.207,2.207,0,0,0,.937-.2,2.324,2.324,0,0,0,.751-.537,2.569,2.569,0,0,0,.675-1.726h.012A2.521,2.521,0,0,0,178.466,93.506Z" transform="translate(-122.818 -88.335)" fill="#0064b0"/>
      <path id="Path_13" data-name="Path 13" d="M186.838,97.574a1.517,1.517,0,0,1-.4,0V96.7a2.744,2.744,0,0,1-.8.743,1.988,1.988,0,0,1-1.046.283,2.149,2.149,0,0,1-1.75-.666,2.729,2.729,0,0,1-.559-1.813V91.47l.8-.117v3.759a3.611,3.611,0,0,0,.071.751,1.543,1.543,0,0,0,.25.592,1.16,1.16,0,0,0,.483.387,1.715,1.715,0,0,0,.748.141,1.651,1.651,0,0,0,.751-.158,1.628,1.628,0,0,0,.559-.438,2.153,2.153,0,0,0,.361-.633,2.8,2.8,0,0,0,.15-.745,4.211,4.211,0,0,0,.011-.584c-.007-.191-.011-.384-.011-.584V91.47l.8-.117v6.172C187.1,97.541,186.96,97.556,186.838,97.574Z" transform="translate(-124.458 -88.362)" fill="#0064b0"/>
      <path id="Path_14" data-name="Path 14" d="M190.094,96.244a3.331,3.331,0,0,0,.777.485,2.159,2.159,0,0,0,.892.193,1.952,1.952,0,0,0,.467-.058,1.305,1.305,0,0,0,.425-.184,1.123,1.123,0,0,0,.306-.316.809.809,0,0,0,.123-.456.772.772,0,0,0-.237-.591,2.087,2.087,0,0,0-.6-.364c-.239-.1-.5-.192-.775-.285a4.128,4.128,0,0,1-.78-.331,1.83,1.83,0,0,1-.6-.526,1.465,1.465,0,0,1-.237-.865,1.48,1.48,0,0,1,.419-1.089,2.06,2.06,0,0,1,1.01-.568,2.855,2.855,0,0,1,1.258.007,2.513,2.513,0,0,1,1.162.6l-.241.729a3.332,3.332,0,0,0-.714-.462,1.828,1.828,0,0,0-.814-.195,2.136,2.136,0,0,0-.463.052,1.291,1.291,0,0,0-.417.168.9.9,0,0,0-.3.3.821.821,0,0,0-.117.454.684.684,0,0,0,.239.558,2.183,2.183,0,0,0,.6.345c.239.1.5.19.77.276a4.068,4.068,0,0,1,.772.334,1.863,1.863,0,0,1,.593.539,1.455,1.455,0,0,1,.237.874,1.633,1.633,0,0,1-.178.774,1.729,1.729,0,0,1-.481.574,2.247,2.247,0,0,1-.679.369,2.411,2.411,0,0,1-.774.128,2.727,2.727,0,0,1-1.079-.221,3.447,3.447,0,0,1-.922-.6Z" transform="translate(-125.79 -88.339)" fill="#0064b0"/>
      <path id="Path_15" data-name="Path 15" d="M197,89.612a.547.547,0,0,1-.34.113.5.5,0,0,1-.322-.122.488.488,0,0,1,0-.71A.522.522,0,0,1,197,88.9a.5.5,0,0,1,0,.711Zm-.682,7.582V91.02l.389-.126.393-.127v6.286Z" transform="translate(-126.942 -87.902)" fill="#0064b0"/>
      <path id="Path_16" data-name="Path 16" d="M203.5,97.626V93.673a2.029,2.029,0,0,0-.366-1.245,1.362,1.362,0,0,0-1.171-.485,1.762,1.762,0,0,0-1.02.3,2.11,2.11,0,0,0-.7.816c-.008.02-.03.067-.061.149a.67.67,0,0,0-.053.146v4.131l-.8.141V91.388c.258-.049.519-.115.784-.189v.987a2.481,2.481,0,0,1,.794-.725,2.1,2.1,0,0,1,1.055-.261,2.191,2.191,0,0,1,1.742.67,2.621,2.621,0,0,1,.591,1.789v3.826Z" transform="translate(-127.503 -88.335)" fill="#0064b0"/>
      <path id="Path_17" data-name="Path 17" d="M212.62,91.951h-1.258a2.434,2.434,0,0,1,.544.963,2.163,2.163,0,0,1-.313,1.928,2.644,2.644,0,0,1-.8.752,2.428,2.428,0,0,1,.927.743,2.329,2.329,0,0,1,.437,1,2.563,2.563,0,0,1-.037,1.085,2.687,2.687,0,0,1-.475.987,2.549,2.549,0,0,1-.886.719,2.791,2.791,0,0,1-1.276.276,2.757,2.757,0,0,1-1.277-.281,2.584,2.584,0,0,1-.89-.734,2.671,2.671,0,0,1-.518-2.084,2.281,2.281,0,0,1,1.428-1.686,2.384,2.384,0,0,1-.875-.742,2.2,2.2,0,0,1-.318-1.914,2.423,2.423,0,0,1,.472-.889,2.454,2.454,0,0,1,.849-.637,2.706,2.706,0,0,1,1.193-.244,2.453,2.453,0,0,1,1.143.268v-.079l1.934-.205ZM211.339,97.8a1.661,1.661,0,0,0-.276-.973,1.756,1.756,0,0,0-.692-.6,2.02,2.02,0,0,0-.905-.207,2.045,2.045,0,0,0-.892.2,1.715,1.715,0,0,0-.694.611,1.777,1.777,0,0,0-.274,1.023,1.724,1.724,0,0,0,.16.762,1.642,1.642,0,0,0,.421.547,1.823,1.823,0,0,0,.6.327,2.181,2.181,0,0,0,.682.109,2.241,2.241,0,0,0,.685-.109,1.65,1.65,0,0,0,1.025-.9A1.832,1.832,0,0,0,211.339,97.8Zm-.191-4.146a1.741,1.741,0,0,0-.143-.722,1.52,1.52,0,0,0-.916-.839,1.786,1.786,0,0,0-1.219,0,1.625,1.625,0,0,0-.54.323,1.5,1.5,0,0,0-.38.539,1.912,1.912,0,0,0-.141.749,1.555,1.555,0,0,0,.141.674,1.391,1.391,0,0,0,.38.48,1.771,1.771,0,0,0,.531.3,1.86,1.86,0,0,0,.6.1,2.079,2.079,0,0,0,.623-.1,1.508,1.508,0,0,0,.531-.294,1.492,1.492,0,0,0,.372-.5,1.688,1.688,0,0,0,.144-.714Z" transform="translate(-128.828 -88.331)" fill="#0064b0"/>
      <path id="Path_18" data-name="Path 18" d="M215.953,98.59a.524.524,0,0,1-.342.114.492.492,0,0,1-.324-.121.429.429,0,0,1-.148-.353.423.423,0,0,1,.148-.357.519.519,0,0,1,.665.007.5.5,0,0,1,0,.711Z" transform="translate(-130.326 -89.505)" fill="#0064b0"/>
      <path id="Path_19" data-name="Path 19" d="M219.423,97.71h-.271l-2.914-6.376a2.548,2.548,0,0,0,.407-.027c.125-.015.255-.034.389-.05l2.248,4.837,2.166-4.837a1.193,1.193,0,0,1,.4.021c.149.027.283.053.406.069Z" transform="translate(-130.522 -88.343)" fill="#0064b0"/>
      <path id="Path_20" data-name="Path 20" d="M228.658,97.626V93.673a2.043,2.043,0,0,0-.361-1.245,1.363,1.363,0,0,0-1.173-.485,1.789,1.789,0,0,0-1.025.3,2.094,2.094,0,0,0-.695.816,1.237,1.237,0,0,0-.066.149.7.7,0,0,0-.051.146v4.131l-.8.141V91.388c.258-.049.52-.115.784-.189v.987a2.484,2.484,0,0,1,.794-.725,2.09,2.09,0,0,1,1.054-.261,2.191,2.191,0,0,1,1.742.67,2.638,2.638,0,0,1,.591,1.789v3.826Z" transform="translate(-131.996 -88.335)" fill="#0064b0"/>
    </g>
    <g id="Group_93" data-name="Group 93" transform="translate(111.889 49.692)">
      <path id="Path_21" data-name="Path 21" d="M123.19,72.023l-3.769-3.771-3.771,3.771-3.761-3.763V75.8l3.762,3.762Z" transform="translate(-111.889 -53.007)" fill="#ee4e16"/>
      <path id="Path_22" data-name="Path 22" d="M128.057,59.189l3.824,3.821,1.9-1.9,1.9,1.9,9.557-9.552-3.765-3.765H130l3.777,3.777Z" transform="translate(-114.776 -49.692)" fill="#fdc09d"/>
      <path id="Path_23" data-name="Path 23" d="M127.115,49.692H111.889V64.947l3.761,3.763,3.771-3.771,5.749-5.748,5.722-5.72Z" transform="translate(-111.889 -49.692)" fill="#0064b0"/>
      <path id="Path_24" data-name="Path 24" d="M136.1,65.491l-1.9-1.9-1.9,1.9-1.9,1.9,3.8,3.8,3.8-3.8Z" transform="translate(-115.195 -52.174)" fill="#638fca"/>
    </g>
  </g>
</svg>
