<svg xmlns="http://www.w3.org/2000/svg" width="425.54" height="356.708" viewBox="0 0 425.54 356.708">
    <defs>
        <style>
            .cls-2{fill:#900}.cls-4{fill:#fff}.cls-7{mix-blend-mode:multiply;isolation:isolate;fill:#afe1f5}.cls-8{fill:#ffedca}.cls-9{fill:#ffd67b}.cls-10{fill:#f3be65}.cls-11{fill:#894d16}.cls-13{fill:#0064b0}
        </style>
    </defs>
    <g id="OBJECTS" transform="translate(-38.46 -54.807)">
        <text id="Purr_The_page_you_are_looking_for_does_not_exist_" fill="#6f6f6f" data-name="Purr! The page you are looking for does not exist!" font-family="Roboto-Medium, Roboto" font-size="14px" font-weight="500" transform="translate(97.46 350.555)">
            <tspan x="0" y="0">Purr! The page you are looking for does not exist!</tspan>
        </text>
        <g id="Group_2314" data-name="Group 2314">
            <rect id="Rectangle_1119" width="91.208" height="28.708" class="cls-2" data-name="Rectangle 1119" rx="14" transform="translate(204.46 382.807)"/>
            <text id="GO_BACK" fill="#fff" data-name="GO BACK" font-family="Roboto-Bold, Roboto" font-size="12px" font-weight="700" transform="translate(224.46 401.807)">
                <tspan x="0" y="0">GO BACK</tspan>
            </text>
        </g>
        <g id="Group_2334" data-name="Group 2334">
            <g id="Group_2315" data-name="Group 2315">
                <path id="Path_2511" d="M446.15 206.543a106.553 106.553 0 0 1-.6 11.25 87.078 87.078 0 0 1-99.02 77.09l-10.73-1.53a473.73 473.73 0 0 0-100.98-3.55l-59.77 4.29a130.316 130.316 0 0 1-134.62-94.18 51.351 51.351 0 0 1 11.66-48.93l1.94-2.1a24.751 24.751 0 1 0 31.07-33.59l4.15-4.49a50.055 50.055 0 0 1 66.82-6.01l1.94 1.46a48.592 48.592 0 0 0 51.39 4.81c.51-.26 1.02-.52 1.54-.78a192.652 192.652 0 0 1 81.46-20.73 24.128 24.128 0 0 0-.65 5.61 24.75 24.75 0 1 0 49.5 0c0-.27 0-.53-.02-.79a192.7 192.7 0 0 1 50.06 19.17 106.3 106.3 0 0 1 54.86 93z" class="cls-4" data-name="Path 2511"/>
                <circle id="Ellipse_124" cx="23.167" cy="23.167" r="23.167" class="cls-4" data-name="Ellipse 124" transform="rotate(-75.047 144.23 -53.607)"/>
                <circle id="Ellipse_125" cx="12.5" cy="12.5" r="12.5" class="cls-4" data-name="Ellipse 125" transform="translate(402.5 83.167)"/>
                <circle id="Ellipse_126" cx="4.5" cy="4.5" r="4.5" class="cls-4" data-name="Ellipse 126" transform="translate(455 172.5)"/>
            </g>
            <g id="Group_2333" data-name="Group 2333">
                <ellipse id="Ellipse_127" cx="190" cy="7.25" fill="#f4eee6" data-name="Ellipse 127" rx="190" ry="7.25" transform="translate(60.344 290.667)"/>
                <g id="Group_2316" data-name="Group 2316">
                    <path id="Path_2512" d="M406.657 240.63v-29.625h-33.611l.2 29.625h-26.212l39.018-82.245h-34.818l-33.182 68.127-8.433 17.31v24.615h63.427v30.419h33.611v-30.419h18.009V240.63z" class="cls-2" data-name="Path 2512"/>
                    <path id="Path_2513" fill="#900" d="M328.723 268.437a29.235 29.235 0 0 0-2.1-14.221 45.566 45.566 0 0 1-2.676 14.221h-14.328v-24.615l8.433-17.31A34.163 34.163 0 0 1 324 237.359c.246.667.468 1.342.683 2.017l.024.087c.373 1.223.7 2.462.96 3.7.008.016.008.04.016.056.024.127.048.246.08.373.073.366.153.734.206 1.1.071.365.127.738.191 1.1l.023.2c.008.032.008.063.016.1q.1.644.167 1.287a.237.237 0 0 1 .008.079.1.1 0 0 1 .008.048v-.032s7.114 6.995 7.162 20.962z" data-name="Path 2513" style="mix-blend-mode:multiply;isolation:isolate" opacity="0.32"/>
                </g>
                <path id="Path_2514" d="M143.077 158.384l-39.02 82.245h26.215l-.2-29.62h33.612v29.62h18v27.811h-18v30.418h-33.608V268.44H66.649v-24.618l41.611-85.438z" class="cls-2" data-name="Path 2514"/>
                <path id="Path_2515" d="M246.973 143.057c-39.249 0-60.633 27.791-60.633 78.283 0 16.27 2.224 30.205 6.551 41.623 9.092 24 27.482 36.867 54.082 36.867 14.975 0 27.386-4.169 36.986-12.188a49.157 49.157 0 0 0 4.74-4.526A53.934 53.934 0 0 0 292.86 278c.635-.881 1.246-1.786 1.834-2.723 8.043-12.657 12.395-30.023 12.68-51.636.008-.762.016-1.533.016-2.3 0-50.493-21.605-78.284-60.417-78.284zm-21.741 90.535c-.214-3.78-.31-7.853-.31-12.252 0-35.5 6.392-50.064 22.051-50.064 13.863 0 20.43 11.744 21.621 39.837q.215 4.788.206 10.227c0 35.271-6.384 50.048-21.827 50.048-13.705 0-20.312-11.315-21.741-37.796z" class="cls-2" data-name="Path 2515"/>
                <g id="Group_2317" data-name="Group 2317">
                    <path id="Path_2516" d="M292.86 278a53.934 53.934 0 0 1-4.161 5.114c-11.942 1.842-28.617 7.106-29.84-3.439a4.507 4.507 0 0 1 .016-1.842c.913-4.571 22.296.717 33.985.167z" class="cls-7" data-name="Path 2516"/>
                    <path id="Path_2517" d="M307.372 223.642c-.285 21.616-4.632 38.979-12.677 51.639-6.434.3-20.549-3.3-26.762-.078a1.752 1.752 0 0 1-.305.141 8.306 8.306 0 0 1-.812.285l-.106.027c-.035.012-.07.02-.109.032-.087.021-.175.043-.262.066l-.265.059c-.075.019-.153.035-.231.05a2.216 2.216 0 0 0-.25.051c-.14.028-.28.052-.421.074h-.028c-.148.028-.3.051-.457.074h-.007c-.877.129-1.76.214-2.644.274a.117.117 0 0 1-.032 0c-.214.015-.437.031-.663.043h-.008c-9.569.551-22.71.864-31.52-3.289-1.468.032-2.312.047-2.312.047-.109 0-.214 0-.324-.008l-.015-.011c-.582.011-.9.019-.9.019-.109 0-.214 0-.324-.008a71.714 71.714 0 0 1-22.291-3.417c-.651-.191-1.282-.453-1.925-.668-.231-.085-.461-.175-.684-.261-.054-.024-.1-.043-.16-.063-.559-.221-1.1-.47-1.656-.7a27.014 27.014 0 0 1-2.667-1.394c-.035-.023-.074-.043-.109-.066-.407-.251-.8-.52-1.188-.8-.1-.078-.2-.152-.293-.23a1.394 1.394 0 0 1-.113-.086q-.218-.184-.433-.371c-.09-.078-.172-.16-.254-.242a4.891 4.891 0 0 1-.715-.82 1.055 1.055 0 0 1-.074-.11c-2.225-2.543.893-9.68 2.113-11.751.039-.093.074-.179.1-.246-2.253-7.228-1.027-11.505-1.027-11.505 3.386.844 6.12 4.163 6.12 4.163 2.371-2.921 7.5-4.209 11.083-4.377-.051-5.515 1.153-6.621 1.153-6.621 9.343 2.985 2.178 7.862 12.308.017.853 15.759 5.243 43.727 27.816 36.881 19.888-6.031 16.193-44.793 15.553-59.356 14.029-3.07 30.308-.108 38.775 12.528-.283 21.624-3.392-5.057.002.008z" class="cls-7" data-name="Path 2517"/>
                </g>
                <g id="Group_2326" data-name="Group 2326">
                    <path id="Path_2518" d="M307.571 254.2a18.094 18.094 0 0 1-6.346 7.611c-9.681 6.686-24.83 4.409-30.7 4.956-.812.074-2.082.152-3.7.23-.324.016-.663.032-1.019.047-1.617.074-3.515.149-5.588.219-10.255.359-24.947.707-32.871.879-3.417.078-5.573.121-5.573.121-.109 0-.215 0-.324-.008-.094 0-.187 0-.281-.008a78.327 78.327 0 0 1-22.209-3.472 29.831 29.831 0 0 1-8.19-3.889 9.275 9.275 0 0 1-1.546-1.41 5.928 5.928 0 0 1-.41-.551c-.051-.078-.094-.152-.137-.23-2.191-4 2.21-11.24 2.433-11.6v-.008c-2.277-7.256-1.043-11.552-1.043-11.552 3.386.843 6.12 4.163 6.12 4.163a7.581 7.581 0 0 1 1.784-1.566 12.368 12.368 0 0 1 1.836-.988 17.976 17.976 0 0 1 2.136-.785 27.18 27.18 0 0 1 3.284-.77c1.219-.207 2.043-.269 2.043-.269-.051-5.514 1.656-7.76 1.656-7.76 2.444.781 4.542 6.444 5.42 6.393.695-.035 1.8-2.039 10.2-8.08.59-.426 1.214-.867 1.878-1.335 1.629-1.137 3.488-2.4 5.616-3.8l.859-.563c.461-.3.926-.6 1.394-.9 1.809-1.152 3.668-2.28 5.569-3.366q1.29-.738 2.6-1.445c1.43-.769 2.882-1.512 4.355-2.214q1.065-.51 2.144-.992 1.922-.861 3.881-1.633c1.758-.687 3.535-1.312 5.331-1.863 1.933-.593 3.882-1.1 5.85-1.507a.075.075 0 0 1 .031 0c.137-.031.278-.059.414-.086a52.085 52.085 0 0 1 8.983-1.019c.183-.008.363-.012.546-.016a43.83 43.83 0 0 1 6.311.36 41.616 41.616 0 0 1 8.693 2.058 28.431 28.431 0 0 1 14.391 12.02 39.1 39.1 0 0 1 2.941 5.632q.5 1.176.929 2.382a44.274 44.274 0 0 1 2.433 11.255 31.915 31.915 0 0 1-2.124 15.359z" class="cls-8" data-name="Path 2518"/>
                    <path id="Path_2519" d="M306.193 256.743a18.259 18.259 0 0 1-1.449 1.925c-9.037 10.482-27.572 7.483-34.222 8.1-.812.074-2.082.152-3.7.23-.324.016-.663.032-1.019.047-1.617.074-3.515.149-5.588.219-10.255.359-24.947.707-32.871.879-3.417.078-5.573.121-5.573.121-.109 0-.215 0-.324-.008-.094 0-.187 0-.281-.008a78.327 78.327 0 0 1-22.209-3.472 29.831 29.831 0 0 1-8.19-3.889 9.275 9.275 0 0 1-1.546-1.41 5.928 5.928 0 0 1-.41-.551c-1.176-4.1 2.389-12.129 2.389-12.129-2.276-7.256-.608-10.1-.608-10.1 3.385.844 6.119 4.163 6.119 4.163a7.608 7.608 0 0 1 1.785-1.566 12.4 12.4 0 0 1 1.835-.988 18.167 18.167 0 0 1 2.137-.785 27.075 27.075 0 0 1 3.284-.769c1.218-.207 2.042-.269 2.042-.269-.05-5.515 1.48-7.736 1.48-7.736 2.445.781 4.718 6.42 5.6 6.369.7-.035 1.8-2.039 10.2-8.08.59-.426 1.215-.867 1.879-1.336 1.628-1.136 3.487-2.4 5.616-3.8l.859-.562q.691-.451 1.394-.9c1.808-1.152 3.667-2.281 5.569-3.367q1.289-.738 2.605-1.445c2.12-1.14 4.292-2.218 6.5-3.206q1.921-.861 3.882-1.632c1.757-.687 3.534-1.312 5.331-1.863a64.751 64.751 0 0 1 6.3-1.6 52.252 52.252 0 0 1 9.529-1.035 43.976 43.976 0 0 1 6.311.359 41.7 41.7 0 0 1 8.693 2.058 28.437 28.437 0 0 1 14.391 12.021 38.341 38.341 0 0 1 2.421 4.46c4.685 11.021 4.689 24.131-.161 31.555z" class="cls-9" data-name="Path 2519"/>
                    <path id="Path_2520" d="M316.737 258.567c0 14.059-13.54 19.917-31.633 23.3-15.847 2.964-23.209.839-24.1-3.234a4.562 4.562 0 0 1 .011-1.843c1.043-5.206 20.046-2.6 32.024-4.034s18.093-5.729 18.874-14.321a28.592 28.592 0 0 0-2.211-14.449l-.121-5.882-.011-.625s7.167 7.029 7.167 21.088z" class="cls-10" data-name="Path 2520"/>
                    <path id="Path_2521" d="M314 255.443c0 14.059-13.733 20.675-31.826 24.057-10.552 1.976-20.38 2.021-21.168-.868a4.562 4.562 0 0 1 .011-1.843c1.043-5.206 20.046-2.6 32.024-4.034s18.093-5.729 18.874-14.321a28.592 28.592 0 0 0-2.211-14.449l-.121-5.882c.2.336.4.691.6 1.074A34.337 34.337 0 0 1 314 255.443z" class="cls-9" data-name="Path 2521"/>
                    <path id="Path_2522" d="M315.043 258.631c0 14.059-13.409 17.511-31.5 20.893-10.552 1.976-18.51.909-22.13-.7a5.1 5.1 0 0 1 .1-1.153c1.043-5.2 20.046-2.6 32.024-4.034s18.093-5.729 18.874-14.32a32.686 32.686 0 0 0-2.579-15.563l-.247-6.228c4.498 4.609 5.458 13.618 5.458 21.105z" class="cls-9" data-name="Path 2522"/>
                    <g id="Group_2318" data-name="Group 2318">
                        <path id="Path_2523" d="M231.34 235.393a21.423 21.423 0 0 0-6.791-9.529c.59-.426 1.214-.867 1.878-1.335a25.376 25.376 0 0 1 4.913 10.864z" class="cls-10" data-name="Path 2523"/>
                        <path id="Path_2524" d="M239.881 231.878a25.665 25.665 0 0 0-7.838-11.153l.859-.563c.461-.3.926-.6 1.394-.9a30.434 30.434 0 0 1 5.585 12.616z" class="cls-10" data-name="Path 2524"/>
                        <path id="Path_2525" d="M248.6 227.715c-2.577-6.529-6.107-10.009-8.74-11.817q1.29-.738 2.6-1.445c4.864 5.487 6.14 13.262 6.14 13.262z" class="cls-10" data-name="Path 2525"/>
                        <path id="Path_2526" d="M261 226.727c-3.6-9.107-8.678-13.473-12.032-15.48q1.922-.861 3.881-1.633c6.351 6.756 8.093 16.75 8.151 17.113z" class="cls-10" data-name="Path 2526"/>
                        <path id="Path_2527" d="M275.427 228.875c-5.28-13.364-12.993-18.948-17.246-21.124a64.894 64.894 0 0 1 6.3-1.6c8.536 8.864 10.864 22.24 10.946 22.724z" class="cls-10" data-name="Path 2527"/>
                        <path id="Path_2528" d="M285.663 228.149c-2.351-12.708-7.838-19.62-11.658-23.03a43.83 43.83 0 0 1 6.311.36c5.721 10.255 5.347 22.67 5.347 22.67z" class="cls-10" data-name="Path 2528"/>
                    </g>
                    <path id="Path_2529" d="M221.167 268.248c-16.445-.371-28.645-4.87-31.945-8.771l1.8-1.726s.031.914 2.375 1.367.035-4.687 1.367-6.542a4.531 4.531 0 0 1 7.1-.617c2.765 2.6 3.273 13.032 18.7 11.962z" class="cls-10" data-name="Path 2529"/>
                    <path id="Path_2530" d="M306.193 256.743a18.259 18.259 0 0 1-1.449 1.925c-9.037 10.482-27.572 7.483-34.222 8.1-.812.074-2.082.152-3.7.23-.324.016-.663.032-1.019.047-1.617.074-3.515.149-5.588.219-10.255.359-24.947.707-32.871.879-3.417.078-5.573.121-5.573.121-.109 0-.215 0-.324-.008-.094 0-.187 0-.281-.008a78.327 78.327 0 0 1-22.209-3.472 152.743 152.743 0 0 0 20.373.559c8.592-.586 29.388-19.429 45.009-16.207s49.011-8.006 39.443-28.7c-.137-.293-.266-.582-.383-.867 7.488 11.817 8.501 28.439 2.794 37.182z" class="cls-10" data-name="Path 2530"/>
                    <path id="Path_2531" d="M261.452 267.264c-14.679.515-38.443 1-38.443 1-.109 0-.215 0-.324-.008a7.077 7.077 0 0 1 .683-11.661 17.614 17.614 0 0 1 10.673-2.586c9.959.848 11.716 9.111 20.437 10.869 3.796.765 5.85 1.578 6.974 2.386z" class="cls-10" data-name="Path 2531"/>
                    <path id="Path_2532" d="M265.8 267.045c-1.617.074-3.515.149-5.588.219-10.255.359-24.947.707-32.871.879a7.066 7.066 0 0 1-.137-12.2 17.651 17.651 0 0 1 10.674-2.589c9.958.848 11.715 9.115 20.436 10.872 4.468.902 6.526 1.874 7.486 2.819z" class="cls-10" data-name="Path 2532"/>
                    <path id="Path_2533" d="M264.176 269.435c.027.328-.231.625-.734.887-1.2.632-3.792 1.062-7.225 1.214a75.2 75.2 0 0 1-7.725-.082c-5.959-.347-16.57-.086-23.244-3.272a7.066 7.066 0 0 1-3.3-9.463 6.955 6.955 0 0 1 2.726-2.968 17.642 17.642 0 0 1 10.673-2.589c9.959.847 11.716 9.115 20.436 10.872.27.055.528.11.781.16 7.912 1.723 7.487 3.664 7.612 5.241z" class="cls-8" data-name="Path 2533"/>
                    <path id="Path_2534" d="M263.442 270.322a1.768 1.768 0 0 1-.243.117c-.086.035-.175.074-.273.109a4.665 4.665 0 0 1-.465.16c-.113.032-.23.067-.351.1-.262.07-.547.137-.855.2l-.3.059c-.7.129-1.508.234-2.4.316-.332.031-.68.059-1.039.086-.222.016-.449.031-.679.043-.2.012-.414.024-.625.031a75.2 75.2 0 0 1-7.725-.082c-5.959-.347-16.57-.086-23.244-3.272a6.134 6.134 0 0 1-1.293-11.259 17.635 17.635 0 0 1 10.673-2.589c9.959.847 11.716 9.114 20.437 10.872.269.055.527.109.781.16.441.1.859.2 1.249.289 6.21 1.538 6.27 3.227 6.352 4.66z" class="cls-9" data-name="Path 2534"/>
                    <path id="Path_2535" d="M306.665 242.879a56.951 56.951 0 0 1-1.921 15.789c-9.037 10.482-27.572 7.483-34.222 8.1-.812.074-2.082.152-3.7.23a5.648 5.648 0 0 1 .688-2.347c1.078-2.05 12.692-2.538 12.012-4.1s-5.857-2.441-5.857-12.79c0-.215 0-.43.007-.64a15.891 15.891 0 0 1 14.391-15.169c7.445-.73 18.602-.003 18.602 10.927z" class="cls-10" data-name="Path 2535"/>
                    <path id="Path_2536" d="M309.836 242.882c0 .437-.008.866-.016 1.294s-.024.842-.048 1.255c-.611 12.45-5.613 20.3-9.822 23.1a8.242 8.242 0 0 1-1.215.667l-.3.119c-.151.056-.3.1-.453.151-.175.048-.341.1-.516.127a.18.18 0 0 1-.056.008 39.809 39.809 0 0 1-4.327.636c-.032 0-.064.007-.1.007-4.868.453-10.553.366-16.445.366a13.652 13.652 0 0 1-3.74-.437c-3.708-1.072-3.581-3.279-2.12-5.519s12.7-2.541 12.014-4.1-5.86-2.437-5.86-12.792c0-.214.008-.428.016-.635a15.861 15.861 0 0 1 14.38-15.166c3.771-.373 8.48-.373 12.212 1.136h.008a11.633 11.633 0 0 1 2.7 1.508q.333.262.643.548c.175.159.341.318.5.493s.318.349.461.532.27.349.389.532a.68.68 0 0 1 .063.1c.1.143.183.286.27.429a7.96 7.96 0 0 1 .453.9 5.13 5.13 0 0 1 .23.579.106.106 0 0 1 .024.056 7.206 7.206 0 0 1 .23.738c.072.255.127.509.183.771 0 .016.008.032.008.047.031.151.055.31.079.469s.048.325.064.492a14.809 14.809 0 0 1 .091 1.589z" class="cls-8" data-name="Path 2536"/>
                    <path id="Path_2537" d="M309.836 242.882c0 .437-.008.866-.016 1.294s-.024.842-.048 1.255c-.611 12.45-5.613 20.3-9.822 23.1a8.242 8.242 0 0 1-1.215.667l-.3.119c-.151.056-.3.1-.453.151-.175.048-.341.1-.516.127a.18.18 0 0 1-.056.008c-.333.1.977.048.421.127-1.429.223-3.033.389-4.748.509-.032 0-.064.007-.1.007-5.114.366-11.156.366-16.445.366a13.652 13.652 0 0 1-3.74-.437c-2.644-1.247-1.969-3.692-1.191-5.185 1.08-2.041 12.689-2.533 12.014-4.1-.691-1.565-5.86-2.438-5.86-12.784 0-.215.008-.437.016-.643a15.881 15.881 0 0 1 14.38-15.174 29.033 29.033 0 0 1 11.283.8h.008a11.633 11.633 0 0 1 2.7 1.508q.333.262.643.548c.175.159.341.318.5.493s.318.349.461.532.27.349.389.532a.68.68 0 0 1 .063.1c.1.143.183.286.27.429a7.96 7.96 0 0 1 .453.9 5.13 5.13 0 0 1 .23.579.106.106 0 0 1 .024.056 7.206 7.206 0 0 1 .23.738c.072.255.127.509.183.771 0 .016.008.032.008.047.031.151.055.31.079.469s.048.325.064.492a14.809 14.809 0 0 1 .091 1.599z" class="cls-9" data-name="Path 2537"/>
                    <path id="Path_2538" d="M190.768 260.887a9.275 9.275 0 0 1-1.546-1.41 4.889 4.889 0 0 1-.547-.781c-2.191-4 2.21-11.24 2.433-11.6-.141.359-2.847 7.217-.09 10.658a2.282 2.282 0 0 1-.25 3.133z" class="cls-10" data-name="Path 2538"/>
                    <path id="Path_2539" d="M191.75 245.222s-1.122-5.223-.683-7.859a6.288 6.288 0 0 1 3.9 3.222s-2.826 3.315-3.217 4.637z" class="cls-10" data-name="Path 2539"/>
                    <path id="Path_2540" d="M209.324 229.065s-1.171 4.149-.927 6.443a22.709 22.709 0 0 1 4.93-.586s-1.953-4.1-4.003-5.857z" class="cls-10" data-name="Path 2540"/>
                    <g id="Group_2325" data-name="Group 2325">
                        <g id="Group_2324" data-name="Group 2324">
                            <g id="Group_2319" data-name="Group 2319">
                                <path id="Path_2541" d="M191.033 252.992a2.506 2.506 0 0 1 .193-.867 3.129 3.129 0 0 1 .185-.394 2.834 2.834 0 0 1 .267-.41 3.411 3.411 0 0 1 .352-.4 3.543 3.543 0 0 1 .439-.344 2.562 2.562 0 0 1 .5-.256 2.036 2.036 0 0 1 .529-.146 1.949 1.949 0 0 1 .506-.031c.08 0 .158 0 .232.013l.211.048a1.884 1.884 0 0 1 .356.1c.1.044.186.09.255.126.138.075.211.123.211.123s-.093.015-.244.029c-.075.006-.166.016-.266.018s-.213.037-.331.048a1.881 1.881 0 0 0-.372.077 2.249 2.249 0 0 0-.39.117c-.065.026-.132.049-.2.071l-.194.1a2.975 2.975 0 0 0-.382.218c-.129.073-.243.175-.366.258-.11.1-.235.185-.337.291s-.213.2-.309.3-.187.194-.276.281z" class="cls-11" data-name="Path 2541"/>
                            </g>
                            <g id="Group_2320" data-name="Group 2320">
                                <path id="Path_2542" d="M199.565 249.4a1.644 1.644 0 0 1 .188-.246 2.337 2.337 0 0 1 .259-.246 2.639 2.639 0 0 1 .381-.271 3.359 3.359 0 0 1 1.107-.419 4.055 4.055 0 0 1 .672-.075 5.235 5.235 0 0 1 .694.055 4.209 4.209 0 0 1 .67.168 4.023 4.023 0 0 1 .61.254c.19.1.37.2.532.3s.3.225.433.329a2.229 2.229 0 0 1 .337.309c.1.1.173.186.238.259.127.146.194.235.194.235s-.108-.038-.287-.11-.416-.2-.716-.31c-.148-.058-.307-.12-.469-.2s-.348-.112-.525-.185-.375-.1-.561-.162-.388-.079-.581-.125-.391-.044-.584-.069c-.192.007-.386-.026-.57 0a5.26 5.26 0 0 0-.536.053c-.17.029-.333.06-.483.1a5.565 5.565 0 0 0-1.003.356z" class="cls-11" data-name="Path 2542"/>
                            </g>
                            <g id="Group_2321" data-name="Group 2321">
                                <path id="Path_2543" d="M196.315 252.844a.68.68 0 0 0-.117.9c.394.574 1.264 1.442 1.877 1.262s.831-2.024.609-2.454-1.404-.523-2.369.292z" class="cls-11" data-name="Path 2543"/>
                            </g>
                            <g id="Group_2322" data-name="Group 2322">
                                <path id="Rectangle_1120" d="M0 0H0.39V2.547H0z" class="cls-11" data-name="Rectangle 1120" transform="rotate(-23.227 718.37 -353.803)"/>
                            </g>
                            <g id="Group_2323" data-name="Group 2323">
                                <path id="Path_2544" d="M196.17 256.068a4.111 4.111 0 0 0 .8.564 3.507 3.507 0 0 0 .962.362 2.058 2.058 0 0 0 .607.032.763.763 0 0 0 .1-.014l.069-.02a1.439 1.439 0 0 0 .141-.046 1.6 1.6 0 0 0 .3-.178 2.624 2.624 0 0 0 .44-.434 3.858 3.858 0 0 0 .336-.471 6.383 6.383 0 0 0 .464-.9 6.634 6.634 0 0 0 .319-.924l-.142.227c-.086.146-.222.348-.375.592s-.341.522-.55.806c-.1.144-.22.284-.339.42a2.221 2.221 0 0 1-.387.366 1.574 1.574 0 0 1-.187.126 1.016 1.016 0 0 1-.132.046l-.069.022c.024-.006-.029 0-.04 0a2.047 2.047 0 0 1-.507 0 4.834 4.834 0 0 1-.925-.227c-.268-.1-.5-.181-.648-.252z" class="cls-11" data-name="Path 2544"/>
                            </g>
                        </g>
                    </g>
                </g>
                <path id="Path_2545" fill="#f3be65" d="M273.908 209.1l-1.758 51.354s-9.884 5.565-11.473 4.882a47.362 47.362 0 0 0-6.167-1.562s23.608-50.152-7.685-51.534q1.065-.51 2.144-.992 1.922-.861 3.881-1.633c1.758-.687 3.535-1.312 5.331-1.863 1.933-.593 3.882-1.1 5.85-1.507a.075.075 0 0 1 .031 0c4.945-.652 8.7-1.09 9.4-1.105z" data-name="Path 2545" style="mix-blend-mode:multiply;isolation:isolate" opacity="0.58"/>
                <path id="Path_2546" d="M306.13 201.482c-12.732-.051-25.463-.587-38.2.222a192.708 192.708 0 0 1 .87 19.632c0 21.468-2.794 36.425-8.126 44a17.545 17.545 0 0 1 2.115 1.09 8.432 8.432 0 0 1 .8.716 4.428 4.428 0 0 1 .576 2.386c.9.426 1.638 4.359 1.638 4.359a35.407 35.407 0 0 1 3.921-.422c4.6-.3 9.622-.154 13.663-.3 4.753-.168 8.744-.313 13.1-.86 6.374-12.549 10.9-31.179 10.9-50.97a148.328 148.328 0 0 0-1.257-19.853z" class="cls-2" data-name="Path 2546"/>
                <g id="Group_2332" data-name="Group 2332">
                    <g id="Group_2327" data-name="Group 2327">
                        <path id="Path_2547" d="M189.646 224.355l.517 1.188-1.441 4.5 2.969-1.293.651 1.495-5.421 2.361-.517-1.187 1.441-4.5-2.76 1.2-.656-1.506z" class="cls-13" data-name="Path 2547"/>
                    </g>
                    <g id="Group_2328" data-name="Group 2328">
                        <path id="Path_2548" d="M197.834 209.6l.134 1.289-2.734 3.853 3.221-.335.168 1.622-5.88.612-.134-1.288 2.733-3.854-2.994.312-.17-1.634z" class="cls-13" data-name="Path 2548"/>
                    </g>
                    <g id="Group_2329" data-name="Group 2329" opacity="0.58">
                        <path id="Path_2549" d="M187.759 195.934l.1.984-2.087 2.942 2.458-.256.129 1.238-4.489.467-.1-.983 2.087-2.942-2.286.238-.13-1.247z" class="cls-13" data-name="Path 2549"/>
                    </g>
                    <g id="Group_2330" data-name="Group 2330" opacity="0.39">
                        <path id="Path_2550" d="M199.36 182.7l-.176.715-2.2 1.534 1.787.441-.222.9-3.262-.805.176-.714 2.2-1.535-1.66-.409.223-.907z" class="cls-13" data-name="Path 2550"/>
                    </g>
                    <g id="Group_2331" data-name="Group 2331" opacity="0.15">
                        <path id="Path_2551" d="M186.888 175.819l.236.7-1.031 2.479 1.743-.59.3.878-3.182 1.077-.236-.7 1.031-2.479-1.62.548-.3-.884z" class="cls-13" data-name="Path 2551"/>
                    </g>
                </g>
            </g>
        </g>
    </g>
</svg>
