<svg id="Group_1358" data-name="Group 1358" xmlns="http://www.w3.org/2000/svg" width="31.297" height="30" viewBox="0 0 31.297 30">
  <g id="Group_1357" data-name="Group 1357">
    <g id="Group_1356" data-name="Group 1356" transform="translate(0 0)">
      <path id="Path_2719" data-name="Path 2719" d="M144.483,15.558,148.2,11.8V25.291a.729.729,0,0,0,1.458,0V11.8l3.718,3.755a.8.8,0,0,0,1.021,0,.766.766,0,0,0,0-1.057l-4.958-4.994a.766.766,0,0,0-1.021,0L143.463,14.5a.735.735,0,0,0,1.021,1.057Z" transform="translate(-133.282 -9.312)"/>
      <path id="Path_2720" data-name="Path 2720" d="M31.188,130.645l-4.112-8.875a.764.764,0,0,0-.655-.473H22.927a.727.727,0,1,0,0,1.455h3.021l3.385,7.638H25.183a4.768,4.768,0,0,0-4.367,2.8,3.385,3.385,0,0,1-3.057,1.928H13.538a3.385,3.385,0,0,1-3.057-1.928,4.768,4.768,0,0,0-4.367-2.8H2.038l4-7.638H8.37a.727.727,0,1,0,0-1.455H5.6a.8.8,0,0,0-.655.436l-4.8,8.838a.764.764,0,0,0-.146.364v9.093a3.593,3.593,0,0,0,3.748,3.455h23.8a3.593,3.593,0,0,0,3.748-3.455v-9.093A.946.946,0,0,0,31.188,130.645Zm-1.347,9.384a2.138,2.138,0,0,1-2.293,2H3.748a2.138,2.138,0,0,1-2.293-2v-8.183H6.114a3.385,3.385,0,0,1,3.057,1.928,4.768,4.768,0,0,0,4.367,2.8h4.222a4.768,4.768,0,0,0,4.367-2.8,3.385,3.385,0,0,1,3.057-1.928h4.658v8.183Z" transform="translate(0 -113.484)"/>
    </g>
  </g>
</svg>
