<svg width="24" height="25" viewBox="0 0 24 25" fill="none" xmlns="http://www.w3.org/2000/svg">
<path d="M20.2498 8.53055V6.95508C20.2487 5.96086 19.8532 5.00768 19.1502 4.30466C18.4472 3.60164 17.494 3.20619 16.4998 3.20508H7.49981C6.50559 3.20619 5.55241 3.60164 4.84939 4.30466C4.14637 5.00768 3.75092 5.96086 3.74981 6.95508V8.53055C2.90293 8.70355 2.14181 9.16377 1.59519 9.83334C1.04856 10.5029 0.75 11.3408 0.75 12.2051C0.75 13.0695 1.04856 13.9073 1.59519 14.5769C2.14181 15.2465 2.90293 15.7067 3.74981 15.8797V18.9551C3.75025 19.3528 3.90843 19.734 4.18964 20.0152C4.47085 20.2965 4.85212 20.4546 5.24981 20.4551H18.7498C19.1475 20.4546 19.5288 20.2965 19.81 20.0152C20.0912 19.734 20.2494 19.3528 20.2498 18.9551V15.8797C21.0967 15.7067 21.8578 15.2465 22.4044 14.5769C22.9511 13.9073 23.2496 13.0695 23.2496 12.2051C23.2496 11.3408 22.9511 10.5029 22.4044 9.83334C21.8578 9.16377 21.0967 8.70355 20.2498 8.53055ZM7.49981 4.70508H16.4998C17.0963 4.70575 17.6682 4.94302 18.0901 5.36483C18.5119 5.78664 18.7491 6.35855 18.7498 6.95508V8.53055C17.9034 8.70454 17.1429 9.16501 16.5964 9.83436C16.0499 10.5037 15.7509 11.341 15.7498 12.2051H8.24981C8.24868 11.341 7.94968 10.5037 7.40321 9.83436C6.85673 9.16501 6.0962 8.70454 5.24981 8.53055V6.95508C5.25048 6.35855 5.48775 5.78664 5.90956 5.36483C6.33137 4.94302 6.90328 4.70575 7.49981 4.70508ZM19.5362 14.4548C19.5241 14.4542 19.5119 14.4539 19.4998 14.4539C19.3009 14.4539 19.1101 14.5329 18.9695 14.6735C18.8288 14.8142 18.7498 15.0049 18.7498 15.2039V18.9551H5.24981V15.2003C5.24884 15.002 5.1694 14.8122 5.02885 14.6723C4.8883 14.5325 4.69809 14.454 4.49981 14.454C4.48762 14.454 4.47543 14.4542 4.46343 14.4549C4.02004 14.4477 3.58864 14.3097 3.22345 14.0581C2.85825 13.8066 2.57553 13.4527 2.4108 13.041C2.24607 12.6293 2.20668 12.178 2.29758 11.744C2.38848 11.31 2.60561 10.9125 2.92169 10.6014C3.23778 10.2904 3.63873 10.0797 4.07418 9.99581C4.50962 9.91192 4.96015 9.95858 5.36917 10.1299C5.77818 10.3013 6.12745 10.5897 6.37309 10.9589C6.61873 11.3281 6.74979 11.7616 6.74981 12.2051V15.9551C6.74981 16.154 6.82883 16.3448 6.96948 16.4854C7.11013 16.6261 7.3009 16.7051 7.49981 16.7051C7.69872 16.7051 7.88949 16.6261 8.03014 16.4854C8.17079 16.3448 8.24981 16.154 8.24981 15.9551V13.7051H15.7498V15.9551C15.7498 16.154 15.8288 16.3448 15.9695 16.4854C16.1101 16.6261 16.3009 16.7051 16.4998 16.7051C16.6987 16.7051 16.8895 16.6261 17.0301 16.4854C17.1708 16.3448 17.2498 16.154 17.2498 15.9551V12.2051C17.2498 11.7616 17.3809 11.328 17.6265 10.9588C17.8721 10.5896 18.2214 10.3012 18.6304 10.1299C19.0394 9.9585 19.4899 9.91183 19.9254 9.9957C20.3608 10.0796 20.7618 10.2903 21.0779 10.6013C21.394 10.9123 21.6111 11.3098 21.702 11.7439C21.7929 12.1779 21.7535 12.6291 21.5888 13.0409C21.4241 13.4526 21.1414 13.8065 20.7762 14.058C20.411 14.3096 19.9796 14.4476 19.5362 14.4548Z" fill="#222222"/>
</svg>
