<svg width="86" height="86" viewBox="0 0 86 86" fill="none" xmlns="http://www.w3.org/2000/svg">
<circle cx="43" cy="43" r="43" fill="#fe6b8d"/>
<g clip-path="url(#clip0)">
<path d="M24.5859 44.3989V23.6463C24.5859 22.1806 25.7783 20.9883 27.2439 20.9883C28.3809 20.9883 29.3917 21.7111 29.7591 22.7871L30.3632 24.5555C28.6281 25.9043 27.7974 28.2216 28.4496 30.4598L28.5014 30.6374C28.7322 31.4297 29.5616 31.8848 30.3538 31.654L38.0863 29.4009C38.8786 29.1701 39.3337 28.3406 39.1028 27.5485L39.0511 27.3709C38.2883 24.7529 35.7567 23.1329 33.1364 23.4292L32.5872 21.8212C31.8063 19.5357 29.6591 18 27.2439 18C24.1305 18 21.5977 20.5329 21.5977 23.6463V44.399H24.5859V44.3989Z" fill="white"/>
<path d="M67.5058 47.3873H39.1149C39.1149 47.3938 39.1154 47.4002 39.1154 47.4067V57.9045C39.1154 60.3761 37.1045 62.387 34.6329 62.387H29.0678C26.5962 62.387 24.5854 60.3761 24.5854 57.9045V47.4066C24.5854 47.4002 24.5859 47.3938 24.5859 47.3872H19.4941C18.669 47.3872 18 48.0562 18 48.8813V51.5728C18 52.0676 18.248 52.5258 18.6547 52.8078C18.9569 53.0174 19.1551 53.3676 19.1551 53.7625V58.6839C19.1551 61.9172 21.3537 64.6359 24.3371 65.4294L23.5101 66.6831C23.0557 67.3719 23.2457 68.2987 23.9345 68.7531C24.1878 68.9202 24.4735 69.0001 24.7559 69.0001C25.2412 69.0001 25.7172 68.764 26.0045 68.3285L27.6305 65.8637C27.6729 65.7994 27.708 65.7324 27.7393 65.6645H59.2606C59.2919 65.7324 59.327 65.7994 59.3694 65.8637L60.9954 68.3285C61.2827 68.764 61.7586 69.0001 62.244 69.0001C62.5264 69.0001 62.8121 68.9201 63.0654 68.7531C63.7542 68.2987 63.9442 67.3719 63.4898 66.6831L62.6628 65.4294C65.6462 64.6359 67.8448 61.9172 67.8448 58.6839V53.7625C67.8448 53.3676 68.043 53.0174 68.3452 52.8078C68.7518 52.5258 68.9999 52.0676 68.9999 51.5728V48.8813C68.9999 48.0562 68.3309 47.3873 67.5058 47.3873Z" fill="white"/>
<path d="M34.6335 59.3987H29.0684C28.2432 59.3987 27.5742 58.7297 27.5742 57.9045V47.4066C27.5742 46.5815 28.2432 45.9125 29.0684 45.9125H34.6335C35.4587 45.9125 36.1277 46.5815 36.1277 47.4066V57.9045C36.1277 58.7298 35.4587 59.3987 34.6335 59.3987Z" fill="white"/>
</g>
<defs>
<clipPath id="clip0">
<rect width="51" height="51" fill="white" transform="translate(18 18)"/>
</clipPath>
</defs>
</svg>
