<svg width="32" height="32" viewBox="0 0 32 32" fill="none" xmlns="http://www.w3.org/2000/svg">
<path d="M10.1465 17.8535C10.1929 17.9 10.248 17.9368 10.3087 17.9619C10.3693 17.9871 10.4344 18 10.5 18C10.5657 18 10.6307 17.9871 10.6914 17.9619C10.752 17.9368 10.8072 17.9 10.8536 17.8535L15.8536 12.8535C15.9474 12.7597 16.0001 12.6326 16.0001 12.5C16.0001 12.3673 15.9474 12.2402 15.8536 12.1464C15.7598 12.0526 15.6326 11.9999 15.5 11.9999C15.3674 11.9999 15.2402 12.0526 15.1465 12.1464L10.1465 17.1464C10.1 17.1928 10.0632 17.248 10.0381 17.3086C10.0129 17.3693 10 17.4343 10 17.5C10 17.5656 10.0129 17.6307 10.0381 17.6913C10.0632 17.752 10.1 17.8071 10.1465 17.8535Z" fill="#131313" stroke="#131313" stroke-width="0.3"/>
<path d="M15.1465 16.1464L13.1465 18.1464C13.1 18.1929 13.0632 18.248 13.0381 18.3087C13.0129 18.3693 13 18.4343 13 18.5C13 18.5657 13.0129 18.6307 13.0381 18.6914C13.0632 18.752 13.1 18.8071 13.1465 18.8536C13.1929 18.9 13.248 18.9368 13.3087 18.962C13.3693 18.9871 13.4344 19 13.5 19C13.5657 19 13.6307 18.9871 13.6914 18.962C13.752 18.9368 13.8071 18.9 13.8536 18.8536L15.8536 16.8536C15.9473 16.7598 16 16.6326 16 16.5C16 16.3674 15.9473 16.2402 15.8536 16.1464C15.7598 16.0527 15.6326 16 15.5 16C15.3674 16 15.2402 16.0527 15.1465 16.1464Z" fill="#131313" stroke="#131313" stroke-width="0.3"/>
<path d="M10 14.4999C10.0657 14.5 10.1307 14.4871 10.1914 14.462C10.2521 14.4369 10.3072 14.4 10.3536 14.3535L12.3536 12.3535C12.4474 12.2597 12.5 12.1326 12.5 11.9999C12.5 11.8673 12.4474 11.7402 12.3536 11.6464C12.2598 11.5526 12.1326 11.4999 12 11.4999C11.8674 11.4999 11.7402 11.5526 11.6465 11.6464L9.64646 13.6464C9.57653 13.7163 9.5289 13.8054 9.50961 13.9024C9.49031 13.9994 9.50022 14.0999 9.53806 14.1913C9.57591 14.2827 9.64 14.3607 9.72222 14.4157C9.80445 14.4706 9.90113 14.4999 10 14.4999Z" fill="#131313" stroke="#131313" stroke-width="0.3"/>
<path d="M29 15H28V14.5C28 14.3674 27.9473 14.2402 27.8536 14.1464C27.7598 14.0527 27.6326 14 27.5 14H19.5V12.9397C20.6397 12.6609 21.5 11.4488 21.5 10C21.5 8.34581 20.3785 7 19 7H3.5C2.1215 7 1 8.34581 1 10C1 11.4488 1.86031 12.6609 3 12.9397V22H1.5C1.36739 22 1.24021 22.0527 1.14645 22.1464C1.05268 22.2402 1 22.3674 1 22.5C1.00074 23.1628 1.26438 23.7983 1.73306 24.2669C2.20173 24.7356 2.83719 24.9993 3.5 25H28.5C29.1628 24.9993 29.7983 24.7356 30.2669 24.2669C30.7356 23.7983 30.9993 23.1628 31 22.5C31 22.3674 30.9473 22.2402 30.8536 22.1464C30.7598 22.0527 30.6326 22 30.5 22H26.3241C26.972 21.4768 27.4628 20.7846 27.742 20H29C29.5303 19.9994 30.0386 19.7885 30.4136 19.4136C30.7885 19.0386 30.9994 18.5303 31 18V17C30.9994 16.4697 30.7885 15.9614 30.4136 15.5864C30.0386 15.2115 29.5303 15.0006 29 15ZM7 8H19C19.8271 8 20.5 8.89719 20.5 10C20.5 11.1028 19.8271 12 19 12C18.8674 12 18.7402 12.0527 18.6464 12.1464C18.5527 12.2402 18.5 12.3674 18.5 12.5V14H17.5C17.3674 14 17.2402 14.0527 17.1464 14.1464C17.0527 14.2402 17 14.3674 17 14.5V18.5C16.9986 19.1334 17.1316 19.7599 17.3902 20.3381C17.6487 20.9164 18.027 21.4332 18.5 21.8545V22H7.5V12.5C7.5 12.3674 7.44732 12.2402 7.35355 12.1464C7.25979 12.0527 7.13261 12 7 12C6.17294 12 5.5 11.1028 5.5 10C5.5 8.89719 6.17294 8 7 8ZM2 10C2 8.89719 2.67294 8 3.5 8H5.13863C4.71668 8.58088 4.49277 9.28208 4.5 10C4.5 11.4488 5.36031 12.6609 6.5 12.9397V22H4V12.5C4 12.3674 3.94732 12.2402 3.85355 12.1464C3.75979 12.0527 3.63261 12 3.5 12C2.67294 12 2 11.1028 2 10ZM29.9143 23C29.8106 23.2923 29.619 23.5453 29.3657 23.7243C29.1125 23.9033 28.8101 23.9996 28.5 24H3.5C3.18988 23.9996 2.88747 23.9033 2.63426 23.7243C2.38104 23.5453 2.18942 23.2923 2.08569 23H29.9143ZM27 18.5C26.999 19.4279 26.6299 20.3176 25.9737 20.9737C25.3176 21.6299 24.4279 21.999 23.5 22H21.5C21.0403 22.0002 20.5851 21.9097 20.1604 21.7339C19.7357 21.5581 19.3498 21.3003 19.0248 20.9752C18.6997 20.6502 18.4419 20.2643 18.2661 19.8396C18.0903 19.4149 17.9998 18.9597 18 18.5V15H27V18.5ZM30 18C29.9997 18.2651 29.8942 18.5193 29.7068 18.7068C29.5193 18.8942 29.2651 18.9997 29 19H27.9716C27.9903 18.834 27.9998 18.6671 28 18.5V16H29C29.2651 16.0003 29.5193 16.1058 29.7068 16.2932C29.8942 16.4807 29.9997 16.7349 30 17V18Z" fill="#131313" stroke="#131313" stroke-width="0.3"/>
<path d="M22.8478 12.5C22.8478 12.6326 22.9005 12.7598 22.9942 12.8536C23.088 12.9473 23.2152 13 23.3478 13C23.4804 13 23.6076 12.9473 23.7014 12.8536C23.7951 12.7598 23.8478 12.6326 23.8478 12.5C23.8443 12.4123 23.8722 12.3262 23.9265 12.2572C24.071 12.0311 24.1478 11.7683 24.1478 11.5C24.1478 11.2316 24.071 10.9688 23.9265 10.7427C23.8722 10.6738 23.8443 10.5877 23.8478 10.5C23.8478 10.3885 23.8661 10.3581 23.9265 10.2573C24.0747 10.0328 24.1518 9.76893 24.1478 9.5C24.1478 9.36739 24.0951 9.24021 24.0014 9.14645C23.9076 9.05268 23.7804 9 23.6478 9C23.5152 9 23.388 9.05268 23.2943 9.14645C23.2005 9.24021 23.1478 9.36739 23.1478 9.5C23.1513 9.58767 23.1234 9.67372 23.0691 9.74263C22.9246 9.96876 22.8478 10.2315 22.8478 10.4999C22.8478 10.7683 22.9246 11.0311 23.0691 11.2572C23.1296 11.3581 23.1478 11.3884 23.1478 11.4999C23.1513 11.5876 23.1234 11.6737 23.0691 11.7427C22.921 11.9672 22.8439 12.2311 22.8478 12.5Z" fill="#131313" stroke="#131313" stroke-width="0.3"/>
<path d="M25.8478 12.5C25.8478 12.6326 25.9005 12.7598 25.9942 12.8536C26.088 12.9473 26.2152 13 26.3478 13C26.4804 13 26.6076 12.9473 26.7014 12.8536C26.7951 12.7598 26.8478 12.6326 26.8478 12.5C26.8443 12.4123 26.8722 12.3262 26.9265 12.2572C27.071 12.0311 27.1478 11.7683 27.1478 11.5C27.1478 11.2316 27.071 10.9688 26.9265 10.7427C26.8722 10.6738 26.8443 10.5877 26.8478 10.5C26.8478 10.3885 26.8661 10.3581 26.9265 10.2573C27.0747 10.0328 27.1518 9.76893 27.1478 9.5C27.1478 9.36739 27.0951 9.24021 27.0014 9.14645C26.9076 9.05268 26.7804 9 26.6478 9C26.5152 9 26.388 9.05268 26.2943 9.14645C26.2005 9.24021 26.1478 9.36739 26.1478 9.5C26.1513 9.58767 26.1234 9.67372 26.0691 9.74263C25.9246 9.96876 25.8478 10.2315 25.8478 10.4999C25.8478 10.7683 25.9246 11.0311 26.0691 11.2572C26.1296 11.3581 26.1478 11.3884 26.1478 11.4999C26.1513 11.5876 26.1234 11.6737 26.0691 11.7427C25.921 11.9672 25.8439 12.2311 25.8478 12.5Z" fill="#131313" stroke="#131313" stroke-width="0.3"/>
</svg>
