<svg width="24" height="24" viewBox="0 0 24 24" fill="none" xmlns="http://www.w3.org/2000/svg">
<path d="M1.5 20.248H22.5" stroke="#222222" stroke-width="1.5" stroke-linecap="round" stroke-linejoin="round"/>
<path d="M13.5 20.248V3.74805C13.5 3.54913 13.421 3.35837 13.2803 3.21772C13.1397 3.07706 12.9489 2.99805 12.75 2.99805H3.75C3.55109 2.99805 3.36032 3.07706 3.21967 3.21772C3.07902 3.35837 3 3.54913 3 3.74805V20.248" stroke="#222222" stroke-width="1.5" stroke-linecap="round" stroke-linejoin="round"/>
<path d="M21 20.248V9.74805C21 9.54913 20.921 9.35837 20.7803 9.21772C20.6397 9.07706 20.4489 8.99805 20.25 8.99805H13.5" stroke="#222222" stroke-width="1.5" stroke-linecap="round" stroke-linejoin="round"/>
<path d="M6 6.74805H9" stroke="#222222" stroke-width="1.5" stroke-linecap="round" stroke-linejoin="round"/>
<path d="M7.5 12.748H10.5" stroke="#222222" stroke-width="1.5" stroke-linecap="round" stroke-linejoin="round"/>
<path d="M6 16.498H9" stroke="#222222" stroke-width="1.5" stroke-linecap="round" stroke-linejoin="round"/>
<path d="M16.5 16.498H18" stroke="#222222" stroke-width="1.5" stroke-linecap="round" stroke-linejoin="round"/>
<path d="M16.5 12.748H18" stroke="#222222" stroke-width="1.5" stroke-linecap="round" stroke-linejoin="round"/>
</svg>
