<svg width="24" height="24" viewBox="0 0 24 24" fill="none" xmlns="http://www.w3.org/2000/svg">
<path d="M19.0714 4.92857H17.1429V3.64287C17.1429 3.28782 16.855 3 16.5 3C16.1449 3 15.8571 3.28782 15.8571 3.64287V4.92857H8.14284V3.64287C8.14284 3.28782 7.85502 3 7.50001 3C7.14499 3 6.85714 3.28782 6.85714 3.64287V4.92857H4.92857C3.86345 4.92857 3 5.79202 3 6.85714V19.0714C3 20.1365 3.86345 21 4.92857 21H19.0714C20.1365 21 21 20.1365 21 19.0714V6.85714C21 5.79202 20.1365 4.92857 19.0714 4.92857ZM19.7143 19.0714C19.7143 19.4265 19.4264 19.7143 19.0714 19.7143H4.92857C4.57352 19.7143 4.2857 19.4265 4.2857 19.0714V10.7143H19.7143V19.0714ZM19.7143 9.42858H4.2857V6.85714C4.2857 6.50209 4.57352 6.21427 4.92857 6.21427H6.85714V7.49997C6.85714 7.85502 7.14496 8.14284 7.50001 8.14284C7.85506 8.14284 8.14288 7.85502 8.14288 7.49997V6.21427H15.8572V7.49997C15.8572 7.85502 16.145 8.14284 16.5 8.14284C16.8551 8.14284 17.1429 7.85502 17.1429 7.49997V6.21427H19.0715C19.4265 6.21427 19.7143 6.50209 19.7143 6.85714V9.42858H19.7143Z" fill="#222222" stroke="#222222" stroke-width="0.2"/>
<path d="M8.14341 12H6.85771C6.50266 12 6.21484 12.2878 6.21484 12.6429C6.21484 12.9979 6.50266 13.2857 6.85771 13.2857H8.14341C8.49846 13.2857 8.78628 12.9979 8.78628 12.6429C8.78628 12.2878 8.49846 12 8.14341 12Z" fill="#222222" stroke="#222222" stroke-width="0.2"/>
<path d="M12.6434 12H11.3577C11.0027 12 10.7148 12.2878 10.7148 12.6429C10.7148 12.9979 11.0027 13.2857 11.3577 13.2857H12.6434C12.9985 13.2857 13.2863 12.9979 13.2863 12.6429C13.2863 12.2878 12.9985 12 12.6434 12Z" fill="#222222" stroke="#222222" stroke-width="0.2"/>
<path d="M17.1434 12H15.8577C15.5027 12 15.2148 12.2878 15.2148 12.6429C15.2148 12.9979 15.5027 13.2857 15.8577 13.2857H17.1434C17.4985 13.2857 17.7863 12.9979 17.7863 12.6429C17.7862 12.2878 17.4984 12 17.1434 12Z" fill="#222222" stroke="#222222" stroke-width="0.2"/>
<path d="M8.14341 14.5713H6.85771C6.50266 14.5713 6.21484 14.8591 6.21484 15.2142C6.21484 15.5692 6.50266 15.857 6.85771 15.857H8.14341C8.49846 15.857 8.78628 15.5692 8.78628 15.2142C8.78628 14.8591 8.49846 14.5713 8.14341 14.5713Z" fill="#222222" stroke="#222222" stroke-width="0.2"/>
<path d="M12.6434 14.5713H11.3577C11.0027 14.5713 10.7148 14.8591 10.7148 15.2142C10.7148 15.5692 11.0027 15.857 11.3577 15.857H12.6434C12.9985 15.857 13.2863 15.5692 13.2863 15.2142C13.2863 14.8591 12.9985 14.5713 12.6434 14.5713Z" fill="#222222" stroke="#222222" stroke-width="0.2"/>
<path d="M17.1434 14.5713H15.8577C15.5027 14.5713 15.2148 14.8591 15.2148 15.2142C15.2148 15.5692 15.5027 15.857 15.8577 15.857H17.1434C17.4985 15.857 17.7863 15.5692 17.7863 15.2142C17.7862 14.8591 17.4984 14.5713 17.1434 14.5713Z" fill="#222222" stroke="#222222" stroke-width="0.2"/>
<path d="M8.14341 17.1426H6.85771C6.50266 17.1426 6.21484 17.4304 6.21484 17.7854C6.21484 18.1405 6.50266 18.4283 6.85771 18.4283H8.14341C8.49846 18.4283 8.78628 18.1405 8.78628 17.7854C8.78628 17.4304 8.49846 17.1426 8.14341 17.1426Z" fill="#222222" stroke="#222222" stroke-width="0.2"/>
<path d="M12.6434 17.1426H11.3577C11.0027 17.1426 10.7148 17.4304 10.7148 17.7854C10.7148 18.1405 11.0027 18.4283 11.3577 18.4283H12.6434C12.9985 18.4283 13.2863 18.1405 13.2863 17.7854C13.2863 17.4304 12.9985 17.1426 12.6434 17.1426Z" fill="#222222" stroke="#222222" stroke-width="0.2"/>
<path d="M17.1434 17.1426H15.8577C15.5027 17.1426 15.2148 17.4304 15.2148 17.7854C15.2148 18.1405 15.5027 18.4283 15.8577 18.4283H17.1434C17.4985 18.4283 17.7863 18.1405 17.7863 17.7854C17.7863 17.4304 17.4984 17.1426 17.1434 17.1426Z" fill="#222222" stroke="#222222" stroke-width="0.2"/>
</svg>
