<svg width="32" height="32" viewBox="0 0 32 32" fill="none" xmlns="http://www.w3.org/2000/svg">
<path d="M30.6563 22.6982C30.6502 22.0696 30.3385 21.6234 29.7896 21.347C29.5054 21.2039 29.1979 21.2008 28.8929 21.2213C28.6894 21.2356 28.5702 21.1715 28.462 20.9823C27.514 19.3312 26.5501 17.6888 25.5979 16.0389C25.2843 15.4955 24.8277 15.2435 24.2153 15.2435C20.8756 15.246 17.5366 15.2447 14.1975 15.2447C10.8376 15.2453 7.4778 15.2447 4.11856 15.246C3.32521 15.246 2.76289 15.7134 2.6107 16.5019C2.3222 17.9943 2.04043 19.488 1.75072 20.9798C1.72933 21.0925 1.73727 21.2219 1.59364 21.2916C1.38766 21.3912 1.33142 21.5829 1.33204 21.8095C1.33631 23.2814 1.32898 24.7539 1.33509 26.2258C1.33937 27.3952 2.16696 28.3978 3.29526 28.6325C3.73044 28.7233 4.16868 28.6829 4.60448 28.676C4.84041 28.6723 4.94737 28.7476 5.05311 28.9642C5.59465 30.0757 6.49069 30.6732 7.70884 30.6657C8.91416 30.6583 9.79492 30.0546 10.3291 28.9555C10.4281 28.7526 10.521 28.6767 10.7509 28.6773C14.5379 28.6866 18.3256 28.6866 22.1127 28.6785C22.3273 28.6785 22.4177 28.7489 22.5112 28.9412C23.043 30.0396 23.9183 30.6521 25.1242 30.6657C26.3558 30.6794 27.2573 30.0751 27.8044 28.953C27.9046 28.7476 28.0006 28.6779 28.2267 28.6773C29.5738 28.6742 30.649 27.5813 30.6587 26.2127C30.6673 25.0414 30.6679 23.8695 30.6563 22.6982ZM21.3695 16.4596C21.3689 16.2847 21.4129 16.2349 21.5871 16.2361C22.4721 16.2455 23.3572 16.2424 24.2422 16.2393C24.4396 16.2386 24.6089 16.2946 24.7116 16.4708C25.6217 18.0335 26.5281 19.5988 27.4676 21.2182H23.0503C22.562 21.2182 22.0736 21.2101 21.5852 21.2219C21.4092 21.2269 21.3689 21.1697 21.3695 20.9979C21.3762 19.4849 21.3762 17.9719 21.3695 16.4596ZM15.0153 16.4764C15.0141 16.289 15.0526 16.2343 15.2463 16.2355C16.8856 16.2442 18.5249 16.2436 20.1642 16.2361C20.3475 16.2355 20.4025 16.2747 20.4013 16.4714C20.3922 17.975 20.3928 19.4781 20.4001 20.9817C20.4013 21.169 20.3628 21.2263 20.1691 21.2232C19.3445 21.2107 18.5194 21.2182 17.6949 21.2182C16.8801 21.2182 16.066 21.212 15.2512 21.2226C15.0673 21.225 15.0141 21.1846 15.0153 20.9867C15.0245 19.4837 15.0232 17.98 15.0153 16.4764ZM8.88054 16.2361C9.71546 16.2449 10.5498 16.2405 11.3847 16.2405C12.189 16.2405 12.9934 16.2473 13.7971 16.2355C13.9964 16.2324 14.0484 16.2866 14.0471 16.4894C14.038 17.9925 14.0392 19.4961 14.0459 20.9991C14.0465 21.1734 14.0025 21.2226 13.8283 21.2219C12.1799 21.2151 10.5302 21.2151 8.88115 21.2213C8.71001 21.2219 8.66172 21.1753 8.66233 20.9991C8.66845 19.4855 8.66845 17.9726 8.66172 16.459C8.6605 16.2828 8.70879 16.2343 8.88054 16.2361ZM3.50246 17.0154C3.52385 16.9033 3.54463 16.7919 3.56786 16.6805C3.62959 16.3843 3.8099 16.2399 4.10695 16.2399C5.23709 16.2411 6.36722 16.2455 7.49675 16.2368C7.67217 16.2349 7.69111 16.3027 7.6905 16.4509C7.68622 17.9645 7.68684 19.4781 7.68867 20.9917C7.68867 21.1217 7.70395 21.2226 7.5102 21.2213C5.92287 21.2132 4.33555 21.217 2.70299 21.217C2.97315 19.7973 3.2378 18.4063 3.50246 17.0154ZM7.67339 29.678C6.59704 29.6756 5.7285 28.7744 5.73339 27.6653C5.73828 26.5843 6.6221 25.6943 7.68745 25.698C8.77358 25.7017 9.64639 26.5942 9.64211 27.6958C9.63783 28.7993 8.76196 29.6805 7.67339 29.678ZM25.1303 29.6787C24.0656 29.6656 23.1982 28.7644 23.2068 27.6796C23.2147 26.5619 24.1028 25.6831 25.2079 25.6974C26.2629 25.7111 27.1235 26.6197 27.1161 27.712C27.1088 28.8055 26.2128 29.693 25.1303 29.6787ZM29.6808 26.2046C29.6765 26.9757 29.0806 27.6286 28.3459 27.6858C28.1943 27.6977 28.1008 27.7014 28.0831 27.4786C27.9541 25.8779 26.6938 24.6991 25.1419 24.7022C23.62 24.7047 22.3652 25.9028 22.2362 27.4879C22.2234 27.646 22.1879 27.6896 22.0296 27.6921C21.3707 27.702 21.3725 27.7083 21.3732 27.0498C21.3744 25.8573 21.367 24.6649 21.3787 23.473C21.3811 23.2546 21.3279 23.1998 21.1134 23.2029C20.397 23.2141 20.3964 23.2042 20.3964 23.9404C20.3958 25.1018 20.3897 26.2625 20.4013 27.4238C20.4038 27.6423 20.35 27.6952 20.1361 27.6939C18.5176 27.684 16.8985 27.684 15.28 27.6939C15.0666 27.6952 15.0116 27.6429 15.0135 27.4238C15.0251 26.1075 15.0141 24.7906 15.0257 23.4743C15.0275 23.2558 14.975 23.1998 14.7604 23.2029C14.0422 23.2129 14.0422 23.2036 14.0422 23.9379C14.0422 25.0993 14.0361 26.2606 14.0471 27.4213C14.0496 27.6367 14.0019 27.697 13.7837 27.6939C12.807 27.6802 11.829 27.6821 10.8523 27.6927C10.6677 27.6946 10.6243 27.6491 10.6091 27.4593C10.4862 25.9021 9.21854 24.7047 7.71006 24.701C6.16919 24.6979 4.8942 25.8785 4.76829 27.445C4.75178 27.6479 4.69861 27.7051 4.50669 27.6927C4.25303 27.6759 3.99815 27.6939 3.74328 27.6865C2.96092 27.6647 2.32404 27.0336 2.31609 26.2382C2.30265 24.963 2.31915 23.6878 2.3057 22.4131C2.30326 22.1642 2.44017 22.214 2.57464 22.214C6.2297 22.2134 9.88415 22.2134 13.5392 22.2134H28.9932C29.5372 22.2134 29.682 22.3596 29.6826 22.9073C29.6826 24.0064 29.6863 25.1055 29.6808 26.2046Z" fill="#131313" stroke="#131313" stroke-width="0.2"/>
<path d="M29.7689 2.36543C29.2879 2.07603 28.8013 1.79596 28.3337 1.48478C28.0556 1.29994 27.813 1.285 27.5123 1.43561C26.5203 1.93164 25.5136 2.39655 24.521 2.89195C24.3071 2.99838 24.1353 2.99713 23.922 2.90627C22.7619 2.41273 21.5957 1.93475 20.4344 1.44433C20.2278 1.3572 20.0286 1.33355 19.8116 1.38769C19.2597 1.52648 18.7077 1.66589 18.1521 1.78787C17.9028 1.84202 17.7011 1.93662 17.6491 2.20922C17.5935 2.49862 17.764 2.66417 17.9847 2.80918C18.83 3.36433 19.6704 3.92695 20.5096 4.49144C20.5952 4.5487 20.7186 4.57421 20.748 4.7074C20.1117 5.0136 19.4754 5.31172 18.8483 5.62664C18.6863 5.70817 18.5635 5.71377 18.4015 5.62601C17.9089 5.35902 17.4101 5.1026 16.9053 4.86237C16.533 4.68562 16.1638 4.72483 15.8509 5.00489C15.5429 5.27998 15.4298 5.63037 15.5526 6.04176C15.7501 6.70395 15.9426 7.36802 16.1473 8.02773C16.305 8.5362 16.6418 8.77333 17.1766 8.77519C17.5226 8.77644 17.8691 8.76337 18.2145 8.77831C18.5464 8.79262 18.852 8.72478 19.1612 8.60218C20.0677 8.24369 20.9827 7.90575 21.938 7.54291C21.9307 7.65618 21.9288 7.71717 21.9221 7.77754C21.8041 8.85797 21.6856 9.9384 21.5664 11.0188C21.5401 11.2616 21.5242 11.5012 21.7504 11.6661C21.9759 11.831 22.1886 11.7482 22.4068 11.6344C22.9667 11.3425 23.5278 11.0524 24.0944 10.7742C24.3016 10.6722 24.4238 10.5284 24.4959 10.3037C24.9152 8.99862 25.3492 7.6985 25.7703 6.39402C25.829 6.21353 25.9213 6.10648 26.0924 6.0206C27.2935 5.41877 28.4872 4.80013 29.6858 4.19332C30.0525 4.00786 30.2817 3.73464 30.3006 3.30645C30.319 2.87888 30.1216 2.57828 29.7689 2.36543ZM19.3709 2.53783C19.7388 2.42891 20.0286 2.32684 20.3831 2.48928C21.232 2.87702 22.1024 3.21683 23.0315 3.60456C22.6281 3.79812 22.2888 3.9562 21.9551 4.12424C21.8708 4.16656 21.8109 4.16532 21.7332 4.11304C20.9619 3.59647 20.1893 3.0824 19.3709 2.53783ZM25.4176 5.24513C25.1579 5.37458 25.0094 5.55444 24.9219 5.82828C24.5295 7.05621 24.1145 8.27668 23.7344 9.50834C23.6396 9.8133 23.4899 10.0069 23.202 10.1164C23.0235 10.1849 22.8573 10.2875 22.6311 10.4021C22.6886 9.83509 22.7387 9.30919 22.7961 8.78391C22.864 8.15594 22.9422 7.52921 23.0082 6.90125C23.0565 6.44069 22.7252 6.18117 22.2901 6.34485C21.1385 6.77739 19.9882 7.21181 18.8428 7.66053C18.297 7.87463 17.7371 7.73584 17.1846 7.77754C17.0703 7.78563 17.0648 7.68294 17.0428 7.60888C16.8631 7.01763 16.687 6.42576 16.4908 5.7704C16.7445 5.8955 16.956 5.99757 17.165 6.10337C17.5287 6.28759 17.8966 6.4631 18.2524 6.66226C18.4993 6.80042 18.7144 6.79295 18.9699 6.66848C21.8359 5.27749 24.7074 3.89894 27.5734 2.50733C27.7879 2.4034 27.9444 2.39157 28.1485 2.53285C28.5171 2.78677 28.9095 3.00398 29.3306 3.2604C27.9982 3.93815 26.7122 4.59973 25.4176 5.24513Z" fill="#131313" stroke="#131313" stroke-width="0.2"/>
<path d="M10.8316 8.95197C10.5755 8.78206 10.328 8.62149 10.0859 8.45345C10.0321 8.41611 10.0725 8.36072 10.103 8.32027C10.1586 8.24683 10.2124 8.1709 10.2736 8.10306C10.4533 7.90452 10.6959 7.58463 10.8787 7.64126C11.1244 7.71781 11.1757 8.11862 11.3352 8.36508C11.3799 8.43416 11.3475 8.48146 11.2912 8.51818C11.1445 8.61402 11.0235 8.73725 10.9135 8.87417C10.8909 8.90405 10.8597 8.92645 10.8316 8.95197Z" fill="#131313" stroke="#131313" stroke-width="0.2"/>
<path d="M12.5494 8.27729C12.0843 8.27604 12.0843 8.27604 12.0861 7.78437C12.0874 7.28275 12.0874 7.28274 12.5708 7.28088C13.0629 7.27963 13.0629 7.27963 13.0647 7.77441C13.0659 8.27915 13.0659 8.27915 12.5494 8.27729Z" fill="#131313" stroke="#131313" stroke-width="0.2"/>
<path d="M14.043 7.75698C14.043 7.28149 14.043 7.28149 14.5234 7.28149C15.0203 7.28149 15.0203 7.28149 15.0203 7.80179C15.0203 8.27728 15.0203 8.27728 14.5399 8.27728C14.043 8.27728 14.043 8.27728 14.043 7.75698Z" fill="#131313" stroke="#131313" stroke-width="0.2"/>
<path d="M9.63602 9.80082C9.60423 9.64834 9.67575 9.54004 9.91656 9.60726C9.94529 9.61535 9.97646 9.61597 10.007 9.61971C10.6201 9.68505 10.617 9.68568 10.7179 10.2844C10.7301 10.3572 10.7313 10.4008 10.6671 10.4338C10.6494 10.4431 10.6305 10.4512 10.6115 10.458C10.3591 10.5533 10.0602 10.852 9.88234 10.7344C9.65313 10.5838 9.66841 10.1848 9.63602 9.80082Z" fill="#131313" stroke="#131313" stroke-width="0.2"/>
<path d="M13.7583 11.7924C13.7583 12.2598 13.7583 12.2598 13.3036 12.2592C12.7792 12.2592 12.7792 12.2592 12.7804 11.7314C12.781 11.2634 12.781 11.2634 13.2412 11.2634C13.7583 11.2641 13.7583 11.2641 13.7583 11.7924Z" fill="#131313" stroke="#131313" stroke-width="0.2"/>
<path d="M15.237 12.2592C14.7383 12.2598 14.7383 12.2598 14.7383 11.7688C14.7383 11.2634 14.7383 11.2634 15.2218 11.2634C15.7187 11.2641 15.7187 11.2641 15.7162 11.7837C15.7138 12.258 15.7138 12.258 15.237 12.2592Z" fill="#131313" stroke="#131313" stroke-width="0.2"/>
<path d="M17.1135 12.764C16.9417 12.614 16.762 12.4833 16.5719 12.3638C16.4601 12.2935 16.608 12.1621 16.6153 12.0539C16.6166 12.0339 16.6306 12.0159 16.638 11.9966C16.8855 11.3219 16.891 11.3207 17.4723 11.7682C17.4802 11.7744 17.4882 11.7813 17.4961 11.7875C17.8799 12.0899 17.8799 12.0906 17.5163 12.4117C17.3861 12.5262 17.2547 12.6401 17.1135 12.764Z" fill="#131313" stroke="#131313" stroke-width="0.2"/>
<path d="M11.8611 11.4066C11.8305 11.597 11.8091 11.7184 11.792 11.8404C11.7309 12.2741 11.729 12.276 11.3098 12.1316C10.5647 11.8752 10.561 11.8509 11.0225 11.2118C11.1484 11.0375 11.2511 10.9423 11.4461 11.1084C11.5047 11.1582 11.5909 11.1838 11.6691 11.1981C11.8305 11.2286 11.9222 11.292 11.8611 11.4066Z" fill="#131313" stroke="#131313" stroke-width="0.2"/>
<path d="M17.9357 14.3187C17.4639 14.3205 17.4639 14.3205 17.462 13.8656C17.4608 13.4212 17.4608 13.4212 17.8881 13.3285C18.4406 13.209 18.4406 13.209 18.44 13.8033C18.44 14.3174 18.44 14.3174 17.9357 14.3187Z" fill="#131313" stroke="#131313" stroke-width="0.2"/>
</svg>
