<svg width="18" height="13" viewBox="0 0 18 13" fill="none" xmlns="http://www.w3.org/2000/svg">
<path d="M18 0.886719H0V12.8868H18V0.886719Z" fill="#F0F0F0"/>
<path d="M10.125 0.886719H7.875V5.76169H0V8.01169H7.875V12.8867H10.125V8.01169H18V5.76169H10.125V0.886719Z" fill="#D80027"/>
<path d="M13.8398 8.97266L17.9958 11.2816V8.97266H13.8398Z" fill="#0052B4"/>
<path d="M10.9531 8.97266L17.9966 12.8857V11.7792L12.9449 8.97266H10.9531Z" fill="#0052B4"/>
<path d="M16.1205 12.8856L10.9531 10.0146V12.8856H16.1205Z" fill="#0052B4"/>
<path d="M10.9531 8.97363L17.9966 12.8867V11.7802L12.9449 8.97363H10.9531Z" fill="#F0F0F0"/>
<path d="M10.9531 8.97363L17.9966 12.8867V11.7802L12.9449 8.97363H10.9531Z" fill="#D80027"/>
<path d="M3.17605 8.97363L0 10.7381V8.97363H3.17605Z" fill="#0052B4"/>
<path d="M7.04576 9.4707V12.8862H0.898438L7.04576 9.4707Z" fill="#0052B4"/>
<path d="M5.05171 8.97363L0 11.7802V12.8867L7.04348 8.97363H5.05171Z" fill="#D80027"/>
<path d="M4.156 4.79916L0 2.49023V4.79916H4.156Z" fill="#0052B4"/>
<path d="M7.04348 4.79975L0 0.886719V1.99323L5.05171 4.79975H7.04348Z" fill="#0052B4"/>
<path d="M1.875 0.886719L7.04234 3.75772V0.886719H1.875Z" fill="#0052B4"/>
<path d="M7.04348 4.79975L0 0.886719V1.99323L5.05171 4.79975H7.04348Z" fill="#F0F0F0"/>
<path d="M7.04348 4.79975L0 0.886719V1.99323L5.05171 4.79975H7.04348Z" fill="#D80027"/>
<path d="M14.8203 4.79965L17.9964 3.03516V4.79965H14.8203Z" fill="#0052B4"/>
<path d="M10.9531 4.30218V0.886719H17.1004L10.9531 4.30218Z" fill="#0052B4"/>
<path d="M12.9449 4.79975L17.9966 1.99323V0.886719L10.9531 4.79975H12.9449Z" fill="#D80027"/>
</svg>
