<svg width="172" height="180" viewBox="0 0 172 180" fill="none" xmlns="http://www.w3.org/2000/svg">
<path d="M130.673 13.55C89.7612 -16.7463 66.4823 12.1938 61.2392 28.7388V35.7909L43.8788 39.3169C36.1939 40.7634 20.658 46.2517 23.2652 55.8619C27.8225 72.6596 48.4897 59.3879 50.3883 65.3549C52.2869 71.322 42.7939 75.1192 35.7428 77.2891C-37.7606 107.938 18.9265 182.526 61.2392 179.543C103.552 176.559 101.652 151.606 105.449 149.708C124.164 145.368 139.051 134.292 144.506 121.5C147.373 114.777 142.336 106.311 144.506 104.141C206.075 80.2726 144.506 38.232 142.336 35.7909C140.166 33.3498 146.429 27.323 130.673 13.55Z" fill="#EC0412" fill-opacity="0.31"/>
<g filter="url(#filter0_d)">
<path d="M35.5352 160.476V22.9566L52.4633 34.6604L70.4369 22.9566L86.5296 33.6154L103.876 22.9566L120.178 33.6154L136.271 22.9566V160.476L120.178 149.817L102.622 160.476L86.5296 149.817L70.4369 160.476L52.4633 149.817L35.5352 160.476Z" fill="white"/>
</g>
<rect x="105.336" y="118.468" width="14.9436" height="3.55286" fill="#B6B6B6"/>
<rect x="105.336" y="128.106" width="14.9436" height="3.55286" fill="#B6B6B6"/>
<rect x="64.375" y="54.5151" width="45.1442" height="3.55286" fill="#B6B6B6"/>
<rect x="52.4609" y="74.9967" width="34.6957" height="3.55286" fill="#B6B6B6"/>
<rect x="52.4609" y="96.7323" width="34.6957" height="3.55286" fill="#B6B6B6"/>
<rect x="52.4609" y="106.764" width="34.6957" height="3.55286" fill="#B6B6B6"/>
<rect x="52.4609" y="128.106" width="34.6957" height="3.55286" fill="#B6B6B6"/>
<rect x="52.4609" y="86.7004" width="26.1268" height="3.55286" fill="#B6B6B6"/>
<rect x="52.4609" y="118.468" width="30.9338" height="3.55286" fill="#B6B6B6"/>
<path fill-rule="evenodd" clip-rule="evenodd" d="M103.504 58.0679C100.19 58.0679 97.5039 60.7542 97.5039 64.0679V109.333C97.5039 112.647 100.19 115.333 103.504 115.333H106.419L103.168 128.106L119.072 115.333H154.831C158.144 115.333 160.831 112.647 160.831 109.333V64.0679C160.831 60.7542 158.144 58.0679 154.831 58.0679H103.504Z" fill="#B3091B"/>
<g clip-path="url(#clip0)">
<path d="M129.001 97.1543C130.455 97.1543 131.666 96.0691 131.789 94.6576L133.68 72.6635C133.79 71.3879 133.346 70.1269 132.457 69.1851C131.569 68.2444 130.314 67.7084 129.001 67.7084C127.687 67.7084 126.433 68.2444 125.544 69.1851C124.655 70.1269 124.211 71.3879 124.321 72.6635L126.213 94.6576C126.335 96.0691 127.546 97.1543 129.001 97.1543Z" fill="white"/>
<path d="M129.001 98.7731C127.317 98.7731 125.953 100.101 125.953 101.741C125.953 103.38 127.317 104.708 129.001 104.708C130.685 104.708 132.049 103.38 132.049 101.741C132.049 100.101 130.685 98.7731 129.001 98.7731Z" fill="white"/>
</g>
<defs>
<filter id="filter0_d" x="28.5352" y="20.9566" width="108.736" height="145.519" filterUnits="userSpaceOnUse" color-interpolation-filters="sRGB">
<feFlood flood-opacity="0" result="BackgroundImageFix"/>
<feColorMatrix in="SourceAlpha" type="matrix" values="0 0 0 0 0 0 0 0 0 0 0 0 0 0 0 0 0 0 127 0" result="hardAlpha"/>
<feOffset dx="-3" dy="2"/>
<feGaussianBlur stdDeviation="2"/>
<feComposite in2="hardAlpha" operator="out"/>
<feColorMatrix type="matrix" values="0 0 0 0 0 0 0 0 0 0 0 0 0 0 0 0 0 0 0.25 0"/>
<feBlend mode="normal" in2="BackgroundImageFix" result="effect1_dropShadow"/>
<feBlend mode="normal" in="SourceGraphic" in2="effect1_dropShadow" result="shape"/>
</filter>
<clipPath id="clip0">
<rect width="38" height="37" fill="white" transform="translate(110 67.7084)"/>
</clipPath>
</defs>
</svg>
