<svg width="24" height="24" viewBox="0 0 24 24" fill="none" xmlns="http://www.w3.org/2000/svg">
<g clip-path="url(#clip0)">
<path d="M22.6738 0.000976562H1.3246C0.593539 0.000976562 0 0.59333 0 1.32557V22.6748C0 23.407 0.593539 24.0002 1.3246 24.0002H12.8184V14.7063H9.69105V11.0838H12.8184V8.41248C12.8184 5.31319 14.7108 3.62465 17.4762 3.62465C18.802 3.62465 19.9389 3.72383 20.2704 3.76691V7.00648L18.3523 7.00727C16.8487 7.00727 16.5586 7.72212 16.5586 8.7705V11.0826H20.1459L19.6769 14.7047H16.5582V23.999H22.6734C23.4053 23.999 23.9992 23.4051 23.9992 22.6748V1.32478C23.9988 0.59333 23.4057 0.000976562 22.6738 0.000976562Z" fill="white"/>
</g>
<defs>
<clipPath id="clip0">
<rect width="24" height="23.9996" fill="white"/>
</clipPath>
</defs>
</svg>
