<svg width="20" height="21" viewBox="0 0 20 21" fill="none" xmlns="http://www.w3.org/2000/svg">
<path d="M10 17.7711C14.1421 17.7711 17.5 14.377 17.5 10.19C17.5 6.00307 14.1421 2.60889 10 2.60889C5.85786 2.60889 2.5 6.00307 2.5 10.19C2.5 14.377 5.85786 17.7711 10 17.7711Z" stroke="#222222" stroke-width="1.2" stroke-linecap="round" stroke-linejoin="round"/>
<path d="M2.92578 7.66284H17.0715" stroke="#222222" stroke-width="1.2" stroke-linecap="round" stroke-linejoin="round"/>
<path d="M2.92578 12.717H17.0714" stroke="#222222" stroke-width="1.2" stroke-linecap="round" stroke-linejoin="round"/>
<path d="M10 17.5675C11.7259 17.5675 13.125 14.2644 13.125 10.1899C13.125 6.11533 11.7259 2.81226 10 2.81226C8.27411 2.81226 6.875 6.11533 6.875 10.1899C6.875 14.2644 8.27411 17.5675 10 17.5675Z" stroke="#222222" stroke-width="1.2" stroke-linecap="round" stroke-linejoin="round"/>
</svg>
