<svg width="24" height="24" viewBox="0 0 24 24" fill="none" xmlns="http://www.w3.org/2000/svg">
<rect width="24" height="24" rx="2" fill="white"/>
<g clip-path="url(#clip0)">
<path d="M6.98918 13.8776L6.36262 16.2166L4.07258 16.2651C3.3882 14.9957 3 13.5433 3 12C3 10.5076 3.36295 9.10018 4.00631 7.86096H4.0068L6.04559 8.23474L6.93869 10.2613C6.75177 10.8062 6.64989 11.3912 6.64989 12C6.64996 12.6606 6.76963 13.2936 6.98918 13.8776Z" fill="#FBBB00"/>
<path d="M20.8441 10.3187C20.9475 10.8632 21.0013 11.4254 21.0013 12C21.0013 12.6444 20.9336 13.2729 20.8045 13.8792C20.3664 15.9423 19.2216 17.7437 17.6358 19.0186L17.6353 19.0181L15.0673 18.8871L14.7039 16.6182C15.7562 16.0011 16.5786 15.0353 17.0118 13.8792H12.1992V10.3187H17.082H20.8441Z" fill="#518EF8"/>
<path d="M17.6355 19.0179L17.636 19.0184C16.0937 20.2581 14.1344 20.9999 12.0016 20.9999C8.57422 20.9999 5.59434 19.0842 4.07422 16.265L6.99082 13.8776C7.75086 15.906 9.70762 17.35 12.0016 17.35C12.9877 17.35 13.9114 17.0834 14.7041 16.6181L17.6355 19.0179Z" fill="#28B446"/>
<path d="M17.7423 5.07197L14.8267 7.45894C14.0063 6.94615 13.0365 6.64992 11.9976 6.64992C9.65165 6.64992 7.65829 8.16013 6.93632 10.2613L4.0044 7.86098H4.00391C5.50177 4.97307 8.51923 3 11.9976 3C14.1813 3 16.1836 3.77787 17.7423 5.07197Z" fill="#F14336"/>
</g>
<defs>
<clipPath id="clip0">
<rect width="18" height="18" fill="white" transform="translate(3 3)"/>
</clipPath>
</defs>
</svg>
