<svg width="88" height="88" viewBox="0 0 88 88" fill="none" xmlns="http://www.w3.org/2000/svg">
<circle cx="44" cy="44" r="44" fill="#fe6b8d"/>
<g clip-path="url(#clip0)">
<path d="M44.3452 25.9613C34.6514 25.9613 26.793 33.8197 26.793 43.5135C26.793 53.2073 34.6514 61.0657 44.3452 61.0657C54.039 61.0657 61.8974 53.2073 61.8974 43.5135C61.8974 33.8197 54.039 25.9613 44.3452 25.9613ZM44.3451 56.8317C37.0015 56.8317 31.027 50.8572 31.027 43.5136C31.027 36.17 37.0015 30.1955 44.3451 30.1955C51.6887 30.1955 57.6632 36.17 57.6632 43.5136C57.6632 50.8572 51.6888 56.8317 44.3451 56.8317Z" fill="white"/>
<path d="M44.3458 33.7654C38.9707 33.7654 34.5977 38.1384 34.5977 43.5136C34.5977 48.8887 38.9707 53.2617 44.3458 53.2617C49.721 53.2617 54.094 48.8887 54.094 43.5136C54.094 38.1384 49.7211 33.7654 44.3458 33.7654Z" fill="white"/>
<path d="M68.8964 44.9852V23.6561C68.8964 23.4503 68.7651 23.2674 68.5699 23.2017C68.3748 23.136 68.1596 23.2024 68.0351 23.3664C65.3739 26.8759 63.9336 31.1593 63.9336 35.5636V43.3664C63.9336 44.2613 64.659 44.9868 65.554 44.9868H66.2296C65.5637 51.8647 65.1236 61.4841 65.1236 62.6105C65.1236 64.3849 66.2158 65.8234 67.5631 65.8234C68.9103 65.8234 70.0025 64.3848 70.0025 62.6105C70.0025 61.484 69.5625 51.8631 68.8964 44.9852Z" fill="white"/>
<path d="M24.0822 40.7571C25.4323 39.9394 26.3346 38.4566 26.3346 36.7629L25.6659 25.8295C25.6403 25.4127 25.2949 25.0878 24.8773 25.0878C24.4257 25.0878 24.0659 25.4661 24.0883 25.9169L24.5232 34.6856C24.5232 35.1786 24.1235 35.578 23.6308 35.578C23.138 35.578 22.7384 35.1784 22.7384 34.6856L22.5211 25.9206C22.5096 25.4573 22.1309 25.0879 21.6674 25.0879C21.204 25.0879 20.8253 25.4574 20.8137 25.9206L20.5964 34.6856C20.5964 35.1786 20.1968 35.578 19.704 35.578C19.2112 35.578 18.8116 35.1784 18.8116 34.6856L19.2465 25.9169C19.2689 25.4659 18.9088 25.0878 18.4575 25.0878C18.0399 25.0878 17.6945 25.4127 17.669 25.8295L17 36.763C17 38.4567 17.9022 39.9394 19.2524 40.7572C20.131 41.2894 20.6209 42.2844 20.5076 43.3055C19.7454 50.1746 19.2279 61.3889 19.2279 62.6105C19.2279 64.385 20.3201 65.8234 21.6673 65.8234C23.0146 65.8234 24.1068 64.3849 24.1068 62.6105C24.1068 61.3889 23.5891 50.1746 22.827 43.3055C22.7136 42.2849 23.204 41.2891 24.0822 40.7571Z" fill="white"/>
</g>
<defs>
<clipPath id="clip0">
<rect width="53" height="53" fill="white" transform="translate(17 18)"/>
</clipPath>
</defs>
</svg>
