<svg width="21" height="21" viewBox="0 0 21 21" fill="none" xmlns="http://www.w3.org/2000/svg">
<path d="M10.3125 11.125C11.6932 11.125 12.8125 10.0057 12.8125 8.625C12.8125 7.24429 11.6932 6.125 10.3125 6.125C8.93179 6.125 7.8125 7.24429 7.8125 8.625C7.8125 10.0057 8.93179 11.125 10.3125 11.125Z" stroke="#222222" stroke-width="1.2" stroke-linecap="round" stroke-linejoin="round"/>
<path d="M16.5625 8.625C16.5625 14.25 10.3125 18.625 10.3125 18.625C10.3125 18.625 4.0625 14.25 4.0625 8.625C4.0625 6.9674 4.72098 5.37769 5.89308 4.20558C7.06519 3.03348 8.6549 2.375 10.3125 2.375C11.9701 2.375 13.5598 3.03348 14.7319 4.20558C15.904 5.37769 16.5625 6.9674 16.5625 8.625V8.625Z" stroke="#222222" stroke-width="1.2" stroke-linecap="round" stroke-linejoin="round"/>
</svg>
