<svg width="58" height="35" viewBox="0 0 58 35" fill="none" xmlns="http://www.w3.org/2000/svg">
<g clip-path="url(#clip0)">
<path d="M56.8908 17.5944C56.8934 26.8378 49.4021 34.3326 40.1586 34.335C30.915 34.3373 23.4204 26.8463 23.418 17.6029C23.418 17.5998 23.418 17.5974 23.418 17.5944C23.4155 8.35108 30.9068 0.855972 40.1499 0.853516C49.3936 0.851061 56.8883 8.34239 56.8908 17.5859C56.8908 17.5887 56.8908 17.5913 56.8908 17.5944Z" fill="#FF9900"/>
<path d="M17.5974 0.857506C8.4087 0.915872 0.96875 8.39153 0.96875 17.594C0.96875 26.8324 8.46669 34.3303 17.7052 34.3303C22.0412 34.3303 25.9935 32.6779 28.9676 29.9696C28.9674 29.9696 28.967 29.9692 28.9662 29.9689H28.9698C29.5788 29.4139 30.1468 28.8151 30.6689 28.1767H27.24C26.7821 27.6236 26.366 27.0473 25.9922 26.4527H31.9059C32.2656 25.8772 32.5912 25.2795 32.8802 24.6605H25.0158C24.7478 24.0859 24.5151 23.4983 24.3164 22.9022H33.5804C34.1388 21.2339 34.4417 19.4491 34.4417 17.5938C34.4417 16.3638 34.3084 15.1645 34.056 14.0098H23.8251C23.9518 13.4156 24.1118 12.8285 24.3026 12.2517H33.57C33.3628 11.6378 33.1222 11.0396 32.8485 10.4597H25.0149C25.2974 9.85598 25.6176 9.26873 25.9752 8.70168H31.8846C31.4913 8.07514 31.0561 7.47655 30.5856 6.90951H27.2908C27.8002 6.30997 28.361 5.74538 28.9698 5.21895C25.9956 2.51028 22.0421 0.857506 17.7052 0.857506C17.6692 0.857506 17.6335 0.857317 17.5974 0.857506Z" fill="#CC0000"/>
<path d="M55.2134 26.3438C55.3045 26.3438 55.3931 26.3674 55.4796 26.4138C55.5665 26.4603 55.6333 26.5273 55.6817 26.6144C55.73 26.7006 55.7542 26.7914 55.7542 26.8855C55.7542 26.9784 55.7302 27.0683 55.6826 27.1545C55.6352 27.2404 55.5683 27.3075 55.4822 27.3552C55.397 27.4023 55.3069 27.4261 55.2132 27.4261C55.1195 27.4261 55.0296 27.4023 54.9439 27.3552C54.8579 27.3073 54.7914 27.2406 54.7431 27.1545C54.6955 27.0683 54.6719 26.9784 54.6719 26.8855C54.6719 26.7914 54.6959 26.7006 54.7444 26.6144C54.7931 26.5273 54.8604 26.4609 54.9467 26.4138C55.034 26.3674 55.1226 26.3438 55.2134 26.3438ZM55.2134 26.4335C55.1377 26.4335 55.0636 26.4531 54.9913 26.4922C54.9195 26.5313 54.8634 26.5867 54.823 26.6599C54.782 26.7321 54.7616 26.8069 54.7616 26.8855C54.7616 26.9633 54.7816 27.0385 54.8211 27.1099C54.8615 27.1811 54.9174 27.237 54.9888 27.277C55.0608 27.3169 55.1354 27.3365 55.2132 27.3365C55.2914 27.3365 55.3662 27.3169 55.4378 27.277C55.5092 27.237 55.5649 27.1811 55.6048 27.1099C55.6443 27.0385 55.6639 26.9635 55.6639 26.8855C55.6639 26.8069 55.6439 26.7319 55.6033 26.6599C55.5631 26.5867 55.5068 26.5313 55.4344 26.4922C55.3628 26.4529 55.2892 26.4335 55.2134 26.4335ZM54.9762 27.1843V26.6021H55.1768C55.2448 26.6021 55.2943 26.6074 55.3249 26.6188C55.3555 26.6295 55.3798 26.6479 55.3982 26.6749C55.4161 26.7015 55.4254 26.7298 55.4254 26.7601C55.4254 26.8027 55.4102 26.8398 55.3796 26.8711C55.3498 26.9025 55.3092 26.9204 55.2589 26.9242C55.2795 26.9327 55.296 26.9435 55.3088 26.9552C55.3324 26.9778 55.3608 27.0162 55.3948 27.0704L55.4656 27.1843H55.3511L55.2997 27.0927C55.2591 27.0205 55.2265 26.9756 55.2013 26.9571C55.1841 26.944 55.159 26.9372 55.1263 26.9372H55.071V27.1849H54.9766L54.9762 27.1843ZM55.0702 26.8566H55.1843C55.2387 26.8566 55.2756 26.8483 55.2954 26.8322C55.3154 26.8156 55.3254 26.7944 55.3254 26.7676C55.3254 26.7502 55.3209 26.7348 55.3113 26.7215C55.3014 26.7077 55.2882 26.6979 55.271 26.6909C55.2542 26.6843 55.2229 26.6805 55.1772 26.6805H55.0706V26.8566" fill="#FCB340"/>
<path d="M23.2592 22.3967L23.4821 20.8818C23.3603 20.8818 23.1812 20.9345 23.0229 20.9345C22.4026 20.9345 22.3252 20.603 22.3739 20.3609L22.9852 17.3141H23.9281L24.1225 15.5946H23.2337L23.4147 14.5527H21.5556C21.5163 14.592 20.5039 20.4124 20.5039 21.1215C20.5039 22.1708 21.0929 22.6377 21.9236 22.6304C22.5738 22.6249 23.0805 22.4449 23.2592 22.3967Z" fill="#000066"/>
<path d="M23.8242 19.5092C23.8242 22.0274 25.4863 22.6256 26.9025 22.6256C28.2098 22.6256 28.8953 22.3227 28.8953 22.3227L29.2093 20.6038C29.2093 20.6038 28.1046 21.0529 27.2068 21.0529C25.2932 21.0529 25.6287 19.6261 25.6287 19.6261L29.305 19.6372C29.305 19.6372 29.5391 18.4829 29.5391 18.0124C29.5391 16.8381 28.8993 15.3965 26.9428 15.3965C25.151 15.3969 23.8242 17.3275 23.8242 19.5092ZM26.9496 16.9922C27.9552 16.9922 27.7697 18.1225 27.7697 18.2141H25.7913C25.7913 18.097 25.9781 16.9922 26.9496 16.9922Z" fill="#000066"/>
<path d="M38.2332 22.3953L38.5522 20.4528C38.5522 20.4528 37.6773 20.8912 37.0775 20.8912C35.8133 20.8912 35.3061 19.926 35.3061 18.8888C35.3061 16.7852 36.3938 15.6276 37.6045 15.6276C38.5127 15.6276 39.2413 16.1375 39.2413 16.1375L39.5321 14.2499C39.5321 14.2499 38.6719 13.6286 37.746 13.625C34.9608 13.6141 33.3672 15.5532 33.3672 18.9054C33.3672 21.1273 34.5474 22.6394 36.6739 22.6394C37.2751 22.6394 38.2332 22.3953 38.2332 22.3953Z" fill="#000066"/>
<path d="M13.4561 15.4238C12.2342 15.4238 11.2977 15.8165 11.2977 15.8165L11.0389 17.3516C11.0389 17.3516 11.812 17.0375 12.9809 17.0375C13.6445 17.0375 14.1299 17.1121 14.1299 17.6514C14.1299 17.9789 14.0706 18.0998 14.0706 18.0998C14.0706 18.0998 13.547 18.0562 13.3045 18.0562C11.5648 18.0562 10.1445 18.7139 10.1445 20.6969C10.1445 22.2595 11.2067 22.6179 11.8649 22.6179C13.1224 22.6179 13.6201 21.824 13.6488 21.8217L13.6343 22.4805C13.6343 22.4805 15.2032 22.4805 15.2034 22.4805L15.9034 17.5732C15.9034 15.4907 14.087 15.4238 13.4561 15.4238ZM13.7278 19.4086C13.7619 19.7082 13.6503 21.1249 12.577 21.1249C12.0236 21.1249 11.8799 20.7018 11.8799 20.4521C11.8799 19.964 12.1449 19.3786 13.4505 19.3786C13.7546 19.3786 13.6766 19.4005 13.7278 19.4086Z" fill="#000066"/>
<path d="M17.5701 22.5804C17.9715 22.5804 20.2659 22.6826 20.2659 20.3149C20.2659 18.1009 18.142 18.5385 18.142 17.6489C18.142 17.2065 18.4883 17.0671 19.1212 17.0671C19.3723 17.0671 20.339 17.147 20.339 17.147L20.5636 15.5736C20.5636 15.5737 19.938 15.4336 18.9195 15.4336C17.6012 15.4336 16.2632 15.9598 16.2632 17.7603C16.2632 19.8007 18.4943 19.5958 18.4943 20.4552C18.4943 21.0289 17.871 21.0761 17.3904 21.0761C16.5591 21.0761 15.8108 20.7907 15.8081 20.8045L15.5703 22.3618C15.6136 22.3751 16.0754 22.5804 17.5701 22.5804Z" fill="#000066"/>
<path d="M52.9314 13.9961L52.6094 16.3967C52.6094 16.3967 51.9383 15.4702 50.8882 15.4702C48.9126 15.4702 47.8945 17.439 47.8945 19.7005C47.8945 21.1606 48.6206 22.5919 50.1043 22.5919C51.1718 22.5919 51.7635 21.8474 51.7635 21.8474L51.6852 22.4831H53.4188L54.7801 14.0091L52.9314 13.9961ZM52.1661 18.6618C52.1661 19.6031 51.6999 20.8605 50.7341 20.8605C50.0926 20.8605 49.7919 20.322 49.7919 19.4771C49.7919 18.0954 50.4124 17.184 51.1957 17.184C51.8368 17.184 52.1661 17.6241 52.1661 18.6618Z" fill="#000066"/>
<path d="M3.80826 22.4898L4.89305 16.0921L5.05247 22.4898H6.28006L8.57033 16.0921L7.55581 22.4898H9.3801L10.7849 14.0045L7.88693 13.9824L6.16313 19.1776L6.11591 14.0045H3.46013L2.03516 22.4898H3.80826Z" fill="#000066"/>
<path d="M31.2637 22.5019C31.7824 19.5524 31.9672 17.223 33.4798 17.7054C33.697 16.5638 34.2147 15.571 34.4512 15.0878C34.4512 15.0878 34.3764 14.9766 33.9089 14.9766C33.1109 14.9766 32.0454 16.5961 32.0454 16.5961L32.2046 15.5948H30.545L29.4336 22.5017H31.2637V22.5019Z" fill="#000066"/>
<path d="M41.9641 15.4238C40.7416 15.4238 39.8051 15.8165 39.8051 15.8165L39.5465 17.3516C39.5465 17.3516 40.3201 17.0375 41.4883 17.0375C42.1521 17.0375 42.6373 17.1121 42.6373 17.6514C42.6373 17.9789 42.5782 18.0998 42.5782 18.0998C42.5782 18.0998 42.0548 18.0562 41.8123 18.0562C40.0724 18.0562 38.6523 18.7139 38.6523 20.6969C38.6523 22.2595 39.7143 22.6179 40.3726 22.6179C41.6296 22.6179 42.1277 21.824 42.1562 21.8217L42.1415 22.4805H43.711L44.4108 17.5732C44.411 15.4907 42.5946 15.4238 41.9641 15.4238ZM42.2354 19.4086C42.2694 19.7082 42.1577 21.1249 41.0847 21.1249C40.5308 21.1249 40.3873 20.7018 40.3873 20.4521C40.3873 19.964 40.6521 19.3786 41.9579 19.3786C42.2622 19.3786 42.1844 19.4005 42.2354 19.4086Z" fill="#000066"/>
<path d="M46.2172 22.501C46.5021 20.3311 47.0293 17.2847 48.4331 17.7046C48.6501 16.5629 48.4408 16.566 47.9735 16.566C47.1749 16.566 46.9981 16.5951 46.9981 16.5951L47.1575 15.5938H45.4981L44.3867 22.5008H46.2172V22.501Z" fill="#000066"/>
<path d="M23.7205 21.8539L23.9436 20.3392C23.8218 20.3392 23.6425 20.3914 23.4844 20.3914C22.8641 20.3914 22.7957 20.0616 22.8352 19.8177L23.3363 16.7271H24.2791L24.5067 15.0517H23.6178L23.7987 14.0098H22.0168C21.9775 14.0491 20.9648 19.8697 20.9648 20.5784C20.9648 21.6277 21.554 22.095 22.3847 22.0874C23.0353 22.0819 23.5419 21.9019 23.7205 21.8539Z" fill="white"/>
<path d="M24.2852 18.9664C24.2852 21.4847 25.9474 22.0831 27.3635 22.0831C28.6706 22.0831 29.2458 21.7908 29.2458 21.7908L29.5597 20.0721C29.5597 20.0721 28.5654 20.5102 27.6674 20.5102C25.754 20.5102 26.0891 19.0835 26.0891 19.0835H29.7104C29.7104 19.0835 29.9443 17.9288 29.9443 17.4583C29.9443 16.2842 29.3599 14.8535 27.4033 14.8535C25.6115 14.8539 24.2852 16.7845 24.2852 18.9664ZM27.4101 16.4494C28.4158 16.4494 28.2303 17.5796 28.2303 17.671H26.2519C26.2519 17.5543 26.4389 16.4494 27.4101 16.4494Z" fill="white"/>
<path d="M38.6957 21.854L39.0146 19.9113C39.0146 19.9113 38.1402 20.3497 37.5401 20.3497C36.2761 20.3497 35.7691 19.3845 35.7691 18.3475C35.7691 16.2438 36.8567 15.0865 38.0675 15.0865C38.9755 15.0865 39.7042 15.5963 39.7042 15.5963L39.9951 13.7088C39.9951 13.7088 38.9145 13.2715 37.9881 13.2715C35.931 13.2715 33.9297 15.0561 33.9297 18.4078C33.9297 20.6302 35.0103 22.0981 37.1368 22.0981C37.7381 22.0983 38.6957 21.854 38.6957 21.854Z" fill="white"/>
<path d="M13.9212 14.8809C12.6992 14.8809 11.7625 15.2736 11.7625 15.2736L11.504 16.8087C11.504 16.8087 12.2771 16.4945 13.4457 16.4945C14.1093 16.4945 14.5947 16.5691 14.5947 17.1084C14.5947 17.436 14.5352 17.5568 14.5352 17.5568C14.5352 17.5568 14.0118 17.513 13.7695 17.513C12.2283 17.513 10.6094 18.1707 10.6094 20.1537C10.6094 21.7162 11.6715 22.0747 12.3298 22.0747C13.587 22.0747 14.1289 21.2589 14.1578 21.2564L14.0991 21.9374H15.6682L16.3682 17.0298C16.3682 14.9479 14.5521 14.8809 13.9212 14.8809ZM14.3029 18.8766C14.3369 19.1764 14.115 20.5815 13.0421 20.5815C12.4886 20.5815 12.3447 20.1588 12.3447 19.9087C12.3447 19.421 12.6097 18.8354 13.9155 18.8354C14.2192 18.8358 14.2517 18.8683 14.3029 18.8766Z" fill="white"/>
<path d="M18.0347 22.0396C18.4361 22.0396 20.7307 22.1416 20.7307 19.7738C20.7307 17.5603 18.6067 17.9975 18.6067 17.1082C18.6067 16.6655 18.9529 16.5261 19.5857 16.5261C19.8369 16.5261 20.8035 16.606 20.8035 16.606L21.0282 15.0325C21.0282 15.0327 20.4026 14.8926 19.3842 14.8926C18.0659 14.8926 16.7278 15.4188 16.7278 17.2193C16.7278 19.2595 18.959 19.0547 18.959 19.9142C18.959 20.4878 18.3356 20.5345 17.8553 20.5345C17.024 20.5345 16.2754 20.2493 16.2728 20.2629L16.0352 21.8205C16.0782 21.8337 16.5399 22.0396 18.0347 22.0396Z" fill="white"/>
<path d="M53.4582 13.4696L53.0739 15.8547C53.0739 15.8547 52.4031 14.9282 51.3531 14.9282C49.7203 14.9282 48.3594 16.8968 48.3594 19.1588C48.3594 20.6189 49.0853 22.0495 50.5692 22.0495C51.6366 22.0495 52.2284 21.3053 52.2284 21.3053L52.15 21.9409H53.8832L55.2446 13.4668L53.4582 13.4696ZM52.6307 18.1201C52.6307 19.0613 52.1647 20.3186 51.1986 20.3186C50.5573 20.3186 50.2568 19.7802 50.2568 18.9353C50.2568 17.5538 50.8773 16.6422 51.6602 16.6422C52.3017 16.642 52.6307 17.0827 52.6307 18.1201Z" fill="white"/>
<path d="M4.27282 21.9483L5.35761 15.5507L5.51684 21.9483H6.74462L9.0349 15.5507L8.02038 21.9483H9.84467L11.2496 13.4629H8.42857L6.67171 18.6692L6.58029 13.4629H3.97985L2.55469 21.9483H4.27282Z" fill="white"/>
<path d="M31.7284 21.9609C32.2471 19.0112 32.3432 16.6161 33.581 17.0545C33.7977 15.9129 34.0068 15.4713 34.2433 14.9881C34.2433 14.9881 34.1324 14.9648 33.8997 14.9648C33.1016 14.9648 32.5104 16.0551 32.5104 16.0551L32.6692 15.0538H31.01L29.8984 21.9609H31.7284Z" fill="white"/>
<path d="M42.8077 14.8809C41.5858 14.8809 40.6491 15.2736 40.6491 15.2736L40.3907 16.8087C40.3907 16.8087 41.1638 16.4945 42.3324 16.4945C42.996 16.4945 43.4811 16.5691 43.4811 17.1084C43.4811 17.436 43.422 17.5568 43.422 17.5568C43.422 17.5568 42.8986 17.513 42.656 17.513C41.1151 17.513 39.4961 18.1707 39.4961 20.1537C39.4961 21.7162 40.558 22.0747 41.2163 22.0747C42.4735 22.0747 43.0155 21.2589 43.0442 21.2564L42.9858 21.9374C42.9858 21.9374 44.5543 21.9374 44.5549 21.9374L45.2547 17.0298C45.2549 14.9479 43.4386 14.8809 42.8077 14.8809ZM43.19 18.8766C43.224 19.1764 43.0019 20.5815 41.9286 20.5815C41.3752 20.5815 41.2316 20.1588 41.2316 19.9087C41.2316 19.421 41.4966 18.8354 42.8022 18.8354C43.1059 18.8358 43.1382 18.8683 43.19 18.8766Z" fill="white"/>
<path d="M46.6891 21.9609C47.208 19.0112 47.3042 16.6161 48.5416 17.0545C48.7586 15.9129 48.9679 15.4713 49.2042 14.9881C49.2042 14.9881 49.0933 14.9648 48.8606 14.9648C48.0626 14.9648 47.4713 16.0551 47.4713 16.0551L47.6302 15.0538H45.971L44.8594 21.9609H46.6891Z" fill="white"/>
<path d="M55.206 20.8945C55.2965 20.8945 55.3856 20.9178 55.4716 20.965C55.5583 21.0107 55.6257 21.0779 55.6741 21.165C55.7226 21.2515 55.7464 21.3416 55.7464 21.4359C55.7464 21.529 55.7226 21.6189 55.6748 21.7049C55.6274 21.7908 55.5607 21.8582 55.4748 21.9057C55.389 21.9529 55.2991 21.9767 55.2058 21.9767C55.1117 21.9767 55.0218 21.9529 54.9359 21.9057C54.8501 21.8579 54.7836 21.7908 54.736 21.7049C54.6877 21.6189 54.6641 21.529 54.6641 21.4359C54.6641 21.3416 54.6881 21.2515 54.7366 21.165C54.7853 21.0779 54.853 21.0111 54.9393 20.965C55.0264 20.9178 55.1155 20.8945 55.206 20.8945ZM55.206 20.9837C55.1302 20.9837 55.0562 21.0033 54.9839 21.0428C54.9117 21.0813 54.8556 21.1371 54.815 21.21C54.7746 21.2819 54.7542 21.3573 54.7542 21.4355C54.7542 21.5137 54.7738 21.5885 54.8133 21.6599C54.8535 21.7311 54.9094 21.787 54.9816 21.8273C55.053 21.8666 55.1276 21.8864 55.206 21.8864C55.2838 21.8864 55.359 21.8666 55.4304 21.8273C55.5018 21.787 55.5577 21.7311 55.5974 21.6599C55.6372 21.5879 55.6567 21.5137 55.6567 21.4355C55.6567 21.3573 55.6365 21.2819 55.596 21.21C55.5558 21.1371 55.4997 21.0813 55.4272 21.0428C55.3554 21.0035 55.2819 20.9837 55.206 20.9837ZM54.9689 21.7347V21.1524H55.1693C55.2375 21.1524 55.2874 21.1578 55.3176 21.169C55.3482 21.1794 55.3722 21.1981 55.3909 21.2251C55.4092 21.2519 55.4185 21.2801 55.4185 21.3103C55.4185 21.3528 55.403 21.39 55.3724 21.4213C55.3426 21.4527 55.3023 21.4708 55.2521 21.4742C55.2721 21.4829 55.2887 21.4933 55.3016 21.505C55.3248 21.5281 55.3535 21.5666 55.3875 21.6204L55.4587 21.7345H55.3437L55.2925 21.6429C55.2517 21.5706 55.219 21.5256 55.1941 21.5073C55.1769 21.4939 55.1518 21.4873 55.1187 21.4873H55.0638V21.7349L54.9689 21.7347ZM55.063 21.407H55.1771C55.2317 21.407 55.2685 21.3989 55.2882 21.3826C55.308 21.3668 55.3184 21.345 55.3184 21.318C55.3184 21.3008 55.3137 21.2853 55.3042 21.2723C55.2946 21.2583 55.2812 21.2483 55.264 21.2413C55.2468 21.2347 55.216 21.2313 55.1699 21.2313H55.0632V21.407" fill="white"/>
</g>
<defs>
<clipPath id="clip0">
<rect width="56.6667" height="34" fill="white" transform="translate(0.597656 0.5)"/>
</clipPath>
</defs>
</svg>
