<svg width="32" height="32" viewBox="0 0 32 32" fill="none" xmlns="http://www.w3.org/2000/svg">
<path d="M13.3312 9.33337C15.5373 9.33337 17.332 7.53865 17.332 5.3326C17.332 3.12738 15.5372 1.33337 13.3312 1.33337C11.1261 1.33337 9.33203 3.12738 9.33203 5.3326C9.33203 7.53865 11.1261 9.33337 13.3312 9.33337ZM13.3312 2.43806C14.8818 2.43806 16.1433 3.73656 16.1433 5.3326C16.1433 6.92947 14.8818 8.22869 13.3312 8.22869C11.7815 8.22869 10.5208 6.92953 10.5208 5.3326C10.5208 3.73656 11.7815 2.43806 13.3312 2.43806Z" fill="#131313" stroke="#131313" stroke-width="0.3"/>
<path d="M9.33203 9.3334C9.33203 7.12774 7.53802 5.33337 5.33289 5.33337C3.12681 5.33332 1.33203 7.12774 1.33203 9.3334C1.33203 11.539 3.12681 13.3334 5.33283 13.3334C7.53802 13.3334 9.33203 11.539 9.33203 9.3334ZM2.52075 9.3334C2.52075 7.73704 3.78227 6.43828 5.33283 6.43828C6.8825 6.43828 8.14326 7.73704 8.14326 9.3334C8.14326 10.9298 6.8825 12.2285 5.33283 12.2285C3.78227 12.2285 2.52075 10.9297 2.52075 9.3334Z" fill="#131313" stroke="#131313" stroke-width="0.3"/>
<path d="M21.3312 13.3334C23.5373 13.3334 25.332 11.539 25.332 9.3334C25.332 7.12774 23.5372 5.33337 21.3312 5.33337C19.1261 5.33337 17.332 7.12774 17.332 9.3334C17.332 11.539 19.1261 13.3334 21.3312 13.3334ZM21.3312 6.43822C22.8818 6.43822 24.1433 7.73698 24.1433 9.33335C24.1433 10.9297 22.8818 12.2284 21.3312 12.2284C19.7815 12.2284 18.5208 10.9297 18.5208 9.33335C18.5208 7.73698 19.7815 6.43822 21.3312 6.43822Z" fill="#131313" stroke="#131313" stroke-width="0.3"/>
<path d="M23.6071 16.6927C22.8324 16.6927 22.0866 16.8173 21.3886 17.0465C20.5683 15.8278 19.2767 15.0042 17.814 14.7749C16.8981 13.079 15.0977 12 13.1385 12C11.1793 12 9.37882 13.079 8.46297 14.7749C7.28332 14.9598 6.20115 15.535 5.38734 16.4158C4.4927 17.384 4 18.6403 4 19.9532C4 20.2726 4.26163 20.5316 4.58439 20.5316C4.90715 20.5316 5.16878 20.2726 5.16878 19.9532C5.16878 17.8337 6.77397 16.0849 8.9026 15.8852C9.1107 15.8657 9.29245 15.7376 9.37917 15.5494C10.049 14.0959 11.5246 13.1567 13.1385 13.1567C14.7524 13.1567 16.228 14.0959 16.8978 15.5494C16.9846 15.7376 17.1662 15.8655 17.3742 15.8852C18.5455 15.9954 19.5987 16.5915 20.2914 17.5129C18.0657 18.6899 16.5476 21.0124 16.5476 23.6796C16.5476 23.7935 16.5506 23.9066 16.5561 24.0191C15.7533 23.9374 14.986 23.6248 14.3604 23.1169C14.3525 23.1105 14.3444 23.1042 14.3361 23.0982C13.8801 22.7663 13.4766 22.66 13.135 22.6637C12.5409 22.6456 11.9784 23.0654 11.9145 23.1173C11.1819 23.7132 10.2532 24.0414 9.2994 24.0414C8.60042 24.0414 7.91119 23.8662 7.30629 23.5347C7.0238 23.3799 6.66826 23.4811 6.51199 23.7606C6.35567 24.04 6.45782 24.392 6.74019 24.5467C7.51796 24.9729 8.40289 25.1982 9.2994 25.1982C10.504 25.1982 11.6782 24.7896 12.6123 24.0466C12.7629 23.9635 12.9168 23.849 13.0919 23.8246C13.2911 23.7969 13.4778 23.9109 13.6321 24.0218C14.5049 24.7257 15.5901 25.1354 16.7145 25.191C17.4143 28.3195 20.2387 30.6667 23.6071 30.6667C27.4998 30.6667 30.6667 27.5324 30.6667 23.6796C30.6667 19.8269 27.4998 16.6927 23.6071 16.6927ZM23.6071 29.51C20.3589 29.51 17.7164 26.8946 17.7164 23.6798C17.7164 20.4649 20.359 17.8495 23.6071 17.8495C26.8553 17.8495 29.4979 20.4649 29.4979 23.6798C29.4979 26.8946 26.8553 29.51 23.6071 29.51Z" fill="#131313" stroke="#131313" stroke-width="0.3"/>
<path fill-rule="evenodd" clip-rule="evenodd" d="M27.3672 22.2587L26.503 21.3945L23.0464 24.8511L21.3181 23.1228L20.454 23.987L23.0464 26.5794L27.3672 22.2587Z" fill="#131313" stroke="#131313" stroke-width="0.3"/>
<path d="M5.51904 21.5368C5.26338 21.8014 5.27078 22.223 5.53556 22.4785L5.53743 22.4803C5.66659 22.6048 5.83281 22.6667 5.99889 22.6667C6.17344 22.6667 6.34785 22.5984 6.47881 22.4629C6.73447 22.1982 6.72613 21.7758 6.46135 21.5203C6.19656 21.2648 5.77462 21.2721 5.51904 21.5368Z" fill="#131313" stroke="#131313" stroke-width="0.3"/>
</svg>
