<svg width="17" height="17" viewBox="0 0 17 17" fill="none" xmlns="http://www.w3.org/2000/svg">
<path d="M5.22471 8.75109C5.87302 10.0765 6.94739 11.146 8.27575 11.7883C8.37294 11.8343 8.48045 11.8543 8.58769 11.8462C8.69493 11.838 8.79822 11.8021 8.88737 11.742L10.8433 10.4377C10.9298 10.3801 11.0293 10.3449 11.1328 10.3354C11.2364 10.3259 11.3407 10.3423 11.4362 10.3833L15.0954 11.9515C15.2197 12.0043 15.3234 12.096 15.3911 12.213C15.4587 12.3299 15.4865 12.4656 15.4702 12.5997C15.3546 13.5047 14.913 14.3365 14.2282 14.9394C13.5434 15.5422 12.6624 15.8748 11.75 15.8749C8.93207 15.8749 6.22956 14.7555 4.23699 12.7629C2.24442 10.7703 1.125 8.06782 1.125 5.24989C1.12505 4.33753 1.45765 3.45647 2.06053 2.77167C2.66341 2.08688 3.49523 1.64531 4.40023 1.52966C4.53431 1.51343 4.67002 1.54122 4.78693 1.60883C4.90384 1.67644 4.99561 1.78022 5.04841 1.90452L6.61798 5.56685C6.65858 5.66158 6.67512 5.76488 6.66614 5.86755C6.65715 5.97022 6.62291 6.06908 6.56647 6.15531L5.26676 8.14123C5.2076 8.23056 5.17263 8.33372 5.16526 8.44061C5.15789 8.5475 5.17837 8.65448 5.22471 8.75109V8.75109Z" stroke="#222222" stroke-width="1.2" stroke-linecap="round" stroke-linejoin="round"/>
</svg>
