<svg width="87" height="87" viewBox="0 0 87 87" fill="none" xmlns="http://www.w3.org/2000/svg">
<circle cx="43.5" cy="43.5" r="43.5" fill="#fe6b8d"/>
<g clip-path="url(#clip0)">
<path d="M35.156 53.8482C35.8112 54.2972 36.032 54.4485 36.763 54.4485C37.494 54.4485 37.7146 54.2972 38.3698 53.8482C39.262 53.2367 40.6103 52.3125 42.9957 52.3125C45.3812 52.3125 46.7294 53.2366 47.6217 53.8482C48.2769 54.2972 48.4976 54.4485 49.2287 54.4485C49.9598 54.4485 50.1806 54.2972 50.8358 53.8481C51.5041 53.39 52.4285 52.7564 53.8531 52.4674L49.6656 44.7287L53.1697 35.1481L62.0515 27.527C63.2557 26.4937 63.3943 24.6799 62.361 23.4757C61.3276 22.2715 59.5139 22.1329 58.3097 23.1662L48.8584 31.2761C48.485 31.5965 48.2001 32.0076 48.0311 32.4696L43.7427 44.1942L43.721 44.2587L28.3125 52.6197C28.9334 52.4349 29.663 52.3125 30.5302 52.3125C32.9155 52.3125 34.2639 53.2367 35.156 53.8482Z" fill="white"/>
<path d="M58.7877 49.4186C61.9597 49.0612 64.2413 46.2001 63.8839 43.0281C63.5265 39.8561 60.6654 37.5744 57.4934 37.9318C54.3214 38.2892 52.0397 41.1504 52.3971 44.3224C52.7545 47.4943 55.6157 49.776 58.7877 49.4186Z" fill="white"/>
<path d="M20.5805 56.9314C21.3963 57.4906 22.4117 58.1865 24.3007 58.1865C26.1898 58.1865 27.2051 57.4906 28.0209 56.9314C28.7391 56.4392 29.3063 56.0505 30.5337 56.0505C31.761 56.0505 32.3282 56.4392 33.0463 56.9314C33.8621 57.4906 34.8775 58.1865 36.7666 58.1865C38.6556 58.1865 39.6709 57.4906 40.4867 56.9314C41.2047 56.4392 41.7719 56.0505 42.9992 56.0505C44.2266 56.0505 44.7938 56.4393 45.5119 56.9314C46.3277 57.4906 47.3431 58.1865 49.2321 58.1865C51.1212 58.1865 52.1366 57.4906 52.9524 56.9314C53.6706 56.4392 54.2378 56.0505 55.4652 56.0505C56.6927 56.0505 57.2599 56.4393 57.9782 56.9315C58.7941 57.4907 59.8095 58.1865 61.6987 58.1865C63.5879 58.1865 64.6033 57.4906 65.4191 56.9315C66.1372 56.4393 66.7045 56.0505 67.9321 56.0505C68.5219 56.0505 69.0001 55.5723 69.0001 54.9825C69.0001 54.3926 68.5219 53.9144 67.9321 53.9144C66.0429 53.9144 65.0274 54.6103 64.2116 55.1694C63.4934 55.6616 62.9261 56.0504 61.6987 56.0504C60.4711 56.0504 59.904 55.6616 59.1857 55.1694C58.3698 54.6102 57.3544 53.9144 55.4652 53.9144C53.5761 53.9144 52.5607 54.6103 51.7449 55.1694C51.0267 55.6616 50.4595 56.0504 49.2321 56.0504C48.0048 56.0504 47.4376 55.6616 46.7194 55.1695C45.9037 54.6103 44.8882 53.9144 42.9992 53.9144C41.1102 53.9144 40.0948 54.6103 39.279 55.1695C38.561 55.6617 37.9938 56.0504 36.7666 56.0504C35.5392 56.0504 34.972 55.6616 34.2539 55.1695C33.4381 54.6103 32.4228 53.9144 30.5337 53.9144C28.6446 53.9144 27.6292 54.6103 26.8134 55.1695C26.0952 55.6617 25.528 56.0504 24.3007 56.0504C23.0734 56.0504 22.5062 55.6617 21.7882 55.1695C20.9725 54.6103 19.957 53.9144 18.068 53.9144C17.4782 53.9144 17 54.3926 17 54.9825C17 55.5723 17.4782 56.0505 18.068 56.0505C19.2954 56.0504 19.8625 56.4392 20.5805 56.9314Z" fill="white"/>
<path d="M52.9524 62.2715C52.1366 62.8307 51.1212 63.5266 49.2321 63.5266C47.343 63.5266 46.3277 62.8307 45.5119 62.2715C44.7938 61.7793 44.2266 61.3906 42.9992 61.3906C41.7719 61.3906 41.2047 61.7793 40.4867 62.2715C39.6709 62.8307 38.6556 63.5266 36.7666 63.5266C34.8775 63.5266 33.8621 62.8307 33.0463 62.2715C32.3282 61.7793 31.761 61.3906 30.5337 61.3906C29.3064 61.3906 28.7391 61.7794 28.0209 62.2715C27.2051 62.8307 26.1897 63.5266 24.3007 63.5266C20.8538 63.5266 20.6737 61.3906 18.068 61.3906C17.4782 61.3906 17 60.9124 17 60.3226C17 59.7327 17.4782 59.2545 18.068 59.2545C21.515 59.2545 21.6951 61.3905 24.3007 61.3905C26.8505 61.3905 27.1287 59.2545 30.5337 59.2545C32.4228 59.2545 33.4381 59.9504 34.2539 60.5096C34.972 61.0018 35.5392 61.3905 36.7666 61.3905C37.9938 61.3905 38.561 61.0018 39.279 60.5096C40.0948 59.9504 41.1101 59.2545 42.9992 59.2545C44.8883 59.2545 45.9037 59.9504 46.7194 60.5096C47.4376 61.0018 48.0048 61.3905 49.2321 61.3905C50.4595 61.3905 51.0267 61.0017 51.7449 60.5095C52.5607 59.9503 53.5761 59.2545 55.4652 59.2545C57.3544 59.2545 58.3698 59.9504 59.1857 60.5095C59.9039 61.0017 60.4711 61.3905 61.6987 61.3905C62.9261 61.3905 63.4934 61.0017 64.2116 60.5095C65.0274 59.9503 66.0429 59.2545 67.9321 59.2545C68.5219 59.2545 69.0001 59.7327 69.0001 60.3226C69.0001 60.9124 68.5219 61.3906 67.9321 61.3906C66.7045 61.3906 66.1373 61.7794 65.4191 62.2716C64.6032 62.8308 63.5878 63.5266 61.6987 63.5266C59.8095 63.5266 58.7941 62.8307 57.9782 62.2716C57.26 61.7794 56.6927 61.3906 55.4652 61.3906C54.2379 61.3906 53.6706 61.7794 52.9524 62.2715Z" fill="white"/>
<path d="M57.9781 62.2716C58.794 62.8308 59.8094 63.5266 61.6986 63.5266C63.5878 63.5266 64.6032 62.8307 65.419 62.2716C66.1371 61.7794 66.7044 61.3906 67.932 61.3906C68.5218 61.3906 69 60.9124 69 60.3226C69 59.7327 68.5218 59.2545 67.932 59.2545C66.0428 59.2545 65.0273 59.9504 64.2115 60.5095C63.4933 61.0017 62.926 61.3905 61.6986 61.3905C60.471 61.3905 59.9039 61.0017 59.1856 60.5095C58.3697 59.9503 57.3543 59.2545 55.4651 59.2545C53.576 59.2545 52.5606 59.9504 51.7448 60.5095C51.0266 61.0017 50.4594 61.3905 49.232 61.3905C48.0047 61.3905 47.4375 61.0017 46.7193 60.5096C45.9036 59.9504 44.8881 59.2545 42.9991 59.2545C41.1101 59.2545 40.0947 59.9504 39.2789 60.5096C38.5609 61.0018 37.9937 61.3905 36.7665 61.3905C35.5391 61.3905 34.9719 61.0017 34.2538 60.5096C33.438 59.9504 32.4227 59.2545 30.5336 59.2545C27.0865 59.2545 26.9063 61.3905 24.3006 61.3905C23.0733 61.3905 22.5061 61.0018 21.7881 60.5096C20.9724 59.9504 19.9569 59.2545 18.0679 59.2545C17.4782 59.2546 17 59.7327 17 60.3226C17 60.9124 17.4782 61.3906 18.068 61.3906C20.6177 61.3906 20.896 63.5266 24.3007 63.5266C26.1898 63.5266 27.2051 62.8307 28.0209 62.2715C28.7391 61.7793 29.3063 61.3906 30.5337 61.3906C31.761 61.3906 32.3282 61.7793 33.0463 62.2715C33.8621 62.8307 34.8775 63.5266 36.7666 63.5266C38.6556 63.5266 39.6709 62.8307 40.4867 62.2715C41.2047 61.7793 41.7719 61.3906 42.9992 61.3906C44.2266 61.3906 44.7938 61.7794 45.5119 62.2715C46.3277 62.8307 47.3431 63.5266 49.2321 63.5266C51.1212 63.5266 52.1366 62.8307 52.9524 62.2715C53.6706 61.7793 54.2378 61.3906 55.4652 61.3906C56.6927 61.3906 57.2599 61.7794 57.9781 62.2716Z" fill="white"/>
</g>
<defs>
<clipPath id="clip0">
<rect width="52" height="52" fill="white" transform="translate(17 17)"/>
</clipPath>
</defs>
</svg>
