<svg width="173" height="180" viewBox="0 0 173 180" fill="none" xmlns="http://www.w3.org/2000/svg">
<path d="M131.313 13.5503C90.4018 -16.746 67.123 12.1941 61.8798 28.7392V35.7912L44.5194 39.3172C36.8345 40.7637 21.2986 46.252 23.9059 55.8622C28.4631 72.66 49.1303 59.3882 51.0289 65.3553C52.9275 71.3223 43.4345 75.1195 36.3834 77.2894C-37.12 107.938 19.5671 182.527 61.8798 179.543C104.192 176.56 102.292 151.606 106.09 149.708C124.804 145.368 139.692 134.292 145.147 121.5C148.013 114.778 142.977 106.311 145.147 104.141C206.716 80.2729 145.147 38.2323 142.977 35.7912C140.807 33.3501 147.07 27.3233 131.313 13.5503Z" fill="#EC0412" fill-opacity="0.31"/>
<g filter="url(#filter0_d)">
<path d="M140.315 40.7916L115.555 16.0312H36.1966V152.808H140.315V40.7916Z" fill="white"/>
</g>
<rect x="52.8281" y="94.4531" width="70.7207" height="3.55286" fill="#B6B6B6"/>
<rect x="52.8281" y="104.484" width="70.7207" height="3.55286" fill="#B6B6B6"/>
<rect x="52.8281" y="114.516" width="70.7207" height="3.55286" fill="#B6B6B6"/>
<rect x="52.8281" y="124.547" width="70.7207" height="3.55286" fill="#B6B6B6"/>
<path d="M140.305 40.7812L115.543 16.0352V40.7812H140.305Z" fill="#B6B6B6" fill-opacity="0.4"/>
<rect x="35.9453" y="33.7812" width="59.3137" height="18" fill="#B6B6B6"/>
<rect x="65.6016" y="39.7656" width="6.03098" height="6.03098" fill="white"/>
<rect x="73.6211" y="39.7656" width="6.03098" height="6.03098" fill="white"/>
<rect x="81.6406" y="39.7656" width="6.03098" height="6.03098" fill="white"/>
<circle cx="40.7188" cy="23.7656" r="21" fill="#fe6b8d"/>
<g clip-path="url(#clip0)">
<path d="M29.58 23.7932C29.58 27.5189 31.431 30.8122 34.2635 32.8037C34.7626 33.1548 34.7891 33.8839 34.3097 34.2613L34.2962 34.272C33.9831 34.5184 33.5442 34.5348 33.218 34.3058C29.9114 31.9835 27.75 28.1406 27.75 23.7932C27.75 16.7417 33.5869 11.0172 40.6242 10.957V12.7875C34.5969 12.8472 29.58 17.7519 29.58 23.7932Z" fill="white"/>
<path d="M40.9581 9.32027L44.3211 11.6206C44.5012 11.7439 44.5012 12.0096 44.3211 12.1328L40.9581 14.4332C40.7521 14.5741 40.4727 14.4266 40.4727 14.1772V9.57648C40.4727 9.32691 40.7521 9.17955 40.9581 9.32027Z" fill="white"/>
<path d="M51.8433 23.7389C51.8433 20.0132 49.9921 16.7199 47.1596 14.7284C46.6605 14.3773 46.6339 13.6483 47.1134 13.2708L47.1269 13.2602C47.44 13.0137 47.8789 12.9973 48.2051 13.2263C51.5119 15.5486 53.6731 19.3915 53.6731 23.7389C53.6731 30.7905 47.8462 36.5149 40.8086 36.5751V34.7447C46.836 34.6849 51.8433 29.7804 51.8433 23.7389Z" fill="white"/>
<path d="M40.463 38.2106L37.0999 35.9103C36.9198 35.787 36.9198 35.5213 37.0999 35.3981L40.463 33.0977C40.6687 32.9568 40.9484 33.1043 40.9484 33.3537V37.9544C40.9484 38.204 40.6687 38.3516 40.463 38.2106Z" fill="white"/>
<path d="M46.4184 22.3391L40.9097 26.9075L39.5209 28.0593C39.1936 28.3303 38.7795 28.4775 38.3582 28.4775C38.2881 28.4775 38.2179 28.4735 38.1471 28.4653C37.6557 28.4076 37.2035 28.1469 36.9068 27.7507L34.7646 24.8952C34.281 24.2502 34.4117 23.3347 35.0569 22.8501C35.7025 22.3665 36.618 22.4973 37.1019 23.1424L38.548 25.0706L38.5598 25.0611L44.5539 20.09C45.175 19.5754 46.0958 19.6612 46.6107 20.2823C47.1255 20.9033 47.0395 21.8242 46.4184 22.3391Z" fill="white"/>
<path d="M46.4173 22.3391L40.9085 26.9075C40.0076 26.4577 39.2153 25.836 38.5586 25.0611L44.5528 20.09C45.1738 19.5754 46.0947 19.6612 46.6095 20.2823C47.1244 20.9033 47.0383 21.8242 46.4173 22.3391Z" fill="white"/>
</g>
<path d="M168.91 126.518L163.878 125.878C163.463 124.601 162.952 123.37 162.355 122.201L165.463 118.199C166.72 116.58 166.573 114.294 165.136 112.903L160.921 108.687C159.515 107.236 157.23 107.092 155.608 108.347L151.612 111.455C150.442 110.858 149.211 110.347 147.932 109.932L147.292 104.908C147.051 102.893 145.341 101.375 143.315 101.375H137.319C135.293 101.375 133.583 102.893 133.342 104.9L132.702 109.932C131.423 110.347 130.192 110.855 129.022 111.455L125.024 108.347C123.407 107.092 121.121 107.236 119.727 108.674L115.511 112.887C114.061 114.294 113.914 116.58 115.171 118.202L118.279 122.201C117.679 123.37 117.171 124.601 116.756 125.878L111.732 126.518C109.717 126.759 108.199 128.469 108.199 130.495V136.49C108.199 138.517 109.717 140.227 111.724 140.468L116.756 141.107C117.171 142.384 117.682 143.615 118.279 144.785L115.171 148.786C113.914 150.405 114.061 152.691 115.498 154.083L119.713 158.298C121.121 159.746 123.404 159.891 125.026 158.636L129.025 155.528C130.195 156.128 131.426 156.639 132.702 157.051L133.342 162.072C133.583 164.093 135.293 165.611 137.319 165.611H143.315C145.341 165.611 147.051 164.093 147.292 162.086L147.932 157.054C149.208 156.639 150.439 156.128 151.609 155.531L155.61 158.638C157.23 159.896 159.515 159.749 160.907 158.312L165.123 154.096C166.573 152.688 166.72 150.405 165.463 148.783L162.355 144.785C162.955 143.615 163.466 142.384 163.878 141.107L168.899 140.468C170.915 140.227 172.432 138.517 172.432 136.49V130.495C172.435 128.469 170.917 126.759 168.91 126.518ZM140.317 146.875C132.938 146.875 126.935 140.872 126.935 133.493C126.935 126.114 132.938 120.11 140.317 120.11C147.696 120.11 153.699 126.114 153.699 133.493C153.699 140.872 147.696 146.875 140.317 146.875Z" fill="#fe6b8d"/>
<defs>
<filter id="filter0_d" x="29.1953" y="14.0312" width="112.118" height="144.777" filterUnits="userSpaceOnUse" color-interpolation-filters="sRGB">
<feFlood flood-opacity="0" result="BackgroundImageFix"/>
<feColorMatrix in="SourceAlpha" type="matrix" values="0 0 0 0 0 0 0 0 0 0 0 0 0 0 0 0 0 0 127 0" result="hardAlpha"/>
<feOffset dx="-3" dy="2"/>
<feGaussianBlur stdDeviation="2"/>
<feComposite in2="hardAlpha" operator="out"/>
<feColorMatrix type="matrix" values="0 0 0 0 0 0 0 0 0 0 0 0 0 0 0 0 0 0 0.25 0"/>
<feBlend mode="normal" in2="BackgroundImageFix" result="effect1_dropShadow"/>
<feBlend mode="normal" in="SourceGraphic" in2="effect1_dropShadow" result="shape"/>
</filter>
<clipPath id="clip0">
<rect width="29" height="29" fill="white" transform="translate(26.2188 9.26562)"/>
</clipPath>
</defs>
</svg>
