<svg width="24" height="24" viewBox="0 0 24 24" fill="none" xmlns="http://www.w3.org/2000/svg">
<path d="M12 1.5C9.81276 1.5026 7.71585 2.37262 6.16924 3.91924C4.62262 5.46585 3.7526 7.56276 3.75 9.75C3.75 16.8091 11.25 22.1411 11.5693 22.3645C11.6956 22.4527 11.846 22.5 12 22.5C12.154 22.5 12.3044 22.4527 12.4307 22.3645C12.75 22.1411 20.25 16.8091 20.25 9.75C20.2474 7.56276 19.3774 5.46585 17.8308 3.91924C16.2842 2.37262 14.1872 1.50259 12 1.5ZM12.0005 6.75027C12.5939 6.75027 13.1739 6.92622 13.6673 7.25586C14.1606 7.58551 14.5451 8.05404 14.7722 8.60222C14.9993 9.1504 15.0587 9.7536 14.9429 10.3355C14.8271 10.9175 14.5414 11.452 14.1219 11.8716C13.7023 12.2912 13.1678 12.5769 12.5858 12.6926C12.0039 12.8084 11.4007 12.749 10.8525 12.5219C10.3043 12.2948 9.83578 11.9103 9.50614 11.417C9.1765 10.9236 9.00055 10.3436 9.00055 9.75027C9.00054 9.3563 9.07813 8.96619 9.22889 8.60221C9.37965 8.23823 9.60063 7.9075 9.8792 7.62893C10.1578 7.35035 10.4885 7.12937 10.8525 6.97861C11.2165 6.82785 11.6066 6.75026 12.0005 6.75027Z" fill="#fe6b8d"/>
</svg>
