<svg width="24" height="24" viewBox="0 0 24 24" fill="none" xmlns="http://www.w3.org/2000/svg">
<path d="M20.8901 20.3598L15.4133 14.883C16.5508 13.6199 17.25 11.9546 17.25 10.125C17.25 6.1963 14.0537 3 10.125 3C6.1963 3 3 6.1963 3 10.125C3 14.0537 6.1963 17.25 10.125 17.25C11.9546 17.25 13.6199 16.5508 14.883 15.4133L20.3598 20.8901C20.4331 20.9633 20.5291 21 20.625 21C20.7209 21 20.8169 20.9633 20.8901 20.8901C21.0366 20.7436 21.0366 20.5063 20.8901 20.3598ZM10.125 16.5C6.61012 16.5 3.75002 13.6402 3.75002 10.125C3.75002 6.60977 6.61012 3.74999 10.125 3.74999C13.6399 3.74999 16.5 6.60973 16.5 10.125C16.5 13.6403 13.6399 16.5 10.125 16.5Z" fill="#333333" stroke="#333333"/>
</svg>
