<svg width="86" height="86" viewBox="0 0 86 86" fill="none" xmlns="http://www.w3.org/2000/svg">
<circle cx="43" cy="43" r="43" fill="#fe6b8d"/>
<g clip-path="url(#clip0)">
<path d="M61.9283 57.536V54.1312H26.0781V57.536C26.0781 60.7064 28.6575 63.2858 31.8279 63.2858H56.1785C59.349 63.2858 61.9283 60.7064 61.9283 57.536Z" fill="white"/>
<path d="M66.5907 33.047C66.401 32.5876 66.0461 32.2242 65.591 32.0244L44.7716 22.8756C44.2822 22.6606 43.7207 22.6606 43.2313 22.8756L22.4719 31.998C22.0022 32.2043 21.6294 32.5983 21.4494 33.0787L18.1234 41.9535C17.8661 42.6398 18.0175 43.3986 18.5185 43.9337L25.2134 51.0845H62.737L69.5546 42.9154C70.0116 42.3678 70.1266 41.6181 69.8546 40.9586L66.5907 33.047ZM52.2325 39.0025C52.2325 43.4897 45.4368 46.8896 44.6619 47.2626C44.2444 47.4633 43.7582 47.4634 43.3406 47.2626C42.5658 46.8896 35.7702 43.4897 35.7702 39.0025V33.3965C35.7702 32.5552 36.4523 31.8731 37.2936 31.8731C38.0961 31.8731 38.832 31.4018 39.1684 30.6724C39.4174 30.1327 39.9574 29.787 40.5518 29.787H47.4509C48.0452 29.787 48.5853 30.1326 48.8342 30.6724C49.1706 31.4019 49.9066 31.8731 50.7091 31.8731C51.5504 31.8731 52.2325 32.5552 52.2325 33.3965V39.0025Z" fill="white"/>
<path d="M46.59 32.8337H41.4116C40.7642 33.7126 39.8507 34.3609 38.8164 34.6858V39.0024C38.8164 39.9733 39.8179 41.2854 41.5641 42.6019C42.4861 43.2971 43.4098 43.8441 44.0054 44.1727C46.0347 43.0603 49.1852 40.8196 49.1852 39.0024V34.6858C48.1508 34.3609 47.2373 33.7127 46.59 32.8337Z" fill="white"/>
</g>
<defs>
<clipPath id="clip0">
<rect width="52" height="52" fill="white" transform="translate(18 17)"/>
</clipPath>
</defs>
</svg>
