<svg width="16" height="15" viewBox="0 0 16 15" fill="none" xmlns="http://www.w3.org/2000/svg">
<path d="M15.4785 5.93344C15.4268 5.77433 15.2893 5.65837 15.1238 5.63435L10.4737 4.95862L8.39406 0.74495C8.32006 0.594951 8.16728 0.5 8.00002 0.5C7.83274 0.5 7.67998 0.594951 7.60595 0.74495L5.52623 4.95862L0.876254 5.63435C0.710757 5.65837 0.573209 5.77433 0.521529 5.93341C0.46982 6.09252 0.512945 6.26716 0.63274 6.3839L3.99741 9.6638L3.20324 14.2951C3.17494 14.46 3.24273 14.6266 3.37805 14.7249C3.4546 14.7805 3.54528 14.8088 3.63639 14.8088C3.70635 14.8088 3.77654 14.7922 3.84082 14.7584L7.99999 12.5717L12.159 14.7583C12.3071 14.8362 12.4865 14.8232 12.6218 14.7249C12.7571 14.6266 12.8249 14.4599 12.7967 14.2951L12.0022 9.6638L15.3673 6.38388C15.487 6.26716 15.5302 6.09252 15.4785 5.93344Z" fill="#B3B3B3"/>
</svg>
