<svg width="20" height="20" viewBox="0 0 20 20" fill="none" xmlns="http://www.w3.org/2000/svg">
<path d="M19.9713 7.24458C19.9024 7.03243 19.7191 6.87783 19.4984 6.8458L13.2983 5.94482L10.5254 0.3266C10.4267 0.126601 10.223 0 10 0C9.77699 0 9.57331 0.126601 9.4746 0.3266L6.70165 5.94482L0.501672 6.8458C0.281009 6.87783 0.0976116 7.03244 0.0287057 7.24454C-0.0402394 7.45669 0.0172604 7.68954 0.176986 7.84521L4.66322 12.2184L3.60432 18.3935C3.56658 18.6133 3.65697 18.8354 3.8374 18.9666C3.93947 19.0407 4.06037 19.0784 4.18185 19.0784C4.27513 19.0784 4.36873 19.0562 4.45443 19.0111L9.99999 16.0956L15.5453 19.0111C15.7428 19.1149 15.982 19.0976 16.1624 18.9665C16.3428 18.8354 16.4332 18.6133 16.3955 18.3934L15.3363 12.2184L19.823 7.84517C19.9827 7.68954 20.0403 7.45669 19.9713 7.24458Z" fill="white"/>
</svg>
