<svg width="86" height="86" viewBox="0 0 86 86" fill="none" xmlns="http://www.w3.org/2000/svg">
<circle cx="43" cy="43" r="43" fill="#fe6b8d"/>
<path d="M65.8085 23.2528H21.1872C19.43 23.2528 18 24.6828 18 26.44V56.1876C18 57.9448 19.43 59.3748 21.1872 59.3748H39.2482V61.6611L27.3875 63.6371C26.8095 63.7327 26.4165 64.2809 26.5142 64.8589C26.6013 65.3795 27.0496 65.7471 27.5617 65.7471C27.6191 65.7471 27.6785 65.7428 27.7381 65.7322L40.3999 63.6223H46.6001L59.2619 65.7322C59.3214 65.7429 59.3787 65.7471 59.4383 65.7471C59.9483 65.7471 60.3988 65.3794 60.4858 64.8589C60.5814 64.2809 60.1905 63.7327 59.6125 63.6371L47.7517 61.661V59.3747H65.8127C67.5699 59.3747 68.9999 57.9447 68.9999 56.1875V26.44C68.9957 24.6828 67.5657 23.2528 65.8085 23.2528ZM64.746 55.1251H22.2497V27.5024H64.7461V55.1251H64.746Z" fill="white"/>
</svg>
