<svg width="54" height="35" viewBox="0 0 54 35" fill="none" xmlns="http://www.w3.org/2000/svg">
<path d="M2.03125 33.1036H52.0484V1.81641H2.03125V33.1036Z" fill="white"/>
<path d="M2.03067 33.4027V33.1028H1.72656V1.51562H52.3519V33.4027H2.03067ZM2.33468 32.8029L51.7435 32.8027V2.11556H2.33468V32.8029Z" fill="#004E8C"/>
<path d="M4.16797 10.9688H49.7713V4.41602H4.16797V10.9688Z" fill="#004E8C"/>
<path d="M4.16797 30.7501H49.7713V24.1973H4.16797V30.7501Z" fill="#FFA336"/>
<path d="M48.4953 29.1944C48.4449 29.1334 48.3684 29.1074 48.2943 29.1074H47.87V30.1033H47.9683V29.6758H48.1835L48.4776 30.1033H48.5982L48.3119 29.6758C48.3705 29.6831 48.4325 29.665 48.4802 29.6215C48.5279 29.5778 48.5609 29.5089 48.5655 29.4284C48.57 29.3478 48.5458 29.2557 48.4953 29.1944ZM47.9682 29.5614V29.2265H48.2587C48.2991 29.2265 48.3428 29.2241 48.3748 29.253C48.4069 29.2817 48.4259 29.3308 48.4279 29.3841C48.43 29.4374 48.4152 29.495 48.3828 29.5291C48.3506 29.5632 48.3023 29.5614 48.2585 29.5614H47.9682ZM48.6323 28.863C48.5052 28.7907 48.3585 28.752 48.2118 28.752C48.0652 28.752 47.9186 28.7908 47.7915 28.863C47.6645 28.9354 47.5571 29.0413 47.4837 29.1666C47.4103 29.2919 47.3711 29.4365 47.3711 29.5812C47.3711 29.7259 47.4104 29.8706 47.4837 29.9959C47.557 30.1212 47.6645 30.2271 47.7915 30.2995C47.9186 30.3718 48.0652 30.4105 48.2118 30.4105C48.3585 30.4105 48.5052 30.3717 48.6323 30.2995C48.7594 30.2271 48.8667 30.1212 48.9401 29.9959C49.0135 29.8706 49.0527 29.7259 49.0527 29.5812C49.0527 29.4365 49.0134 29.2919 48.9401 29.1666C48.8667 29.0413 48.7594 28.9353 48.6323 28.863ZM48.8161 29.2381C48.8772 29.3424 48.9099 29.463 48.9099 29.5835C48.9099 29.704 48.8773 29.8245 48.8161 29.9289C48.755 30.0333 48.6656 30.1214 48.5598 30.1816C48.4539 30.2419 48.3317 30.2742 48.2096 30.2742C48.0874 30.2742 47.9652 30.242 47.8594 30.1816C47.7536 30.1214 47.6641 30.0333 47.6031 29.9289C47.5421 29.8245 47.5092 29.704 47.5092 29.5835C47.5092 29.463 47.542 29.3424 47.6031 29.2381C47.6642 29.1337 47.7536 29.0455 47.8594 28.9853C47.9652 28.925 48.0874 28.8927 48.2096 28.8927C48.3317 28.8927 48.4539 28.925 48.5598 28.9853C48.6656 29.0455 48.7551 29.1337 48.8161 29.2381Z" fill="white"/>
<path d="M20.1361 12.8594H22.4756L16.1279 23.027H13.3674L13.1177 14.982C13.1064 14.6169 13.0965 14.2391 12.9567 13.9472C12.817 13.6551 12.598 13.4506 12.3066 13.3083C12.0152 13.1659 11.6517 13.0856 11.293 13.0901V12.8594H15.847L16.07 19.7804L20.1361 12.8594Z" fill="#004E8C"/>
<path d="M22.9282 23.027L26.1878 12.8594H23.2869L20.0273 23.027H22.9282Z" fill="#004E8C"/>
<path d="M24.6133 22.167C25.0539 22.6077 25.6216 22.9147 26.3965 23.0658C27.1714 23.2168 28.1536 23.2124 29.0853 23.0555C30.0168 22.8988 30.8976 22.5897 31.52 22.1217C32.1424 21.6536 32.5064 21.0266 32.6836 20.3476C32.8609 19.6686 32.8513 18.9376 32.4776 18.3672C32.1039 17.7969 31.3662 17.387 30.7524 17.0006C30.1384 16.6143 29.6484 16.2511 29.4449 15.8426C29.2413 15.4341 29.3244 14.9801 29.5628 14.6887C29.8011 14.3975 30.1947 14.269 30.6789 14.2391C31.1631 14.2093 31.7377 14.278 32.2144 14.4096C32.691 14.5412 33.0697 14.7359 33.3941 14.9989L34.361 13.4761C33.9121 13.1595 33.4021 12.9342 32.6817 12.7685C31.9614 12.6026 31.0304 12.4965 30.2214 12.5556C29.4123 12.6147 28.7248 12.8394 28.1158 13.237C27.5068 13.6347 26.9762 14.2054 26.6783 14.8206C26.3803 15.4358 26.3152 16.0952 26.4977 16.6654C26.6802 17.2356 27.1105 17.7165 27.5544 18.0613C27.9983 18.4061 28.4561 18.6146 28.8582 18.8535C29.2604 19.0923 29.6068 19.3614 29.7932 19.6841C29.9795 20.0069 30.0055 20.3833 29.781 20.6955C29.5566 21.0078 29.0816 21.2562 28.5346 21.3445C27.9875 21.4329 27.3684 21.3612 26.7924 21.1889C26.2164 21.0165 25.6838 20.7433 25.2216 20.3828L24.6133 22.167Z" fill="#004E8C"/>
<path d="M35.4724 20.6735L34.1598 23.027H31.8203L38.0433 12.8594H40.679L41.568 23.027H38.823L38.6302 20.6735H35.4724ZM38.2257 15.7368L36.2101 19.3507H38.5218L38.2257 15.7368Z" fill="#004E8C"/>
<path d="M42.5227 13.0422C42.4723 12.981 42.3958 12.9551 42.3219 12.9551H41.8974V13.9509H41.9957V13.5235H42.211L42.5051 13.9509H42.6256L42.3393 13.5235C42.3979 13.5309 42.4599 13.5127 42.5076 13.4692C42.5552 13.4256 42.5884 13.3567 42.5928 13.2761C42.5974 13.1957 42.5731 13.1034 42.5227 13.0422ZM41.9956 13.409V13.0741H42.286C42.3264 13.0741 42.3702 13.0718 42.4023 13.1006C42.4343 13.1295 42.4533 13.1785 42.4553 13.2318C42.4575 13.2852 42.4426 13.3427 42.4104 13.3768C42.378 13.4109 42.3299 13.4091 42.286 13.4091H41.9956V13.409ZM42.6598 12.7108C42.5326 12.6384 42.3859 12.5996 42.2393 12.5996C42.0926 12.5996 41.9459 12.6384 41.8189 12.7108C41.6918 12.7832 41.5845 12.8891 41.5111 13.0143C41.4377 13.1395 41.3984 13.2843 41.3984 13.429C41.3984 13.5736 41.4378 13.7183 41.5111 13.8436C41.5845 13.969 41.6918 14.0749 41.8189 14.1472C41.9459 14.2195 42.0926 14.2582 42.2393 14.2582C42.3859 14.2582 42.5326 14.2194 42.6598 14.1472C42.7868 14.0749 42.8941 13.9689 42.9675 13.8436C43.0409 13.7184 43.0802 13.5736 43.0802 13.429C43.0802 13.2843 43.0408 13.1396 42.9675 13.0143C42.8941 12.889 42.7868 12.7831 42.6598 12.7108ZM42.8435 13.0858C42.9045 13.1902 42.9374 13.3106 42.9374 13.4312C42.9374 13.5517 42.9046 13.6722 42.8435 13.7765C42.7824 13.8808 42.6929 13.9691 42.5872 14.0294C42.4813 14.0896 42.3592 14.1219 42.237 14.1219C42.1147 14.1219 41.9927 14.0896 41.8868 14.0294C41.781 13.9692 41.6915 13.8809 41.6305 13.7765C41.5694 13.6722 41.5365 13.5517 41.5365 13.4312C41.5365 13.3106 41.5693 13.1902 41.6305 13.0858C41.6916 12.9814 41.781 12.8932 41.8868 12.8329C41.9927 12.7727 42.1147 12.7404 42.237 12.7404C42.3592 12.7404 42.4813 12.7727 42.5872 12.8329C42.6929 12.8932 42.7825 12.9814 42.8435 13.0858Z" fill="#004E8C"/>
<path d="M2.46437 32.8184H1.71875V33.4041H2.46437V32.8184Z" fill="#004E8C"/>
</svg>
