<svg width="20" height="20" viewBox="0 0 20 20" fill="none" xmlns="http://www.w3.org/2000/svg">
<path d="M3.125 5V15C3.125 15.3315 3.2567 15.6495 3.49112 15.8839C3.72554 16.1183 4.04348 16.25 4.375 16.25H16.875C17.0408 16.25 17.1997 16.1842 17.3169 16.0669C17.4342 15.9497 17.5 15.7908 17.5 15.625V6.875C17.5 6.70924 17.4342 6.55027 17.3169 6.43306C17.1997 6.31585 17.0408 6.25 16.875 6.25H4.375C4.04348 6.25 3.72554 6.1183 3.49112 5.88388C3.2567 5.64946 3.125 5.33152 3.125 5ZM3.125 5C3.125 4.66848 3.2567 4.35054 3.49112 4.11612C3.72554 3.8817 4.04348 3.75 4.375 3.75H15" stroke="#222222" stroke-width="1.2" stroke-linecap="round" stroke-linejoin="round"/>
<path d="M13.8813 11.6688C14.2126 11.6688 14.4813 11.4001 14.4813 11.0688C14.4813 10.7374 14.2126 10.4688 13.8813 10.4688C13.5499 10.4688 13.2812 10.7374 13.2812 11.0688C13.2812 11.4001 13.5499 11.6688 13.8813 11.6688Z" fill="#222222"/>
</svg>
