<svg width="32" height="32" viewBox="0 0 32 32" fill="none" xmlns="http://www.w3.org/2000/svg">
<path d="M12.5 5.62325V5C12.6326 5 12.7598 4.94732 12.8536 4.85355C12.9473 4.75979 13 4.63261 13 4.5V2.25C12.9996 1.9186 12.8678 1.60087 12.6335 1.36654C12.3991 1.1322 12.0814 1.00038 11.75 1H8.25001C7.9186 1.00038 7.60088 1.1322 7.36654 1.36654C7.13221 1.60087 7.00039 1.9186 7.00001 2.25V4.5C7.00001 4.63261 7.05269 4.75979 7.14645 4.85355C7.24022 4.94732 7.3674 5 7.50001 5V5.62356C6.7058 5.88109 5.97665 6.30726 5.36251 6.87288L6.04063 7.60787C6.62951 7.06556 7.34494 6.67953 8.12151 6.48506C8.22964 6.45797 8.32562 6.39553 8.3942 6.30764C8.46278 6.21976 8.50002 6.11147 8.50001 6V5H11.5V6C11.5 6.11151 11.5373 6.21982 11.6059 6.30771C11.6745 6.39559 11.7706 6.45802 11.8788 6.48506C12.9137 6.74257 13.8326 7.33921 14.4889 8.17983C15.1453 9.02045 15.5012 10.0566 15.5 11.1231V11.6319C13.7493 12.135 11.8875 12.098 10.1581 11.5256C8.98083 11.1354 7.74135 10.9671 6.50263 11.0293C6.51448 10.636 6.61038 10.2499 6.78388 9.89675L5.88601 9.45625C5.63066 9.97472 5.49856 10.5452 5.50001 11.1231V11.129C5.16343 11.1796 4.82965 11.2474 4.50001 11.3321V11.1231C4.49793 10.1143 4.81706 9.13097 5.4112 8.31563L4.60189 7.72813C3.88339 8.71407 3.49747 9.90316 3.50001 11.1231V14.5856C3.49949 14.7827 3.53805 14.9779 3.61347 15.16C3.68888 15.342 3.79966 15.5073 3.93939 15.6463C4.03302 15.7401 4.0856 15.8673 4.0856 15.9998C4.0856 16.1324 4.03302 16.2595 3.93939 16.3533C3.79964 16.4923 3.68885 16.6576 3.61343 16.8397C3.53801 17.0218 3.49946 17.2171 3.50001 17.4142V18.0858C3.49949 18.2829 3.53805 18.4781 3.61347 18.6602C3.68888 18.8422 3.79966 19.0075 3.93939 19.1465C4.03302 19.2403 4.0856 19.3675 4.0856 19.5C4.0856 19.6325 4.03302 19.7597 3.93939 19.8535C3.79966 19.9925 3.68888 20.1578 3.61347 20.3398C3.53805 20.5219 3.49949 20.7171 3.50001 20.9142V21.5858C3.49949 21.7829 3.53805 21.9781 3.61347 22.1602C3.68888 22.3422 3.79966 22.5075 3.93939 22.6465C4.03302 22.7403 4.0856 22.8675 4.0856 23C4.0856 23.1325 4.03302 23.2597 3.93939 23.3535C3.79966 23.4925 3.68888 23.6578 3.61347 23.8398C3.53805 24.0219 3.49949 24.2171 3.50001 24.4142V25.0858C3.49949 25.2829 3.53805 25.4781 3.61347 25.6602C3.68888 25.8422 3.79966 26.0075 3.93939 26.1465C4.03302 26.2403 4.0856 26.3675 4.0856 26.5C4.0856 26.6325 4.03302 26.7597 3.93939 26.8535C3.79966 26.9925 3.68888 27.1578 3.61347 27.3398C3.53805 27.5219 3.49949 27.7171 3.50001 27.9142V29C3.50061 29.5303 3.71151 30.0386 4.08646 30.4136C4.4614 30.7885 4.96976 30.9994 5.50001 31H14.5C15.0302 30.9994 15.5386 30.7885 15.9136 30.4136C16.2885 30.0386 16.4994 29.5303 16.5 29V27.9142C16.5005 27.7171 16.462 27.5219 16.3865 27.3398C16.3111 27.1578 16.2003 26.9925 16.0606 26.8535C15.967 26.7597 15.9144 26.6325 15.9144 26.5C15.9144 26.3675 15.967 26.2403 16.0606 26.1465C16.2003 26.0075 16.3111 25.8422 16.3865 25.6602C16.462 25.4781 16.5005 25.2829 16.5 25.0858V24.4142C16.5005 24.2171 16.462 24.0219 16.3865 23.8398C16.3111 23.6578 16.2003 23.4925 16.0606 23.3535C15.967 23.2597 15.9144 23.1325 15.9144 23C15.9144 22.8675 15.967 22.7403 16.0606 22.6465C16.2003 22.5075 16.3111 22.3422 16.3865 22.1602C16.462 21.9781 16.5005 21.7829 16.5 21.5858V20.9142C16.5005 20.7171 16.462 20.5219 16.3865 20.3398C16.3111 20.1578 16.2003 19.9925 16.0606 19.8535C15.967 19.7597 15.9144 19.6325 15.9144 19.5C15.9144 19.3675 15.967 19.2403 16.0606 19.1465C16.2003 19.0075 16.3111 18.8422 16.3865 18.6602C16.462 18.4781 16.5005 18.2829 16.5 18.0858V17.4142C16.5005 17.2171 16.462 17.0219 16.3865 16.8398C16.3111 16.6578 16.2003 16.4925 16.0606 16.3535C15.967 16.2597 15.9144 16.1325 15.9144 16C15.9144 15.8675 15.967 15.7403 16.0606 15.6465C16.2003 15.5075 16.3111 15.3422 16.3865 15.1602C16.462 14.9781 16.5005 14.7829 16.5 14.5858V11.1233C16.5014 9.90113 16.1149 8.71004 15.3961 7.72161C14.6772 6.73318 13.6632 5.99845 12.5 5.62325ZM8.00001 4V2.25C8.00001 2.1837 8.02635 2.12011 8.07323 2.07322C8.12011 2.02634 8.1837 2 8.25001 2H11.75C11.8163 2 11.8799 2.02634 11.9268 2.07322C11.9737 2.12011 12 2.1837 12 2.25V4H8.00001ZM15.3536 17.0607C15.4001 17.107 15.4371 17.1621 15.4622 17.2228C15.4873 17.2834 15.5002 17.3485 15.5 17.4142V18.0858C15.5002 18.1515 15.4873 18.2166 15.4622 18.2772C15.4371 18.3379 15.4001 18.393 15.3536 18.4393C15.0727 18.7208 14.9149 19.1023 14.9149 19.5C14.9149 19.8977 15.0727 20.2792 15.3536 20.5607C15.4001 20.607 15.4371 20.6621 15.4622 20.7228C15.4873 20.7834 15.5002 20.8485 15.5 20.9142V21.5858C15.5002 21.6515 15.4873 21.7166 15.4622 21.7772C15.4371 21.8379 15.4001 21.893 15.3536 21.9393C15.2143 22.0786 15.1038 22.244 15.0284 22.426C14.953 22.608 14.9142 22.803 14.9142 23C14.9142 23.197 14.953 23.392 15.0284 23.574C15.1038 23.756 15.2143 23.9214 15.3536 24.0607C15.4001 24.107 15.4371 24.1621 15.4622 24.2228C15.4873 24.2834 15.5002 24.3485 15.5 24.4142V25.0858C15.5002 25.1515 15.4873 25.2166 15.4622 25.2772C15.4371 25.3379 15.4001 25.393 15.3536 25.4393C15.0727 25.7208 14.9149 26.1023 14.9149 26.5C14.9149 26.8977 15.0727 27.2792 15.3536 27.5607C15.4001 27.607 15.4371 27.6621 15.4622 27.7228C15.4873 27.7834 15.5002 27.8485 15.5 27.9142V29C15.4997 29.2651 15.3942 29.5193 15.2068 29.7068C15.0193 29.8942 14.7651 29.9997 14.5 30H5.50001C5.23489 29.9997 4.98072 29.8942 4.79325 29.7068C4.60578 29.5193 4.50033 29.2651 4.50001 29V27.9142C4.49983 27.8485 4.51267 27.7834 4.53781 27.7228C4.56295 27.6621 4.59987 27.607 4.64645 27.5607C4.92734 27.2792 5.08509 26.8977 5.08509 26.5C5.08509 26.1023 4.92734 25.7208 4.64645 25.4393C4.59987 25.393 4.56295 25.3379 4.53781 25.2772C4.51267 25.2166 4.49983 25.1515 4.50001 25.0858V24.4142C4.49983 24.3485 4.51267 24.2834 4.53781 24.2228C4.56295 24.1621 4.59987 24.107 4.64645 24.0607C4.78574 23.9214 4.89624 23.756 4.97163 23.574C5.04701 23.392 5.08581 23.197 5.08581 23C5.08581 22.803 5.04701 22.608 4.97163 22.426C4.89624 22.244 4.78574 22.0786 4.64645 21.9393C4.59987 21.893 4.56295 21.8379 4.53781 21.7772C4.51267 21.7166 4.49983 21.6515 4.50001 21.5858V20.9142C4.49983 20.8485 4.51267 20.7834 4.53781 20.7228C4.56295 20.6621 4.59987 20.607 4.64645 20.5607C4.92734 20.2792 5.08509 19.8977 5.08509 19.5C5.08509 19.1023 4.92734 18.7208 4.64645 18.4393C4.59987 18.393 4.56295 18.3379 4.53781 18.2772C4.51267 18.2166 4.49983 18.1515 4.50001 18.0858V17.4142C4.49983 17.3485 4.51267 17.2834 4.53781 17.2228C4.56295 17.1621 4.59987 17.107 4.64645 17.0607C4.92734 16.7792 5.08509 16.3977 5.08509 16C5.08509 15.6023 4.92734 15.2208 4.64645 14.9393C4.59987 14.893 4.56295 14.8379 4.53781 14.7772C4.51267 14.7166 4.49983 14.6515 4.50001 14.5858V12.3681C4.82871 12.2734 5.1626 12.1976 5.50001 12.1412V13H6.50001V12.0302C7.63198 11.9669 8.76574 12.1176 9.84188 12.4744C10.8604 12.8124 11.9268 12.9843 13 12.9834C13.8433 12.9836 14.6832 12.8776 15.5 12.6679V14.5858C15.5002 14.6515 15.4873 14.7166 15.4622 14.7772C15.4371 14.8379 15.4001 14.893 15.3536 14.9393C15.0727 15.2208 14.9149 15.6023 14.9149 16C14.9149 16.3977 15.0727 16.7792 15.3536 17.0607Z" fill="#131313" stroke="#131313" stroke-width="0.3"/>
<path d="M7.76837 8.78672L7.22631 7.94641C6.90269 8.15508 6.61296 8.41211 6.36719 8.70854L7.13681 9.3471C7.3175 9.12917 7.53049 8.94019 7.76837 8.78672Z" fill="#131313" stroke="#131313" stroke-width="0.3"/>
<path d="M6 17.5H14V18.5H6V17.5Z" fill="#131313" stroke="#131313" stroke-width="0.3"/>
<path d="M6 21H14V22H6V21Z" fill="#131313" stroke="#131313" stroke-width="0.3"/>
<path d="M6 24.5H14V25.5H6V24.5Z" fill="#131313" stroke="#131313" stroke-width="0.3"/>
<path d="M28.372 16.1658C28.3251 16.1136 28.2677 16.0719 28.2037 16.0433C28.1396 16.0148 28.0702 16 28.0001 16H18C17.9299 16 17.8605 16.0148 17.7964 16.0433C17.7323 16.0719 17.675 16.1136 17.6281 16.1658C17.5812 16.218 17.5458 16.2795 17.5242 16.3462C17.5027 16.413 17.4954 16.4836 17.5029 16.5533L19.0029 30.5533C19.016 30.676 19.0741 30.7895 19.1658 30.8719C19.2576 30.9544 19.3767 31 19.5 31H26.5001C26.6234 31 26.7425 30.9544 26.8343 30.8719C26.926 30.7895 26.9841 30.676 26.9972 30.5533L27.3318 27.4307L26.3374 27.3241L26.0508 30H19.9493L18.86 19.8326L19.08 19.7505C19.6768 19.5287 20.3128 19.4317 20.9486 19.4655C21.5844 19.4993 22.2065 19.6633 22.7764 19.9472C23.4413 20.2788 24.165 20.4759 24.9062 20.5274C25.6474 20.5789 26.3914 20.4837 27.0957 20.2472L26.4529 26.2472L27.4472 26.3534L28.4972 16.5531C28.5046 16.4833 28.4973 16.4128 28.4757 16.3461C28.4542 16.2794 28.4188 16.218 28.372 16.1658ZM26.9201 19.2495C26.3233 19.4714 25.6873 19.5684 25.0515 19.5345C24.4157 19.5007 23.7936 19.3368 23.2237 19.0528C22.5341 18.7092 21.7816 18.5101 21.0123 18.4677C20.243 18.4253 19.4732 18.5405 18.75 18.8062L18.5563 17H27.4438L27.2146 19.1396L26.9201 19.2495Z" fill="#131313" stroke="#131313" stroke-width="0.3"/>
<path d="M19.9961 21.0021L20.9901 20.8951L21.1015 21.9301L20.1075 22.0371L19.9961 21.0021Z" fill="#131313" stroke="#131313" stroke-width="0.3"/>
<path d="M20.2148 23.0366L21.2088 22.9296L21.6393 26.9284L20.6453 27.0354L20.2148 23.0366Z" fill="#131313" stroke="#131313" stroke-width="0.3"/>
</svg>
