<svg width="34" height="34" viewBox="0 0 34 34" fill="none" xmlns="http://www.w3.org/2000/svg">
<mask id="mask0" mask-type="alpha" maskUnits="userSpaceOnUse" x="0" y="0" width="34" height="34">
<rect width="34" height="34" rx="3" fill="#C4C4C4"/>
</mask>
<g mask="url(#mask0)">
<path d="M17.0083 41.0771C30.3086 41.0771 41.0907 30.295 41.0907 16.9946C41.0907 3.6942 30.3086 -7.08789 17.0083 -7.08789C3.70787 -7.08789 -7.07422 3.6942 -7.07422 16.9946C-7.07422 30.295 3.70787 41.0771 17.0083 41.0771Z" fill="#D42428"/>
<path d="M34.0365 -0.0390625C43.4413 9.36655 43.4421 24.6153 34.0365 34.0209C24.6317 43.4257 9.38217 43.4261 -0.0234375 34.0209L34.0365 -0.0390625Z" fill="#CC202D"/>
<path d="M40.6087 21.825L28.6895 9.90625L14.6321 11.5068L6.12891 24.6709L22.0177 40.5593C31.3594 38.5831 38.7036 31.1937 40.6087 21.825Z" fill="#BA202E"/>
<path d="M29.6018 12.3485C29.6018 10.3297 27.9663 8.69336 25.9486 8.69336H8.80877C6.79145 8.69336 5.15625 10.3301 5.15625 12.3485V22.15C5.15625 24.1688 6.79176 25.8051 8.80877 25.8051H25.9483C27.9664 25.8051 29.6015 24.1684 29.6015 22.15V12.3485H29.6018ZM14.9337 21.3841V12.1782L21.9151 16.7814L14.9337 21.3841Z" fill="white"/>
</g>
</svg>
