<svg width="34" height="34" viewBox="0 0 34 34" fill="none" xmlns="http://www.w3.org/2000/svg">
<path d="M6.10254 29.6591C5.96953 29.5968 5.87346 29.5267 6.02864 29.3865C6.12471 29.3086 6.22817 29.2385 6.33162 29.1684C7.29967 28.5065 8.2086 27.7823 8.80717 26.7154C9.30967 25.8277 9.22838 25.3059 8.60026 24.6518C5.09754 20.9605 3.56048 16.5451 4.32901 11.3275C4.76501 8.3839 6.04342 5.83743 7.90563 3.62581C9.02886 2.28638 10.3664 1.20393 11.8296 0.300593C11.9182 0.246082 12.0439 0.230507 12.0586 0.0903339C12.0291 0.01246 11.9774 0.0358222 11.933 0.0358222C9.44268 0.0358222 6.95236 -0.0186896 4.46942 0.0513969C2.08993 0.129271 0.0355989 2.06833 0.0429886 4.84843C0.057768 12.9707 0.0429886 21.0929 0.0429886 29.223C0.0429886 31.7461 1.86824 33.8565 4.25512 33.9499C6.2725 34.0356 8.28989 33.9655 10.3147 33.9577C10.4625 33.9655 10.6103 33.9733 10.7581 33.9733H21.4288C24.0891 33.9733 26.7494 33.9888 29.4096 33.9733C31.8778 33.9733 33.8804 31.8707 33.8804 29.2775V29.2307V24.6751C33.8804 24.5661 33.9174 24.4493 33.8509 24.3325C33.7178 24.3403 33.6661 24.4571 33.5922 24.535C32.1586 26.0535 30.4664 27.2761 28.6116 28.1405C24.0669 30.2509 19.4409 30.3989 14.7485 28.7012C14.3421 28.5455 13.8987 28.5299 13.4775 28.6389C12.8567 28.8024 12.2434 28.9971 11.63 29.1918C9.82695 29.7836 7.98691 30.0484 6.10254 29.6591V29.6591ZM11.4601 16.5373C11.5857 16.366 11.6522 16.2647 11.7261 16.1635C12.6942 14.8708 13.6622 13.5781 14.6303 12.2776C14.9111 11.9038 15.1919 11.5222 15.3692 11.0706C15.5761 10.5566 15.3544 10.0738 14.8519 9.88687C14.6303 9.81678 14.3938 9.78563 14.1573 9.80121C12.8419 9.79342 11.5192 9.79342 10.2038 9.80121C10.0191 9.80121 9.83434 9.82457 9.65699 9.87129C9.24316 9.98032 8.99191 10.4242 9.09537 10.8681C9.16927 11.164 9.39096 11.3976 9.67176 11.4677C9.84912 11.5144 10.0339 11.5378 10.2186 11.53C11.0167 11.5378 11.8222 11.53 12.6203 11.5378C12.7089 11.5378 12.8198 11.4755 12.8863 11.6157C12.8198 11.7091 12.7533 11.8026 12.6868 11.8882C11.5414 13.4146 10.4033 14.9487 9.25794 16.475C8.97713 16.8566 8.82934 17.2771 9.03625 17.7443C9.24316 18.2116 9.66438 18.2972 10.093 18.3284C10.4329 18.3518 10.7802 18.3362 11.1275 18.3362C12.3247 18.3362 13.5144 18.344 14.7115 18.3284C15.3471 18.3206 15.687 17.9157 15.6205 17.2927C15.5687 16.8021 15.251 16.5451 14.6598 16.5373C13.6179 16.5295 12.5759 16.5373 11.4601 16.5373V16.5373ZM20.0321 12.4411C19.1084 11.5923 18.0886 11.5378 17.091 12.1608C15.8791 12.9084 15.4357 14.131 15.5835 15.5483C15.7239 16.8722 16.2708 17.9546 17.5861 18.3985C18.4064 18.6788 19.1675 18.5776 19.84 18.0013C20.0173 17.8534 20.0691 17.8845 20.1947 18.0481C20.4386 18.3751 20.8598 18.4997 21.2293 18.3518C21.5987 18.235 21.8426 17.8767 21.8426 17.4718C21.85 15.9143 21.8574 14.3568 21.8426 12.7994C21.8352 12.1764 21.281 11.7792 20.7046 11.9038C20.3868 11.9739 20.2095 12.1997 20.0321 12.4411ZM25.1532 15.3303C25.1236 17.2771 26.6533 18.7489 28.5746 18.5464C30.3408 18.3595 31.4862 16.9656 31.427 14.9954C31.3679 13.0485 29.9934 11.7169 28.1091 11.7792C26.3429 11.8337 25.0941 13.3289 25.1532 15.3303V15.3303ZM24.5029 13.7806C24.5029 12.5579 24.5103 11.3431 24.5029 10.1205C24.5029 9.4975 24.126 9.10813 23.5644 9.11592C23.0176 9.12371 22.6555 9.51307 22.6481 10.1127C22.6407 10.4787 22.6481 10.8369 22.6481 11.2029V17.3939C22.6481 17.8767 22.9289 18.2973 23.2984 18.3985C23.8083 18.5464 24.3329 18.2272 24.4659 17.6898C24.4881 17.5964 24.5029 17.5029 24.4955 17.4017C24.5103 16.1947 24.5029 14.9876 24.5029 13.7806V13.7806Z" fill="#FDFEFE"/>
<path d="M10.3016 33.9714C8.28446 33.9714 6.25995 34.0415 4.24283 33.9636C1.85627 33.8624 0.03125 31.752 0.03125 29.2367C0.03125 21.1144 0.0460275 12.9922 0.03125 4.86213C0.03125 2.08203 2.09271 0.142968 4.46449 0.0728813C6.9471 0.00279481 9.4371 0.0573065 11.9271 0.0573065C11.9714 0.0573065 12.0305 0.0339444 12.0527 0.111818C12.0379 0.251991 11.9049 0.267566 11.8237 0.322078C10.3607 1.22541 9.02333 2.30786 7.90025 3.64729C6.04568 5.85891 4.76004 8.3976 4.3241 11.349C3.55567 16.5588 5.09992 20.982 8.59479 24.6732C9.21544 25.3352 9.29672 25.8491 8.80167 26.7369C8.20319 27.8038 7.29437 28.528 6.32645 29.1899C6.22301 29.2522 6.11956 29.3301 6.01612 29.4002C5.86096 29.5404 5.95701 29.6104 6.09001 29.6727C6.11956 29.7428 6.15651 29.8051 6.20084 29.8674C7.05054 30.6617 7.85592 31.5106 8.69084 32.3205C9.08244 32.702 9.47405 33.0992 9.85087 33.4964C10.006 33.6443 10.2646 33.691 10.3016 33.9714V33.9714Z" fill="#0068FF"/>
<path d="M10.302 33.967C10.265 33.6945 10.0064 33.6477 9.8512 33.4842C9.47432 33.0793 9.08267 32.6899 8.69102 32.3083C7.85598 31.4984 7.0505 30.6496 6.20069 29.8553C6.15635 29.793 6.1194 29.7307 6.08984 29.6606C7.97422 30.05 9.81425 29.7852 11.6247 29.2012C12.2381 29.0065 12.8514 28.8118 13.4721 28.6482C13.8934 28.5314 14.3367 28.5548 14.7432 28.7105C19.4282 30.4082 24.0542 30.2524 28.6062 28.1499C30.4611 27.2855 32.1533 26.0706 33.5869 24.5521C33.6608 24.4742 33.7125 24.3574 33.8455 24.3496C33.912 24.4586 33.8751 24.5754 33.8751 24.6923V29.2479C33.8899 31.8489 31.9094 33.967 29.4413 33.9904H29.4043C26.744 34.006 24.0838 33.9904 21.4235 33.9904H10.7454C10.5976 33.9748 10.4498 33.967 10.302 33.967V33.967Z" fill="#005BE0"/>
<path d="M11.4545 16.5388C12.5702 16.5388 13.6194 16.5311 14.6612 16.5388C15.2449 16.5466 15.5626 16.8036 15.6217 17.2942C15.6882 17.9094 15.3483 18.3222 14.7129 18.3299C13.5159 18.3455 12.3263 18.3377 11.1294 18.3377C10.7821 18.3377 10.4422 18.3533 10.0949 18.3299C9.66639 18.3066 9.24523 18.2131 9.03835 17.7459C8.83146 17.2786 8.97924 16.8581 9.26001 16.4765C10.3979 14.9502 11.5431 13.4161 12.6884 11.8898C12.7549 11.7963 12.8214 11.7029 12.8879 11.6172C12.814 11.4848 12.7105 11.5471 12.6219 11.5393C11.8239 11.5315 11.0185 11.5393 10.2205 11.5315C10.0358 11.5315 9.85111 11.5082 9.67378 11.4692C9.25262 11.368 8.99401 10.9241 9.09007 10.488C9.15656 10.1921 9.37823 9.9507 9.659 9.88061C9.83633 9.83389 10.021 9.81053 10.2058 9.81053C11.521 9.80274 12.8435 9.80274 14.1587 9.81053C14.3952 9.80274 14.6242 9.83389 14.8533 9.89619C15.3557 10.0753 15.57 10.5659 15.3705 11.0799C15.1932 11.5238 14.9124 11.9053 14.6316 12.2869C13.6637 13.5874 12.6958 14.8801 11.7278 16.165C11.6466 16.2663 11.5727 16.3675 11.4545 16.5388V16.5388Z" fill="#0068FF"/>
<path d="M20.0245 12.4445C20.2019 12.2031 20.3866 11.9773 20.6896 11.915C21.2734 11.7904 21.8202 12.1875 21.8276 12.8105C21.8498 14.368 21.8424 15.9255 21.8276 17.4829C21.8276 17.8879 21.5764 18.2461 21.2143 18.3629C20.8448 18.5109 20.4236 18.3941 20.1797 18.0592C20.0541 17.8957 20.0024 17.8645 19.825 18.0125C19.1526 18.5887 18.3914 18.69 17.5712 18.4096C16.2558 17.958 15.7163 16.8755 15.5686 15.5594C15.4134 14.1344 15.8641 12.9195 17.076 12.1719C18.081 11.5412 19.1008 11.5957 20.0245 12.4445V12.4445ZM17.4086 15.2869C17.4234 15.6295 17.5268 15.9566 17.719 16.2292C18.118 16.7899 18.8791 16.9067 19.4186 16.4861C19.5073 16.4161 19.5885 16.3304 19.6624 16.2292C20.0763 15.6373 20.0763 14.6639 19.6624 14.0721C19.4555 13.7683 19.1304 13.5892 18.7831 13.5815C17.9702 13.5269 17.4012 14.1889 17.4086 15.2869V15.2869ZM25.1456 15.3336C25.0865 13.3323 26.3353 11.8371 28.1089 11.7826C29.9932 11.7203 31.3677 13.0519 31.4268 14.9988C31.4859 16.969 30.3405 18.3629 28.5744 18.5498C26.6457 18.7523 25.116 17.2805 25.1456 15.3336V15.3336ZM27.0004 15.1467C26.9856 15.5361 27.0965 15.9177 27.3182 16.2369C27.7246 16.7976 28.4857 16.9067 29.0178 16.4706C29.0991 16.4083 29.1656 16.3304 29.2321 16.2525C29.6607 15.6607 29.6607 14.6639 29.2395 14.0721C29.0326 13.7761 28.7074 13.5892 28.3601 13.5815C27.562 13.5347 27.0004 14.1733 27.0004 15.1467V15.1467ZM24.4953 13.7839C24.4953 14.991 24.5027 16.198 24.4953 17.4051C24.5027 17.958 24.0889 18.4174 23.5642 18.433C23.4755 18.433 23.3795 18.4252 23.2908 18.4018C22.9213 18.3006 22.6405 17.8879 22.6405 17.3973V11.2063C22.6405 10.8403 22.6331 10.4821 22.6405 10.1161C22.6479 9.51644 23.01 9.12707 23.5568 9.12707C24.1184 9.11928 24.4953 9.50865 24.4953 10.1316C24.5027 11.3465 24.4953 12.5691 24.4953 13.7839V13.7839Z" fill="#0068FF"/>
<path d="M17.4102 15.2859C17.4028 14.1878 17.9718 13.5259 18.7771 13.5726C19.1244 13.5882 19.4495 13.7673 19.6564 14.071C20.0702 14.6551 20.0702 15.6363 19.6564 16.2281C19.2574 16.7888 18.4964 16.9056 17.957 16.4851C17.8683 16.415 17.7871 16.3294 17.7132 16.2281C17.5284 15.9556 17.425 15.6285 17.4102 15.2859V15.2859ZM27.0008 15.1457C27.0008 14.18 27.5624 13.5337 28.3603 13.5804C28.7076 13.5882 29.0327 13.7751 29.2396 14.071C29.6608 14.6629 29.6608 15.6674 29.2322 16.2515C28.8184 16.8044 28.05 16.8978 27.5254 16.4618C27.4441 16.3995 27.3776 16.3216 27.3185 16.2359C27.0969 15.9166 26.9934 15.5351 27.0008 15.1457V15.1457Z" fill="#FDFEFE"/>
<path fill-rule="evenodd" clip-rule="evenodd" d="M4.8772 0.155748C2.26511 0.155748 0.147794 2.38701 0.147794 5.13968V28.7355C0.147794 31.4881 2.26511 33.7194 4.8772 33.7194H29.1228C31.7349 33.7194 33.8522 31.4881 33.8522 28.7355V5.13968C33.8522 2.38701 31.7349 0.155748 29.1228 0.155748H4.8772ZM0 5.13968C0 2.301 2.18349 0 4.8772 0H29.1228C31.8165 0 34 2.301 34 5.13968V28.7355C34 31.5741 31.8165 33.8751 29.1228 33.8751H4.8772C2.18349 33.8751 0 31.5741 0 28.7355V5.13968Z" fill="#005BE0"/>
</svg>
